<?xml version="1.0" encoding="UTF-8"?>
<svg id="Trace" xmlns="http://www.w3.org/2000/svg" viewBox="0 0 560.33 560.33">
  <defs>
    <style>
      .cls-1 {
        fill: none;
        stroke: #000;
        stroke-miterlimit: 10;
        stroke-width: 9px;
      }
    </style>
  </defs>
  <g id="BMED">
    <path d="M308.58,391.38c-.1,0-.21,0-.31-.01-1.86-.14-3.37-1.55-3.65-3.39l-32.04-211.76-39.36,158.79c-.43,1.75-1.99,3-3.8,3.04-1.8,.05-3.41-1.14-3.92-2.87l-13.5-45.81-20.46,17.3c-.72,.61-1.64,.95-2.58,.95H99.6c-2.21,0-4-1.79-4-4s1.79-4,4-4h87.9l24.03-20.31c1.03-.87,2.44-1.16,3.73-.78,1.29,.39,2.31,1.4,2.69,2.7l11.07,37.54,40.64-163.97c.46-1.85,2.18-3.12,4.07-3.03,1.91,.09,3.48,1.51,3.77,3.4l32.46,214.5,26.06-83.07c.49-1.57,1.9-2.68,3.54-2.79,1.64-.12,3.19,.79,3.89,2.28l16.93,35.69,21.98-16.81c.7-.53,1.55-.82,2.43-.82h75.07c2.21,0,4,1.79,4,4s-1.79,4-4,4h-73.72l-24.83,18.99c-.96,.73-2.2,.99-3.37,.71-1.17-.28-2.16-1.08-2.67-2.17l-14.67-30.94-28.18,89.85c-.53,1.68-2.08,2.8-3.81,2.8Z"/>
    <circle class="cls-1" cx="280.17" cy="280.17" r="184.05"/>
  </g>
</svg>