<?xml version="1.0" encoding="UTF-8"?>
<svg id="Trace" xmlns="http://www.w3.org/2000/svg" viewBox="0 0 560.33 560.33">
  <defs>
    <style>
      .cls-1 {
        fill: none;
        stroke: #000;
        stroke-miterlimit: 10;
        stroke-width: 9px;
      }
    </style>
  </defs>
  <g id="Civil">
    <circle class="cls-1" cx="280.17" cy="280.17" r="184.05"/>
    <g>
      <path d="M170.01,430.87c-2.21,0-4-1.79-4-4v-132.8c-9.69,11.54-29.14,30.8-59.95,44.6-2.02,.9-4.38,0-5.29-2.02-.9-2.02,0-4.38,2.02-5.29,43.44-19.45,63.63-51.06,63.83-51.38,.95-1.51,2.78-2.21,4.5-1.72,1.71,.49,2.9,2.06,2.9,3.84v144.77c0,2.21-1.79,4-4,4Z"/>
      <path d="M451.28,353.06H109.05c-2.21,0-4-1.79-4-4s1.79-4,4-4H451.28c2.21,0,4,1.79,4,4s-1.79,4-4,4Z"/>
      <path d="M385.59,430.87c-2.21,0-4-1.79-4-4v-134.61c-15.79,15.96-56.15,51.43-103.8,52.25-.53,0-1.06,.01-1.59,.01-59.61,0-107.26-57.43-109.28-59.89-1.4-1.71-1.15-4.23,.56-5.63,1.71-1.4,4.23-1.15,5.63,.56,.47,.57,47.31,56.96,103.12,56.96,.47,0,.94,0,1.42-.01,56.65-.97,104.42-56.44,104.89-57,1.09-1.28,2.85-1.74,4.43-1.17,1.57,.58,2.62,2.08,2.62,3.75v144.77c0,2.21-1.79,4-4,4Z"/>
      <path d="M454.52,343.27c-.35,0-.7-.05-1.05-.14-40.04-10.91-69.98-56.92-71.24-58.87-1.19-1.86-.66-4.33,1.2-5.53s4.33-.66,5.53,1.2c.29,.45,29.56,45.38,66.61,55.48,2.13,.58,3.39,2.78,2.81,4.91-.49,1.78-2.1,2.95-3.86,2.95Z"/>
      <path d="M117.65,353.06c-2.21,0-4-1.79-4-4v-20.68c0-2.21,1.79-4,4-4s4,1.79,4,4v20.68c0,2.21-1.79,4-4,4Z"/>
      <path d="M143.49,353.06c-2.21,0-4-1.79-4-4v-38.38c0-2.21,1.79-4,4-4s4,1.79,4,4v38.38c0,2.21-1.79,4-4,4Z"/>
      <path d="M197.65,353.06c-2.21,0-4-1.79-4-4v-40.51c0-2.21,1.79-4,4-4s4,1.79,4,4v40.51c0,2.21-1.79,4-4,4Z"/>
      <path d="M222.8,353.06c-2.21,0-4-1.79-4-4v-23.08c0-2.21,1.79-4,4-4s4,1.79,4,4v23.08c0,2.21-1.79,4-4,4Z"/>
      <path d="M251.74,353.06c-2.21,0-4-1.79-4-4v-11.83c0-2.21,1.79-4,4-4s4,1.79,4,4v11.83c0,2.21-1.79,4-4,4Z"/>
      <path d="M305.08,353.06c-2.21,0-4-1.79-4-4v-12.89c0-2.21,1.79-4,4-4s4,1.79,4,4v12.89c0,2.21-1.79,4-4,4Z"/>
      <path d="M331.86,353.06c-2.21,0-4-1.79-4-4v-24.1c0-2.21,1.79-4,4-4s4,1.79,4,4v24.1c0,2.21-1.79,4-4,4Z"/>
      <path d="M358.42,353.06c-2.21,0-4-1.79-4-4v-40.51c0-2.21,1.79-4,4-4s4,1.79,4,4v40.51c0,2.21-1.79,4-4,4Z"/>
      <path d="M412.31,353.06c-2.21,0-4-1.79-4-4v-35.53c0-2.21,1.79-4,4-4s4,1.79,4,4v35.53c0,2.21-1.79,4-4,4Z"/>
      <path d="M439.89,353.06c-2.21,0-4-1.79-4-4v-15.54c0-2.21,1.79-4,4-4s4,1.79,4,4v15.54c0,2.21-1.79,4-4,4Z"/>
    </g>
  </g>
</svg>