<?xml version="1.0" encoding="utf-8"?>
<!-- Generator: Adobe Illustrator 26.4.0, SVG Export Plug-In . SVG Version: 6.00 Build 0)  -->
<svg version="1.1" id="Trace" xmlns="http://www.w3.org/2000/svg" xmlns:xlink="http://www.w3.org/1999/xlink" x="0px" y="0px"
	 viewBox="0 0 560.3 560.3" style="enable-background:new 0 0 560.3 560.3;" xml:space="preserve">
<g id="Civil">
	<g>
		<path d="M280.2,468.7c-104,0-188.5-84.6-188.5-188.5S176.2,91.6,280.2,91.6s188.5,84.6,188.5,188.5S384.1,468.7,280.2,468.7z
			 M280.2,100.6c-99,0-179.5,80.5-179.5,179.5s80.5,179.5,179.5,179.5s179.5-80.5,179.5-179.5S379.2,100.6,280.2,100.6z"/>
	</g>
	<g>
		<g>
			<path d="M170,430.9c-2.2,0-4-1.8-4-4V294.1c-9.7,11.5-29.1,30.8-59.9,44.6c-2,0.9-4.4,0-5.3-2c-0.9-2,0-4.4,2-5.3
				c43.4-19.5,63.6-51.1,63.8-51.4c0.9-1.5,2.8-2.2,4.5-1.7c1.7,0.5,2.9,2.1,2.9,3.8v144.8C174,429.1,172.2,430.9,170,430.9
				L170,430.9z"/>
		</g>
		<g>
			<path d="M451.3,353.1H109.1c-2.2,0-4-1.8-4-4s1.8-4,4-4h342.2c2.2,0,4,1.8,4,4S453.5,353.1,451.3,353.1z"/>
		</g>
		<g>
			<path d="M385.6,430.9c-2.2,0-4-1.8-4-4V292.3c-15.8,16-56.1,51.4-103.8,52.2c-0.5,0-1.1,0-1.6,0c-59.6,0-107.3-57.4-109.3-59.9
				c-1.4-1.7-1.1-4.2,0.6-5.6c1.7-1.4,4.2-1.1,5.6,0.6c0.5,0.6,47.3,57,103.1,57c0.5,0,0.9,0,1.4,0c56.6-1,104.4-56.4,104.9-57
				c1.1-1.3,2.9-1.7,4.4-1.2c1.6,0.6,2.6,2.1,2.6,3.8v144.8C389.6,429.1,387.8,430.9,385.6,430.9L385.6,430.9z"/>
		</g>
		<g>
			<path d="M454.5,343.3c-0.4,0-0.7,0-1-0.1c-40-10.9-70-56.9-71.2-58.9c-1.2-1.9-0.7-4.3,1.2-5.5s4.3-0.7,5.5,1.2
				c0.3,0.5,29.6,45.4,66.6,55.5c2.1,0.6,3.4,2.8,2.8,4.9C457.9,342.1,456.3,343.3,454.5,343.3L454.5,343.3z"/>
		</g>
		<g>
			<path d="M117.7,353.1c-2.2,0-4-1.8-4-4v-20.7c0-2.2,1.8-4,4-4s4,1.8,4,4v20.7C121.7,351.3,119.9,353.1,117.7,353.1z"/>
		</g>
		<g>
			<path d="M143.5,353.1c-2.2,0-4-1.8-4-4v-38.4c0-2.2,1.8-4,4-4s4,1.8,4,4v38.4C147.5,351.3,145.7,353.1,143.5,353.1z"/>
		</g>
		<g>
			<path d="M197.6,353.1c-2.2,0-4-1.8-4-4v-40.5c0-2.2,1.8-4,4-4s4,1.8,4,4v40.5C201.6,351.3,199.9,353.1,197.6,353.1z"/>
		</g>
		<g>
			<path d="M222.8,353.1c-2.2,0-4-1.8-4-4V326c0-2.2,1.8-4,4-4s4,1.8,4,4v23.1C226.8,351.3,225,353.1,222.8,353.1z"/>
		</g>
		<g>
			<path d="M251.7,353.1c-2.2,0-4-1.8-4-4v-11.8c0-2.2,1.8-4,4-4s4,1.8,4,4v11.8C255.7,351.3,254,353.1,251.7,353.1z"/>
		</g>
		<g>
			<path d="M305.1,353.1c-2.2,0-4-1.8-4-4v-12.9c0-2.2,1.8-4,4-4s4,1.8,4,4v12.9C309.1,351.3,307.3,353.1,305.1,353.1z"/>
		</g>
		<g>
			<path d="M331.9,353.1c-2.2,0-4-1.8-4-4V325c0-2.2,1.8-4,4-4s4,1.8,4,4v24.1C335.9,351.3,334.1,353.1,331.9,353.1z"/>
		</g>
		<g>
			<path d="M358.4,353.1c-2.2,0-4-1.8-4-4v-40.5c0-2.2,1.8-4,4-4s4,1.8,4,4v40.5C362.4,351.3,360.6,353.1,358.4,353.1z"/>
		</g>
		<g>
			<path d="M412.3,353.1c-2.2,0-4-1.8-4-4v-35.5c0-2.2,1.8-4,4-4s4,1.8,4,4v35.5C416.3,351.3,414.5,353.1,412.3,353.1z"/>
		</g>
		<g>
			<path d="M439.9,353.1c-2.2,0-4-1.8-4-4v-15.5c0-2.2,1.8-4,4-4s4,1.8,4,4v15.5C443.9,351.3,442.1,353.1,439.9,353.1z"/>
		</g>
	</g>
</g>
</svg>
