<?xml version="1.0" encoding="UTF-8"?>
<svg id="Trace" xmlns="http://www.w3.org/2000/svg" viewBox="0 0 560.33 560.33">
  <defs>
    <style>
      .cls-1 {
        fill: none;
        stroke: #000;
        stroke-miterlimit: 10;
        stroke-width: 9px;
      }
    </style>
  </defs>
  <g id="Comp">
    <g>
      <path d="M295.38,327.07h-77.86v-93.8h77.86c9.65,0,18.92,2.91,26.81,8.42,7.71,5.38,13.57,12.84,16.94,21.57,2.09,5.39,3.15,11.09,3.15,16.91s-1.06,11.52-3.15,16.92c-3.38,8.73-9.24,16.19-16.94,21.57-7.89,5.51-17.16,8.42-26.81,8.42Zm-68.98-8.88h68.98c15.59,0,29.85-9.77,35.47-24.31,1.69-4.37,2.55-8.98,2.55-13.71s-.86-9.34-2.55-13.71c-5.62-14.54-19.88-24.31-35.47-24.31h-68.98v76.04Z"/>
      <path d="M345.92,303.42c-4.88,0-9.55-1.5-13.51-4.33l-2.8-2,1.24-3.21c1.69-4.37,2.55-8.98,2.55-13.71s-.86-9.34-2.55-13.71l-1.24-3.21,2.8-2c3.96-2.83,8.63-4.33,13.51-4.33,12.82,0,23.25,10.43,23.25,23.25s-10.43,23.25-23.25,23.25Zm-5.54-9.99c1.74,.73,3.61,1.1,5.54,1.1,7.92,0,14.37-6.45,14.37-14.37s-6.45-14.37-14.37-14.37c-1.93,0-3.8,.38-5.54,1.1,1.26,4.29,1.9,8.73,1.9,13.26s-.64,8.97-1.9,13.26Z"/>
      <path d="M406.27,284.61h-41.54c-2.45,0-4.44-1.99-4.44-4.44s1.99-4.44,4.44-4.44h41.54c2.45,0,4.44,1.99,4.44,4.44s-1.99,4.44-4.44,4.44Z"/>
      <path d="M221.96,261.23h-69.74c-2.45,0-4.44-1.99-4.44-4.44s1.99-4.44,4.44-4.44h69.74c2.45,0,4.44,1.99,4.44,4.44s-1.99,4.44-4.44,4.44Z"/>
      <path d="M221.96,307.99h-69.74c-2.45,0-4.44-1.99-4.44-4.44s1.99-4.44,4.44-4.44h69.74c2.45,0,4.44,1.99,4.44,4.44s-1.99,4.44-4.44,4.44Z"/>
    </g>
    <circle class="cls-1" cx="279.24" cy="280.17" r="184.05"/>
  </g>
</svg>