<?xml version="1.0" encoding="UTF-8"?>
<svg id="Trace" xmlns="http://www.w3.org/2000/svg" viewBox="0 0 560.33 560.33">
  <defs>
    <style>
      .cls-1 {
        fill: none;
        stroke: #000;
        stroke-miterlimit: 10;
        stroke-width: 9px;
      }
    </style>
  </defs>
  <g id="Elec">
    <g>
      <path d="M283.75,287.79h-103.45c-2.08,0-3.76-1.69-3.76-3.76s1.69-3.76,3.76-3.76h103.45c2.08,0,3.76,1.69,3.76,3.76s-1.69,3.76-3.76,3.76Z"/>
      <path d="M283.75,345.15c-2.08,0-3.76-1.69-3.76-3.76v-118.07c0-2.08,1.69-3.76,3.76-3.76s3.76,1.69,3.76,3.76v118.07c0,2.08-1.69,3.76-3.76,3.76Z"/>
      <path d="M283.75,256.72c-1.22,0-2.41-.59-3.14-1.68-1.15-1.73-.69-4.07,1.04-5.22l74.6-49.76v-48.18c0-2.08,1.69-3.76,3.76-3.76s3.76,1.69,3.76,3.76v50.19l-1.68,3.13-76.28,50.88c-.64,.43-1.37,.63-2.09,.63Z"/>
      <path d="M360.02,412.21c-2.08,0-3.76-1.69-3.76-3.76v-48.18l-74.6-49.76c-1.73-1.15-2.2-3.49-1.04-5.22,1.15-1.73,3.49-2.2,5.22-1.04l76.28,50.88,1.68,3.13v50.19c0,2.08-1.69,3.76-3.76,3.76Z"/>
      <path d="M334.86,316.62l-21.17,27.59c-1.25,1.63-.45,4.02,1.54,4.56l44.14,11.95c2.5,.68,4.56-2.01,3.26-4.25l-22.97-39.54c-1.03-1.78-3.55-1.94-4.8-.31Z"/>
    </g>
    <circle class="cls-1" cx="280.17" cy="280.17" r="184.05"/>
  </g>
</svg>