<?xml version="1.0" encoding="UTF-8"?>
<svg id="Trace" xmlns="http://www.w3.org/2000/svg" xmlns:xlink="http://www.w3.org/1999/xlink" viewBox="0 0 560.33 560.33">
  <defs>
    <style>
      .cls-1 {
        clip-path: url(#clippath);
      }

      .cls-2, .cls-3 {
        fill: none;
      }

      .cls-3 {
        stroke: #000;
        stroke-miterlimit: 10;
        stroke-width: 9px;
      }
    </style>
    <clipPath id="clippath">
      <circle class="cls-2" cx="280.17" cy="280.17" r="184.05"/>
    </clipPath>
  </defs>
  <g id="Mech">
    <g class="cls-1">
      <path d="M404.95,205.02c-13.38,0-24.27-10.89-24.27-24.27s10.89-24.27,24.27-24.27,24.27,10.89,24.27,24.27-10.89,24.27-24.27,24.27Zm0-43.29c-10.49,0-19.02,8.53-19.02,19.02s8.53,19.02,19.02,19.02,19.02-8.53,19.02-19.02-8.53-19.02-19.02-19.02Z"/>
      <path d="M158.02,408.35c-13.38,0-24.27-10.89-24.27-24.27s10.89-24.27,24.27-24.27,24.27,10.89,24.27,24.27-10.89,24.27-24.27,24.27Zm0-43.29c-10.49,0-19.02,8.53-19.02,19.02s8.53,19.02,19.02,19.02,19.02-8.53,19.02-19.02-8.53-19.02-19.02-19.02Z"/>
      <path d="M154.61,544.2c-.36,0-.72-.01-1.08-.04-5.6-.42-10.14-4-11.87-9.34l-8.6-26.61c-.84-2.6-2.83-4.56-5.45-5.37-2.62-.81-5.36-.31-7.52,1.37l-22.1,17.14c-4.43,3.44-10.2,3.83-15.06,1.03-4.86-2.81-7.4-8-6.64-13.56l3.8-27.71c.37-2.71-.56-5.34-2.57-7.2-2.01-1.86-4.7-2.6-7.37-2.03l-27.35,5.86c-5.49,1.18-10.86-.98-14.02-5.61-3.16-4.64-3.2-10.42-.1-15.1l15.45-23.32c1.51-2.28,1.81-5.05,.81-7.6-1-2.55-3.1-4.39-5.77-5.03l-27.18-6.59c-5.45-1.32-9.36-5.59-10.19-11.14-.84-5.55,1.64-10.78,6.46-13.65l24.03-14.31c2.07-1.23,3.46-3.2,3.91-5.55,.15-.79,.18-1.59,.11-2.39-.21-2.19-1.28-4.18-3-5.59l-21.63-17.74c-4.34-3.56-6-9.09-4.35-14.45,1.65-5.36,6.15-9,11.74-9.5l27.86-2.46c1.03-.09,2.02-.37,2.94-.82,3.16-1.56,5.03-5.07,4.54-8.55-.11-.81-.35-1.61-.71-2.39l-11.79-25.36c-2.36-5.09-1.46-10.8,2.35-14.91,3.82-4.11,9.45-5.44,14.7-3.46l25.69,9.69,11.71-8.65,.39-28.54,22.09-8.67,19.57,20.54,14.97-2.26,12.65-25.39,23.67,1.77,8.72,26.99,14.47,4.46,22.41-17.38,20.55,11.86-3.85,28.11,11.1,10.3,27.74-5.94,13.37,19.61-15.67,23.65,5.53,14.09,27.57,6.69,3.54,23.46-24.38,14.51-1.13,15.09,21.94,17.98-6.99,22.68-28.52,2.53-7.7,12.24,12.35,26.57-16.14,17.4-27.82-10.49c-.83-.32-1.67-.49-2.52-.53-3.48-.18-6.71,1.86-8.05,5.07-.41,.98-.63,2.02-.64,3.11l-.38,27.96c-.08,5.61-3.37,10.37-8.59,12.41-5.22,2.05-10.87,.8-14.74-3.26l-19.3-20.24c-1.61-1.69-3.78-2.6-6.09-2.57-.61,0-1.21,.08-1.79,.22-2.42,.56-4.44,2.16-5.54,4.38l-12.47,25.03c-2.34,4.7-6.89,7.5-12.05,7.5Zm-29.43-46.97c1.33,0,2.67,.2,3.98,.6,4.21,1.3,7.54,4.58,8.9,8.77l8.6,26.61c1.26,3.91,4.58,5.52,7.27,5.72,2.69,.2,6.21-.89,8.04-4.57l12.47-25.03c1.81-3.62,5.1-6.23,9.04-7.15,.94-.22,1.93-.34,2.92-.36,.05,0,.11,0,.16,0,3.74,0,7.21,1.49,9.79,4.2l19.3,20.24c2.83,2.97,6.52,2.98,9.03,2,2.51-.98,5.2-3.5,5.26-7.6l.38-27.97c.03-1.77,.38-3.47,1.05-5.06,2.19-5.24,7.46-8.57,13.14-8.28,1.39,.06,2.78,.35,4.13,.87l24.51,9.24,11.35-12.23-11.05-23.76c-.18-.38-.42-1.03-.47-1.15l-.45-1.21,10.48-16.65,1.51-.17,26.11-2.31,4.92-15.94-21.32-17.48,1.54-20.53,23.69-14.11-2.49-16.49-26.8-6.5-7.52-19.17,15.23-22.98-9.4-13.78-26.96,5.77-15.1-14.01,3.74-27.32-14.45-8.34-21.78,16.89-19.68-6.07-8.48-26.23-16.64-1.25-12.3,24.68-20.36,3.07-19.02-19.96-15.53,6.09-.37,26.42-.06,1.24-15.92,11.76-1.26-.39s-.69-.21-1.04-.34l-26.18-9.87c-3.84-1.45-7.17,.15-9,2.12-1.83,1.97-3.17,5.41-1.44,9.13l11.79,25.36c.58,1.25,.96,2.55,1.14,3.88,.81,5.77-2.18,11.39-7.42,13.98-1.51,.74-3.12,1.19-4.81,1.34l-27.85,2.46c-4.09,.36-6.4,3.24-7.19,5.82-.79,2.57-.51,6.25,2.66,8.85l21.63,17.74c2.81,2.31,4.55,5.55,4.89,9.15,.12,1.29,.06,2.59-.18,3.87-.74,3.85-3,7.07-6.38,9.08l-24.03,14.31c-3.53,2.1-4.36,5.7-3.96,8.36,.4,2.66,2.25,5.85,6.24,6.82l27.18,6.59c4.28,1.04,7.8,4.11,9.41,8.21,1.61,4.1,1.12,8.74-1.32,12.42l-15.44,23.32c-2.27,3.42-1.46,7.02,.06,9.25,1.52,2.23,4.57,4.3,8.59,3.44l27.35-5.86c4.31-.92,8.81,.32,12.04,3.32,3.23,3,4.8,7.39,4.2,11.76l-3.8,27.71c-.56,4.07,1.74,6.96,4.07,8.31s5.98,1.89,9.22-.63l22.1-17.14c2.4-1.86,5.33-2.84,8.3-2.84Z"/>
      <path d="M393.39,340.11l-23.67-1.77-8.72-26.99-14.47-4.46-22.41,17.38-20.55-11.86,3.85-28.11-11.1-10.3-27.74,5.94-13.37-19.61,15.67-23.65-5.53-14.09-27.57-6.69-3.54-23.46,24.38-14.51,1.13-15.09-21.94-17.98,6.99-22.68,28.52-2.53,7.7-12.24-12.35-26.57,16.14-17.4,27.82,10.49c.83,.31,1.68,.49,2.52,.53,3.49,.18,6.71-1.86,8.05-5.07,.41-.98,.63-2.02,.64-3.11l.38-27.96c.08-5.61,3.37-10.37,8.59-12.41,5.22-2.05,10.87-.8,14.74,3.26l19.3,20.24c1.61,1.69,3.77,2.6,6.09,2.57,.61,0,1.21-.08,1.79-.22,2.42-.56,4.44-2.16,5.54-4.38l12.47-25.03c2.5-5.02,7.52-7.89,13.13-7.46,5.6,.42,10.14,4,11.87,9.34l8.6,26.61c.84,2.6,2.83,4.56,5.45,5.37,2.62,.8,5.36,.31,7.52-1.37l22.1-17.14c4.43-3.44,10.21-3.83,15.06-1.03,4.86,2.81,7.4,8,6.64,13.56l-3.8,27.71c-.37,2.71,.56,5.34,2.57,7.2,2.01,1.86,4.69,2.6,7.37,2.03l27.35-5.85c5.49-1.17,10.86,.98,14.02,5.61,3.16,4.64,3.2,10.42,.1,15.1l-15.44,23.32c-1.51,2.28-1.81,5.05-.81,7.6,1,2.55,3.1,4.39,5.77,5.03l27.18,6.59c5.45,1.32,9.36,5.59,10.19,11.13,.84,5.55-1.64,10.78-6.46,13.65l-24.03,14.31c-2.07,1.23-3.46,3.2-3.91,5.55-.15,.79-.18,1.59-.11,2.39,.21,2.19,1.28,4.18,3,5.59l21.63,17.74c4.34,3.56,6,9.09,4.35,14.45-1.65,5.36-6.15,9-11.74,9.5l-27.86,2.46c-1.03,.09-2.02,.37-2.95,.82-3.16,1.56-5.03,5.07-4.54,8.55,.11,.81,.35,1.62,.71,2.39l11.79,25.36c2.36,5.09,1.46,10.8-2.35,14.91-3.82,4.11-9.45,5.44-14.7,3.46l-25.69-9.69-11.71,8.65-.39,28.54-22.09,8.67-19.57-20.54-14.97,2.26-12.65,25.39Zm-19.76-6.74l16.64,1.25,12.3-24.68,20.36-3.07,19.02,19.96,15.53-6.09,.36-26.21c0-.06,.01-.25,.01-.25l.07-1.23,.99-.71,14.92-11.03,1.26,.39s.69,.21,1.04,.34l26.19,9.87c3.84,1.45,7.17-.14,9-2.12,1.83-1.97,3.17-5.41,1.44-9.13l-11.79-25.36c-.58-1.25-.96-2.55-1.14-3.88-.8-5.78,2.18-11.39,7.42-13.98,1.51-.74,3.12-1.19,4.81-1.34l27.85-2.46c4.09-.36,6.4-3.24,7.19-5.82,.79-2.57,.51-6.25-2.66-8.85l-21.63-17.74c-2.81-2.31-4.55-5.55-4.89-9.15-.12-1.29-.06-2.59,.18-3.87,.74-3.85,3-7.07,6.38-9.08l24.03-14.31c3.53-2.1,4.36-5.7,3.96-8.36-.4-2.66-2.25-5.85-6.24-6.82l-27.18-6.59c-4.29-1.04-7.8-4.11-9.42-8.21-1.61-4.1-1.12-8.74,1.32-12.42l15.44-23.32c2.27-3.42,1.46-7.02-.06-9.25-1.52-2.23-4.57-4.3-8.59-3.44l-27.35,5.85c-4.31,.92-8.81-.32-12.04-3.32-3.23-3-4.8-7.39-4.2-11.76l3.8-27.71c.56-4.07-1.74-6.96-4.07-8.31-2.33-1.35-5.98-1.89-9.23,.63l-22.1,17.14c-3.48,2.7-8.07,3.54-12.28,2.24-4.21-1.3-7.54-4.58-8.9-8.77l-8.6-26.62c-1.26-3.91-4.58-5.52-7.27-5.72-2.68-.2-6.21,.89-8.04,4.57l-12.47,25.03c-1.81,3.62-5.1,6.23-9.04,7.15-.94,.22-1.93,.34-2.92,.36-3.82,.04-7.33-1.45-9.95-4.2l-19.3-20.24c-2.83-2.97-6.52-2.98-9.03-2-2.51,.98-5.2,3.5-5.26,7.6l-.38,27.97c-.03,1.77-.38,3.47-1.05,5.06-2.19,5.24-7.47,8.57-13.14,8.28-1.39-.06-2.78-.35-4.12-.86l-24.52-9.24-11.35,12.23,11.05,23.76c.18,.38,.42,1.03,.47,1.15l.45,1.21-10.47,16.64-1.23,.15s-.21,.03-.31,.03l-26.09,2.31-4.92,15.94,21.32,17.48-1.54,20.53-23.69,14.11,2.49,16.49,26.8,6.5,7.52,19.17-15.23,22.98,9.4,13.78,26.96-5.77,15.1,14.01-3.74,27.32,14.45,8.34,21.78-16.89,19.68,6.07,8.48,26.23Z"/>
    </g>
    <circle class="cls-3" cx="280.17" cy="280.17" r="184.05"/>
  </g>
</svg>