<?xml version="1.0" encoding="utf-8"?>
<!-- Generator: Adobe Illustrator 26.4.0, SVG Export Plug-In . SVG Version: 6.00 Build 0)  -->
<svg version="1.1" id="Trace" xmlns="http://www.w3.org/2000/svg" xmlns:xlink="http://www.w3.org/1999/xlink" x="0px" y="0px"
	 viewBox="0 0 560.3 560.3" style="enable-background:new 0 0 560.3 560.3;" xml:space="preserve">
<style type="text/css">
	.st0{clip-path:url(#SVGID_00000147215044051070619140000017291345706552661130_);}
</style>
<g id="Mech">
	<g>
		<defs>
			<circle id="SVGID_1_" cx="280.2" cy="280.2" r="184.1"/>
		</defs>
		<clipPath id="SVGID_00000088097786165614934110000003390683383869011894_">
			<use xlink:href="#SVGID_1_"  style="overflow:visible;"/>
		</clipPath>
		<g style="clip-path:url(#SVGID_00000088097786165614934110000003390683383869011894_);">
			<g>
				<path d="M405,205c-13.4,0-24.3-10.9-24.3-24.3s10.9-24.3,24.3-24.3s24.3,10.9,24.3,24.3S418.3,205,405,205z M405,161.7
					c-10.5,0-19,8.5-19,19s8.5,19,19,19s19-8.5,19-19S415.4,161.7,405,161.7z"/>
			</g>
			<g>
				<path d="M158,408.4c-13.4,0-24.3-10.9-24.3-24.3s10.9-24.3,24.3-24.3s24.3,10.9,24.3,24.3S171.4,408.4,158,408.4z M158,365.1
					c-10.5,0-19,8.5-19,19s8.5,19,19,19s19-8.5,19-19S168.5,365.1,158,365.1z"/>
			</g>
			<g>
				<path d="M154.6,544.2c-0.4,0-0.7,0-1.1,0c-5.6-0.4-10.1-4-11.9-9.3l-8.6-26.6c-0.8-2.6-2.8-4.6-5.4-5.4
					c-2.6-0.8-5.4-0.3-7.5,1.4L98,521.4c-4.4,3.4-10.2,3.8-15.1,1c-4.9-2.8-7.4-8-6.6-13.6l3.8-27.7c0.4-2.7-0.6-5.3-2.6-7.2
					c-2-1.9-4.7-2.6-7.4-2l-27.3,5.9c-5.5,1.2-10.9-1-14-5.6c-3.2-4.6-3.2-10.4-0.1-15.1l15.4-23.3c1.5-2.3,1.8-5,0.8-7.6
					c-1-2.5-3.1-4.4-5.8-5L12,414.5c-5.4-1.3-9.4-5.6-10.2-11.1c-0.8-5.5,1.6-10.8,6.5-13.6l24-14.3c2.1-1.2,3.5-3.2,3.9-5.5
					c0.2-0.8,0.2-1.6,0.1-2.4c-0.2-2.2-1.3-4.2-3-5.6l-21.6-17.7c-4.3-3.6-6-9.1-4.3-14.5c1.7-5.4,6.2-9,11.7-9.5l27.9-2.5
					c1-0.1,2-0.4,2.9-0.8c3.2-1.6,5-5.1,4.5-8.5c-0.1-0.8-0.3-1.6-0.7-2.4l-11.8-25.4c-2.4-5.1-1.5-10.8,2.3-14.9
					c3.8-4.1,9.5-5.4,14.7-3.5l25.7,9.7l11.7-8.6l0.4-28.5l22.1-8.7l19.6,20.5l15-2.3l12.6-25.4l23.7,1.8l8.7,27l14.5,4.5l22.4-17.4
					l20.6,11.9l-3.9,28.1l11.1,10.3l27.7-5.9l13.4,19.6l-15.7,23.6l5.5,14.1l27.6,6.7l3.5,23.5l-24.4,14.5l-1.1,15.1l21.9,18
					l-7,22.7l-28.5,2.5l-7.7,12.2l12.4,26.6l-16.1,17.4l-27.8-10.5c-0.8-0.3-1.7-0.5-2.5-0.5c-3.5-0.2-6.7,1.9-8.1,5.1
					c-0.4,1-0.6,2-0.6,3.1l-0.4,28c-0.1,5.6-3.4,10.4-8.6,12.4c-5.2,2-10.9,0.8-14.7-3.3l-19.3-20.2c-1.6-1.7-3.8-2.6-6.1-2.6
					c-0.6,0-1.2,0.1-1.8,0.2c-2.4,0.6-4.4,2.2-5.5,4.4l-12.5,25C164.3,541.4,159.8,544.2,154.6,544.2L154.6,544.2z M125.2,497.2
					c1.3,0,2.7,0.2,4,0.6c4.2,1.3,7.5,4.6,8.9,8.8l8.6,26.6c1.3,3.9,4.6,5.5,7.3,5.7c2.7,0.2,6.2-0.9,8-4.6l12.5-25
					c1.8-3.6,5.1-6.2,9-7.1c0.9-0.2,1.9-0.3,2.9-0.4c0.1,0,0.1,0,0.2,0c3.7,0,7.2,1.5,9.8,4.2l19.3,20.2c2.8,3,6.5,3,9,2
					s5.2-3.5,5.3-7.6l0.4-28c0-1.8,0.4-3.5,1.1-5.1c2.2-5.2,7.5-8.6,13.1-8.3c1.4,0.1,2.8,0.4,4.1,0.9l24.5,9.2l11.4-12.2l-11-23.8
					c-0.2-0.4-0.4-1-0.5-1.1l-0.5-1.2l10.5-16.6l1.5-0.2l26.1-2.3l4.9-15.9l-21.3-17.5l1.5-20.5l23.7-14.1l-2.5-16.5l-26.8-6.5
					l-7.5-19.2l15.2-23l-9.4-13.8l-27,5.8l-15.1-14l3.7-27.3l-14.4-8.3L213.9,258l-19.7-6.1l-8.5-26.2l-16.6-1.2l-12.3,24.7
					l-20.4,3.1l-19-20l-15.5,6.1l-0.4,26.4l-0.1,1.2l-15.9,11.8l-1.3-0.4c0,0-0.7-0.2-1-0.3l-26.2-9.9c-3.8-1.5-7.2,0.1-9,2.1
					s-3.2,5.4-1.4,9.1l11.8,25.4c0.6,1.2,1,2.5,1.1,3.9c0.8,5.8-2.2,11.4-7.4,14c-1.5,0.7-3.1,1.2-4.8,1.3l-27.9,2.5
					c-4.1,0.4-6.4,3.2-7.2,5.8c-0.8,2.6-0.5,6.2,2.7,8.9l21.6,17.7c2.8,2.3,4.5,5.5,4.9,9.1c0.1,1.3,0.1,2.6-0.2,3.9
					c-0.7,3.9-3,7.1-6.4,9.1l-24,14.3c-3.5,2.1-4.4,5.7-4,8.4c0.4,2.7,2.2,5.9,6.2,6.8l27.2,6.6c4.3,1,7.8,4.1,9.4,8.2
					s1.1,8.7-1.3,12.4L33,459.9c-2.3,3.4-1.5,7,0.1,9.2s4.6,4.3,8.6,3.4l27.4-5.9c4.3-0.9,8.8,0.3,12,3.3s4.8,7.4,4.2,11.8
					l-3.8,27.7c-0.6,4.1,1.7,7,4.1,8.3s6,1.9,9.2-0.6l22.1-17.1C119.2,498.2,122.2,497.3,125.2,497.2L125.2,497.2z"/>
			</g>
			<g>
				<path d="M393.4,340.1l-23.7-1.8l-8.7-27l-14.5-4.5l-22.4,17.4l-20.5-11.9l3.9-28.1L296.3,274l-27.7,5.9l-13.4-19.6l15.7-23.6
					l-5.5-14.1l-27.6-6.7l-3.5-23.5l24.4-14.5l1.1-15.1l-21.9-18l7-22.7l28.5-2.5l7.7-12.2l-12.4-26.6l16.1-17.4l27.8,10.5
					c0.8,0.3,1.7,0.5,2.5,0.5c3.5,0.2,6.7-1.9,8-5.1c0.4-1,0.6-2,0.6-3.1l0.4-28c0.1-5.6,3.4-10.4,8.6-12.4c5.2-2,10.9-0.8,14.7,3.3
					l19.3,20.2c1.6,1.7,3.8,2.6,6.1,2.6c0.6,0,1.2-0.1,1.8-0.2c2.4-0.6,4.4-2.2,5.5-4.4l12.5-25c2.5-5,7.5-7.9,13.1-7.5
					c5.6,0.4,10.1,4,11.9,9.3l8.6,26.6c0.8,2.6,2.8,4.6,5.5,5.4c2.6,0.8,5.4,0.3,7.5-1.4l22.1-17.1c4.4-3.4,10.2-3.8,15.1-1
					c4.9,2.8,7.4,8,6.6,13.6l-3.8,27.7c-0.4,2.7,0.6,5.3,2.6,7.2s4.7,2.6,7.4,2l27.4-5.8c5.5-1.2,10.9,1,14,5.6
					c3.2,4.6,3.2,10.4,0.1,15.1l-15.4,23.3c-1.5,2.3-1.8,5-0.8,7.6s3.1,4.4,5.8,5l27.2,6.6c5.5,1.3,9.4,5.6,10.2,11.1
					c0.8,5.6-1.6,10.8-6.5,13.6l-24,14.3c-2.1,1.2-3.5,3.2-3.9,5.6c-0.2,0.8-0.2,1.6-0.1,2.4c0.2,2.2,1.3,4.2,3,5.6l21.6,17.7
					c4.3,3.6,6,9.1,4.3,14.4s-6.2,9-11.7,9.5l-27.9,2.5c-1,0.1-2,0.4-3,0.8c-3.2,1.6-5,5.1-4.5,8.6c0.1,0.8,0.4,1.6,0.7,2.4
					l11.8,25.4c2.4,5.1,1.5,10.8-2.3,14.9c-3.8,4.1-9.5,5.4-14.7,3.5l-25.7-9.7l-11.7,8.6l-0.4,28.5l-22.1,8.7L421,312.5l-15,2.3
					L393.4,340.1L393.4,340.1z M373.6,333.4l16.6,1.2l12.3-24.7l20.4-3.1l19,20l15.5-6.1l0.4-26.2c0-0.1,0-0.2,0-0.2l0.1-1.2l1-0.7
					l14.9-11l1.3,0.4c0,0,0.7,0.2,1,0.3l26.2,9.9c3.8,1.5,7.2-0.1,9-2.1c1.8-2,3.2-5.4,1.4-9.1L501,255.3c-0.6-1.2-1-2.6-1.1-3.9
					c-0.8-5.8,2.2-11.4,7.4-14c1.5-0.7,3.1-1.2,4.8-1.3l27.8-2.5c4.1-0.4,6.4-3.2,7.2-5.8c0.8-2.6,0.5-6.2-2.7-8.9l-21.6-17.7
					c-2.8-2.3-4.5-5.6-4.9-9.1c-0.1-1.3-0.1-2.6,0.2-3.9c0.7-3.9,3-7.1,6.4-9.1l24-14.3c3.5-2.1,4.4-5.7,4-8.4
					c-0.4-2.7-2.2-5.9-6.2-6.8l-27.2-6.6c-4.3-1-7.8-4.1-9.4-8.2c-1.6-4.1-1.1-8.7,1.3-12.4l15.4-23.3c2.3-3.4,1.5-7-0.1-9.2
					s-4.6-4.3-8.6-3.4l-27.4,5.8c-4.3,0.9-8.8-0.3-12-3.3s-4.8-7.4-4.2-11.8l3.8-27.7c0.6-4.1-1.7-7-4.1-8.3c-2.3-1.3-6-1.9-9.2,0.6
					l-22.1,17.1c-3.5,2.7-8.1,3.5-12.3,2.2s-7.5-4.6-8.9-8.8l-8.6-26.6c-1.3-3.9-4.6-5.5-7.3-5.7c-2.7-0.2-6.2,0.9-8,4.6l-12.5,25
					c-1.8,3.6-5.1,6.2-9,7.2c-0.9,0.2-1.9,0.3-2.9,0.4c-3.8,0-7.3-1.5-10-4.2l-19.3-20.2c-2.8-3-6.5-3-9-2s-5.2,3.5-5.3,7.6l-0.4,28
					c0,1.8-0.4,3.5-1,5.1c-2.2,5.2-7.5,8.6-13.1,8.3c-1.4-0.1-2.8-0.3-4.1-0.9l-24.5-9.2l-11.4,12.2l11,23.8c0.2,0.4,0.4,1,0.5,1.2
					l0.5,1.2l-10.5,16.6l-1.2,0.2c0,0-0.2,0-0.3,0l-26.1,2.3l-4.9,15.9l21.3,17.5l-1.5,20.5L240,195.1l2.5,16.5l26.8,6.5l7.5,19.2
					l-15.2,23l9.4,13.8l27-5.8l15.1,14l-3.7,27.3l14.5,8.3l21.8-16.9l19.7,6.1L373.6,333.4L373.6,333.4z"/>
			</g>
		</g>
	</g>
	<g>
		<path d="M280.2,468.7c-104,0-188.5-84.6-188.5-188.5S176.2,91.6,280.2,91.6s188.5,84.6,188.5,188.5S384.1,468.7,280.2,468.7z
			 M280.2,100.6c-99,0-179.5,80.5-179.5,179.5s80.5,179.5,179.5,179.5s179.5-80.5,179.5-179.5S379.2,100.6,280.2,100.6z"/>
	</g>
</g>
</svg>
