<?xml version="1.0" encoding="UTF-8"?>
<svg id="Trace" xmlns="http://www.w3.org/2000/svg" viewBox="0 0 560.33 560.33">
  <defs>
    <style>
      .cls-1 {
        fill: none;
        stroke: #000;
        stroke-miterlimit: 10;
        stroke-width: 9px;
      }
    </style>
  </defs>
  <g id="Seng">
    <path d="M179.67,276.75c9.17,0,10.46-5.03,10.46-9.55,0-3.62-.52-7.23-1.03-10.85-.52-3.61-1.03-7.1-1.03-10.72,0-11.88,7.75-16.91,18.72-16.91h2.71v7.1h-2.32c-7.62,0-10.2,4.13-10.2,11.1,0,2.97,.39,6.07,.9,9.17,.52,3.23,.9,6.33,.9,9.81,.13,8.26-3.49,12.39-9.3,13.94v.26c5.81,1.42,9.42,5.81,9.3,14.07,0,3.49-.39,6.71-.9,9.81-.52,3.23-.9,6.2-.9,9.3,0,7.23,2.97,11.23,10.2,11.23h2.32v7.1h-2.71c-10.72,0-18.72-4.65-18.72-17.69,0-3.49,.52-7.1,1.03-10.59,.52-3.49,1.03-6.97,1.03-10.46,0-4-1.29-9.55-10.46-9.55v-6.58Z"/>
    <g>
      <path d="M246.8,289.14c0-4.78,3.23-8.13,7.75-8.13s7.62,3.36,7.62,8.13-2.97,8.13-7.75,8.13c-4.52,0-7.62-3.49-7.62-8.13Z"/>
      <path d="M273.52,289.14c0-4.78,3.23-8.13,7.75-8.13s7.62,3.36,7.62,8.13-2.97,8.13-7.75,8.13c-4.52,0-7.62-3.49-7.62-8.13Z"/>
      <path d="M300.24,289.14c0-4.78,3.23-8.13,7.75-8.13s7.62,3.36,7.62,8.13-2.97,8.13-7.75,8.13c-4.52,0-7.62-3.49-7.62-8.13Z"/>
    </g>
    <path d="M380.66,283.33c-9.17,0-10.46,5.55-10.46,9.55,0,3.49,.52,6.97,1.03,10.46,.52,3.49,1.03,7.1,1.03,10.59,0,13.04-8.13,17.69-18.72,17.69h-2.71v-7.1h2.19c7.23-.13,10.33-4,10.33-11.23,0-3.1-.52-6.07-.9-9.3-.52-3.1-1.03-6.33-1.03-9.81,0-8.26,3.61-12.65,9.3-14.07v-.26c-5.68-1.55-9.3-5.68-9.3-13.94,0-3.49,.52-6.58,1.03-9.81,.39-3.1,.9-6.2,.9-9.17,0-6.97-2.71-10.97-10.2-11.1h-2.32v-7.1h2.58c10.97,0,18.85,5.03,18.85,16.91,0,3.61-.52,7.1-1.03,10.72s-1.03,7.23-1.03,10.85c0,4.52,1.29,9.55,10.46,9.55v6.58Z"/>
    <circle class="cls-1" cx="280.17" cy="280.17" r="184.05"/>
  </g>
</svg>