<?xml version="1.0" encoding="utf-8"?>
<!-- Generator: Adobe Illustrator 26.4.0, SVG Export Plug-In . SVG Version: 6.00 Build 0)  -->
<svg version="1.1" id="Trace" xmlns="http://www.w3.org/2000/svg" xmlns:xlink="http://www.w3.org/1999/xlink" x="0px" y="0px"
	 viewBox="0 0 560.3 560.3" style="enable-background:new 0 0 560.3 560.3;" xml:space="preserve">
<g id="BMED">
	<g>
		<path d="M308.6,391.4c-0.1,0-0.2,0-0.3,0c-1.9-0.1-3.4-1.5-3.6-3.4l-32-211.8L233.2,335c-0.4,1.8-2,3-3.8,3
			c-1.8,0-3.4-1.1-3.9-2.9L212,289.4l-20.5,17.3c-0.7,0.6-1.6,1-2.6,1H99.6c-2.2,0-4-1.8-4-4s1.8-4,4-4h87.9l24-20.3
			c1-0.9,2.4-1.2,3.7-0.8c1.3,0.4,2.3,1.4,2.7,2.7l11.1,37.5l40.6-164c0.5-1.9,2.2-3.1,4.1-3c1.9,0.1,3.5,1.5,3.8,3.4L310,369.7
			l26.1-83.1c0.5-1.6,1.9-2.7,3.5-2.8c1.6-0.1,3.2,0.8,3.9,2.3l16.9,35.7l22-16.8c0.7-0.5,1.5-0.8,2.4-0.8h75.1c2.2,0,4,1.8,4,4
			s-1.8,4-4,4h-73.7l-24.8,19c-1,0.7-2.2,1-3.4,0.7c-1.2-0.3-2.2-1.1-2.7-2.2l-14.7-30.9l-28.2,89.9
			C311.9,390.3,310.3,391.4,308.6,391.4L308.6,391.4z"/>
	</g>
	<g>
		<path d="M280.2,468.7c-104,0-188.5-84.6-188.5-188.5S176.2,91.6,280.2,91.6s188.5,84.6,188.5,188.5S384.1,468.7,280.2,468.7z
			 M280.2,100.6c-99,0-179.5,80.5-179.5,179.5s80.5,179.5,179.5,179.5s179.5-80.5,179.5-179.5S379.2,100.6,280.2,100.6z"/>
	</g>
</g>
</svg>
