<?xml version="1.0" encoding="utf-8"?>
<!-- Generator: Adobe Illustrator 26.4.0, SVG Export Plug-In . SVG Version: 6.00 Build 0)  -->
<svg version="1.1" id="Trace" xmlns="http://www.w3.org/2000/svg" xmlns:xlink="http://www.w3.org/1999/xlink" x="0px" y="0px"
	 viewBox="0 0 560.3 560.3" style="enable-background:new 0 0 560.3 560.3;" xml:space="preserve">
<g id="BMED">
	<g>
		<path d="M322.3,445.4c-0.1,0-0.3,0-0.4,0c-2.8-0.1-5.1-2.2-5.3-5.1L269,125.7l-58.7,235.9c-0.6,2.7-3,4.5-5.6,4.5
			s-5.1-1.6-5.8-4.3l-20.1-67.9l-30.5,25.7c-1,0.9-2.4,1.5-3.9,1.5H11.8c-3.3,0-5.9-2.7-5.9-5.9c0-3.3,2.7-5.9,5.9-5.9h130.6
			l35.7-30.2c1.5-1.3,3.6-1.8,5.5-1.2c1.9,0.6,3.4,2.1,4,4l16.5,55.7l60.3-243.7c0.7-2.8,3.3-4.6,6.1-4.5s5.2,2.2,5.6,5.1
			l48.3,318.7l38.8-123.5c0.7-2.4,2.8-4,5.2-4.2c2.4-0.1,4.8,1.2,5.8,3.4l25.1,53l32.7-25c1-0.7,2.2-1.2,3.6-1.2h111.6
			c3.3,0,5.9,2.7,5.9,5.9c0,3.3-2.7,5.9-5.9,5.9H437.6L400.8,356c-1.5,1-3.3,1.5-5.1,1c-1.8-0.4-3.3-1.6-4-3.3l-21.8-45.9L328,441.4
			C327.3,443.8,324.9,445.4,322.3,445.4L322.3,445.4z"/>
	</g>
	<g>
		<path d="M280.1,560.3C125.6,560.3,0.1,434.6,0.1,280.2S125.6,0,280.1,0s280.1,125.7,280.1,280.1S434.5,560.3,280.1,560.3z
			 M280.1,13.4C133.1,13.4,13.4,133,13.4,280.1s119.6,266.7,266.7,266.7s266.7-119.6,266.7-266.7S427.2,13.4,280.1,13.4z"/>
	</g>
</g>
</svg>
