<?xml version="1.0" encoding="utf-8"?>
<!-- Generator: Adobe Illustrator 26.4.0, SVG Export Plug-In . SVG Version: 6.00 Build 0)  -->
<svg version="1.1" id="Trace" xmlns="http://www.w3.org/2000/svg" xmlns:xlink="http://www.w3.org/1999/xlink" x="0px" y="0px"
	 viewBox="0 0 560.3 560.3" style="enable-background:new 0 0 560.3 560.3;" xml:space="preserve">
<g id="Civil">
	<g>
		<path d="M280.1,560.3C125.6,560.3,0.1,434.6,0.1,280.2S125.6,0,280.1,0s280.1,125.7,280.1,280.1S434.5,560.3,280.1,560.3z
			 M280.1,13.4C133.1,13.4,13.4,133,13.4,280.1s119.6,266.7,266.7,266.7s266.7-119.6,266.7-266.7S427.2,13.4,280.1,13.4z"/>
	</g>
	<g>
		<g>
			<path d="M116.4,504.1c-3.3,0-5.9-2.7-5.9-5.9V300.9c-14.4,17.1-43.2,45.8-89,66.3c-3,1.3-6.5,0-7.9-3c-1.3-3,0-6.5,3-7.9
				c64.5-29,94.5-75.9,94.8-76.4c1.3-2.2,4.2-3.3,6.7-2.5c2.5,0.7,4.3,3.1,4.3,5.6v215.1C122.4,501.5,119.7,504.1,116.4,504.1
				L116.4,504.1z"/>
		</g>
		<g>
			<path d="M534.4,388.5H25.9c-3.3,0-5.9-2.7-5.9-5.9c0-3.3,2.7-5.9,5.9-5.9h508.4c3.3,0,5.9,2.7,5.9,5.9
				C540.3,385.9,537.6,388.5,534.4,388.5z"/>
		</g>
		<g>
			<path d="M436.8,504.1c-3.3,0-5.9-2.7-5.9-5.9v-200c-23.5,23.8-83.4,76.4-154.2,77.6c-0.7,0-1.6,0-2.4,0
				c-88.6,0-159.4-85.3-162.4-89c-2.1-2.5-1.6-6.2,0.9-8.3c2.5-2.1,6.2-1.6,8.3,0.9c0.7,0.9,70.3,84.7,153.2,84.7c0.7,0,1.3,0,2.1,0
				c84.1-1.5,155.1-83.8,155.9-84.7c1.6-1.9,4.3-2.5,6.5-1.8c2.4,0.9,3.9,3.1,3.9,5.6v215.1C442.7,501.5,440,504.1,436.8,504.1
				L436.8,504.1z"/>
		</g>
		<g>
			<path d="M539.1,374c-0.6,0-1,0-1.5-0.1c-59.4-16.2-104-84.5-105.8-87.5c-1.8-2.8-1-6.4,1.8-8.2c2.8-1.8,6.4-1,8.2,1.8
				c0.4,0.7,44,67.5,99,82.5c3.1,0.9,5.1,4.2,4.2,7.3C544.2,372.2,541.8,374,539.1,374L539.1,374z"/>
		</g>
		<g>
			<path d="M38.7,388.5c-3.3,0-5.9-2.7-5.9-5.9v-30.8c0-3.3,2.7-5.9,5.9-5.9c3.3,0,5.9,2.7,5.9,5.9v30.8
				C44.6,385.9,42,388.5,38.7,388.5z"/>
		</g>
		<g>
			<path d="M77,388.5c-3.3,0-5.9-2.7-5.9-5.9v-57.1c0-3.3,2.7-5.9,5.9-5.9s5.9,2.7,5.9,5.9v57.1C83,385.9,80.3,388.5,77,388.5z"/>
		</g>
		<g>
			<path d="M157.4,388.5c-3.3,0-5.9-2.7-5.9-5.9v-60.2c0-3.3,2.7-5.9,5.9-5.9s5.9,2.7,5.9,5.9v60.2
				C163.4,385.9,160.8,388.5,157.4,388.5z"/>
		</g>
		<g>
			<path d="M194.9,388.5c-3.3,0-5.9-2.7-5.9-5.9v-34.3c0-3.3,2.7-5.9,5.9-5.9s5.9,2.7,5.9,5.9v34.3
				C200.8,385.9,198.1,388.5,194.9,388.5z"/>
		</g>
		<g>
			<path d="M237.8,388.5c-3.3,0-5.9-2.7-5.9-5.9v-17.5c0-3.3,2.7-5.9,5.9-5.9s5.9,2.7,5.9,5.9v17.5
				C243.7,385.9,241.2,388.5,237.8,388.5z"/>
		</g>
		<g>
			<path d="M317.1,388.5c-3.3,0-5.9-2.7-5.9-5.9v-19.2c0-3.3,2.7-5.9,5.9-5.9s5.9,2.7,5.9,5.9v19.2
				C323.1,385.9,320.4,388.5,317.1,388.5z"/>
		</g>
		<g>
			<path d="M357,388.5c-3.3,0-5.9-2.7-5.9-5.9v-35.8c0-3.3,2.7-5.9,5.9-5.9c3.3,0,5.9,2.7,5.9,5.9v35.8
				C362.9,385.9,360.2,388.5,357,388.5z"/>
		</g>
		<g>
			<path d="M396.3,388.5c-3.3,0-5.9-2.7-5.9-5.9v-60.2c0-3.3,2.7-5.9,5.9-5.9s5.9,2.7,5.9,5.9v60.2
				C402.3,385.9,399.6,388.5,396.3,388.5z"/>
		</g>
		<g>
			<path d="M476.4,388.5c-3.3,0-5.9-2.7-5.9-5.9v-52.7c0-3.3,2.7-5.9,5.9-5.9s5.9,2.7,5.9,5.9v52.7
				C482.4,385.9,479.7,388.5,476.4,388.5z"/>
		</g>
		<g>
			<path d="M517.4,388.5c-3.3,0-5.9-2.7-5.9-5.9v-23c0-3.3,2.7-5.9,5.9-5.9s5.9,2.7,5.9,5.9v23C523.4,385.9,520.7,388.5,517.4,388.5
				z"/>
		</g>
	</g>
</g>
</svg>
