<?xml version="1.0" encoding="utf-8"?>
<!-- Generator: Adobe Illustrator 26.4.0, SVG Export Plug-In . SVG Version: 6.00 Build 0)  -->
<svg version="1.1" id="Trace" xmlns="http://www.w3.org/2000/svg" xmlns:xlink="http://www.w3.org/1999/xlink" x="0px" y="0px"
	 viewBox="0 0 560.3 560.3" style="enable-background:new 0 0 560.3 560.3;" xml:space="preserve">
<g id="Comp">
	<g>
		<g>
			<path d="M304.3,349.9H188.5V210.5h115.7c14.3,0,28.1,4.3,39.8,12.5c11.4,8,20.2,19,25.1,32.1c3.1,8,4.6,16.5,4.6,25.1
				c0,8.6-1.6,17.1-4.6,25.1c-5.1,12.9-13.7,24.1-25.1,32.1C332.4,345.6,318.6,349.9,304.3,349.9L304.3,349.9z M201.8,336.7h102.5
				c23.2,0,44.4-14.6,52.7-36.1c2.5-6.5,3.7-13.4,3.7-20.4s-1.3-13.8-3.7-20.4c-8.3-21.5-29.6-36.1-52.7-36.1H201.8V336.7
				L201.8,336.7z"/>
		</g>
		<g>
			<path d="M379.3,314.7c-7.3,0-14.1-2.2-20.1-6.4l-4.2-3l1.8-4.8c2.5-6.5,3.7-13.4,3.7-20.4s-1.3-13.8-3.7-20.4l-1.8-4.8l4.2-3
				c5.9-4.2,12.8-6.4,20.1-6.4c19,0,34.5,15.5,34.5,34.5S398.3,314.7,379.3,314.7L379.3,314.7z M371.2,299.8c2.5,1,5.3,1.6,8.2,1.6
				c11.7,0,21.4-9.7,21.4-21.4s-9.7-21.4-21.4-21.4c-2.8,0-5.6,0.6-8.2,1.6c1.9,6.4,2.8,12.9,2.8,19.8
				C374,286.9,372.9,293.4,371.2,299.8L371.2,299.8z"/>
		</g>
		<g>
			<path d="M469.1,286.8h-61.7c-3.7,0-6.5-3-6.5-6.5c0-3.6,3-6.5,6.5-6.5h61.7c3.7,0,6.5,3,6.5,6.5
				C475.6,283.8,472.6,286.8,469.1,286.8z"/>
		</g>
		<g>
			<path d="M195.2,252H91.7c-3.6,0-6.5-3-6.5-6.5c0-3.6,3-6.5,6.5-6.5h103.6c3.6,0,6.5,3,6.5,6.5C201.8,249,198.8,252,195.2,252
				L195.2,252z"/>
		</g>
		<g>
			<path d="M195.2,321.5H91.7c-3.6,0-6.5-3-6.5-6.5s3-6.5,6.5-6.5h103.6c3.6,0,6.5,3,6.5,6.5S198.8,321.5,195.2,321.5L195.2,321.5z"
				/>
		</g>
	</g>
	<g>
		<path d="M280.2,560.3C125.7,560.3,0,434.6,0,280.2S125.8,0,280.2,0s280.1,125.7,280.1,280.1S434.7,560.3,280.2,560.3z M280.2,13.4
			C133.1,13.4,13.4,133,13.4,280.1S133,546.8,280.2,546.8c147.1,0,266.7-119.6,266.7-266.7S427.3,13.4,280.2,13.4z"/>
	</g>
</g>
</svg>
