<?xml version="1.0" encoding="utf-8"?>
<!-- Generator: Adobe Illustrator 26.4.0, SVG Export Plug-In . SVG Version: 6.00 Build 0)  -->
<svg version="1.1" id="Trace" xmlns="http://www.w3.org/2000/svg" xmlns:xlink="http://www.w3.org/1999/xlink" x="0px" y="0px"
	 viewBox="0 0 560.3 560.3" style="enable-background:new 0 0 560.3 560.3;" xml:space="preserve">
<g id="Comp">
	<g>
		<g>
			<path d="M295.4,327.1h-77.9v-93.8h77.9c9.6,0,18.9,2.9,26.8,8.4c7.7,5.4,13.6,12.8,16.9,21.6c2.1,5.4,3.1,11.1,3.1,16.9
				s-1.1,11.5-3.1,16.9c-3.4,8.7-9.2,16.2-16.9,21.6C314.3,324.2,305,327.1,295.4,327.1L295.4,327.1z M226.4,318.2h69
				c15.6,0,29.9-9.8,35.5-24.3c1.7-4.4,2.5-9,2.5-13.7s-0.9-9.3-2.5-13.7c-5.6-14.5-19.9-24.3-35.5-24.3h-69V318.2L226.4,318.2z"/>
		</g>
		<g>
			<path d="M345.9,303.4c-4.9,0-9.5-1.5-13.5-4.3l-2.8-2l1.2-3.2c1.7-4.4,2.5-9,2.5-13.7s-0.9-9.3-2.5-13.7l-1.2-3.2l2.8-2
				c4-2.8,8.6-4.3,13.5-4.3c12.8,0,23.2,10.4,23.2,23.2S358.7,303.4,345.9,303.4L345.9,303.4z M340.4,293.4c1.7,0.7,3.6,1.1,5.5,1.1
				c7.9,0,14.4-6.5,14.4-14.4s-6.5-14.4-14.4-14.4c-1.9,0-3.8,0.4-5.5,1.1c1.3,4.3,1.9,8.7,1.9,13.3S341.6,289.1,340.4,293.4
				L340.4,293.4z"/>
		</g>
		<g>
			<path d="M406.3,284.6h-41.5c-2.5,0-4.4-2-4.4-4.4s2-4.4,4.4-4.4h41.5c2.5,0,4.4,2,4.4,4.4S408.7,284.6,406.3,284.6z"/>
		</g>
		<g>
			<path d="M222,261.2h-69.7c-2.4,0-4.4-2-4.4-4.4s2-4.4,4.4-4.4H222c2.4,0,4.4,2,4.4,4.4C226.4,259.2,224.4,261.2,222,261.2
				L222,261.2z"/>
		</g>
		<g>
			<path d="M222,308h-69.7c-2.4,0-4.4-2-4.4-4.4s2-4.4,4.4-4.4H222c2.4,0,4.4,2,4.4,4.4S224.4,308,222,308L222,308z"/>
		</g>
	</g>
	<g>
		<path d="M279.2,468.7c-104,0-188.6-84.6-188.6-188.5S175.3,91.6,279.2,91.6s188.5,84.6,188.5,188.5S383.2,468.7,279.2,468.7z
			 M279.2,100.6c-99,0-179.6,80.5-179.6,179.5s80.5,179.5,179.6,179.5c99,0,179.5-80.5,179.5-179.5S378.2,100.6,279.2,100.6z"/>
	</g>
</g>
</svg>
