<?xml version="1.0" encoding="utf-8"?>
<!-- Generator: Adobe Illustrator 26.4.0, SVG Export Plug-In . SVG Version: 6.00 Build 0)  -->
<svg version="1.1" id="Trace" xmlns="http://www.w3.org/2000/svg" xmlns:xlink="http://www.w3.org/1999/xlink" x="0px" y="0px"
	 viewBox="0 0 560.3 560.3" style="enable-background:new 0 0 560.3 560.3;" xml:space="preserve">
<g id="Elec">
	<g>
		<g>
			<path d="M285.5,291.5H131.7c-3.1,0-5.6-2.5-5.6-5.6s2.5-5.6,5.6-5.6h153.6c3.1,0,5.6,2.5,5.6,5.6S288.5,291.5,285.5,291.5z"/>
		</g>
		<g>
			<path d="M285.5,376.7c-3.1,0-5.6-2.5-5.6-5.6V195.7c0-3.1,2.5-5.6,5.6-5.6c3.1,0,5.6,2.5,5.6,5.6v175.5
				C291,374.3,288.5,376.7,285.5,376.7z"/>
		</g>
		<g>
			<path d="M285.5,245.3c-1.8,0-3.6-0.9-4.6-2.5c-1.6-2.5-1-6.1,1.5-7.7l110.8-74V89.4c0-3.1,2.5-5.6,5.6-5.6c3.1,0,5.6,2.5,5.6,5.6
				V164l-2.5,4.6l-113.4,75.6C287.6,245,286.4,245.3,285.5,245.3L285.5,245.3z"/>
		</g>
		<g>
			<path d="M398.7,476.4c-3.1,0-5.6-2.5-5.6-5.6v-71.6l-110.8-74c-2.5-1.6-3.3-5.2-1.5-7.7c1.6-2.5,5.2-3.3,7.7-1.5l113.4,75.6
				l2.5,4.6v74.6C404.4,473.8,401.8,476.4,398.7,476.4L398.7,476.4z"/>
		</g>
		<g>
			<path d="M361.4,334.3l-31.5,41c-1.8,2.4-0.7,5.9,2.2,6.8l65.5,17.8c3.7,1,6.8-3,4.9-6.2l-34.2-58.7
				C366.9,332.1,363.2,331.9,361.4,334.3L361.4,334.3z"/>
		</g>
	</g>
	<g>
		<path d="M280.1,560.3C125.6,560.3,0.1,434.6,0.1,280.2S125.6,0,280.1,0s280.1,125.7,280.1,280.1S434.5,560.3,280.1,560.3z
			 M280.1,13.4C133.1,13.4,13.4,133,13.4,280.1s119.6,266.7,266.7,266.7s266.7-119.6,266.7-266.7S427.2,13.4,280.1,13.4z"/>
	</g>
</g>
</svg>
