<?xml version="1.0" encoding="utf-8"?>
<!-- Generator: Adobe Illustrator 26.4.0, SVG Export Plug-In . SVG Version: 6.00 Build 0)  -->
<svg version="1.1" id="Trace" xmlns="http://www.w3.org/2000/svg" xmlns:xlink="http://www.w3.org/1999/xlink" x="0px" y="0px"
	 viewBox="0 0 560.3 560.3" style="enable-background:new 0 0 560.3 560.3;" xml:space="preserve">
<g id="Elec">
	<g>
		<g>
			<path d="M283.8,287.8H180.3c-2.1,0-3.8-1.7-3.8-3.8s1.7-3.8,3.8-3.8h103.4c2.1,0,3.8,1.7,3.8,3.8S285.8,287.8,283.8,287.8z"/>
		</g>
		<g>
			<path d="M283.8,345.1c-2.1,0-3.8-1.7-3.8-3.8V223.3c0-2.1,1.7-3.8,3.8-3.8s3.8,1.7,3.8,3.8v118.1
				C287.5,343.5,285.8,345.1,283.8,345.1z"/>
		</g>
		<g>
			<path d="M283.8,256.7c-1.2,0-2.4-0.6-3.1-1.7c-1.1-1.7-0.7-4.1,1-5.2l74.6-49.8v-48.2c0-2.1,1.7-3.8,3.8-3.8s3.8,1.7,3.8,3.8
				v50.2l-1.7,3.1l-76.3,50.9C285.2,256.5,284.4,256.7,283.8,256.7L283.8,256.7z"/>
		</g>
		<g>
			<path d="M360,412.2c-2.1,0-3.8-1.7-3.8-3.8v-48.2l-74.6-49.8c-1.7-1.1-2.2-3.5-1-5.2c1.1-1.7,3.5-2.2,5.2-1l76.3,50.9l1.7,3.1
				v50.2C363.8,410.5,362.1,412.2,360,412.2L360,412.2z"/>
		</g>
		<g>
			<path d="M334.9,316.6l-21.2,27.6c-1.2,1.6-0.5,4,1.5,4.6l44.1,12c2.5,0.7,4.6-2,3.3-4.2l-23-39.5
				C338.6,315.1,336.1,315,334.9,316.6L334.9,316.6z"/>
		</g>
	</g>
	<g>
		<path d="M280.2,468.7c-104,0-188.5-84.6-188.5-188.5S176.2,91.6,280.2,91.6s188.5,84.6,188.5,188.5S384.1,468.7,280.2,468.7z
			 M280.2,100.6c-99,0-179.5,80.5-179.5,179.5s80.5,179.5,179.5,179.5s179.5-80.5,179.5-179.5S379.2,100.6,280.2,100.6z"/>
	</g>
</g>
</svg>
