<?xml version="1.0" encoding="utf-8"?>
<!-- Generator: Adobe Illustrator 26.4.0, SVG Export Plug-In . SVG Version: 6.00 Build 0)  -->
<svg version="1.1" id="Layer_1" xmlns="http://www.w3.org/2000/svg" xmlns:xlink="http://www.w3.org/1999/xlink" x="0px" y="0px"
	 viewBox="0 0 500 487.6" style="enable-background:new 0 0 500 487.6;" xml:space="preserve">
<style type="text/css">
	.st0{font-family:'TimesNewRomanPS-BoldItalicMT';}
	.st1{font-size:50.6887px;}
</style>
<g id="Ring_00000115481759244692284970000015948170990018113962_">
	<path id="Ring" d="M497.9,266.5c-10.3-6.9-21.4-12.4-32.4-17.9c10.3-4.1,20-9.6,29.6-15.2c1.4-0.7,2.1-2.8,2.1-4.1
		c0-1.4-1.4-2.8-2.8-3.4c-4.1-1.4-8.3-3.4-12.4-4.8c0.7,0,2.1-0.7,2.8-1.4c1.4-0.7,2.1-2.1,2.1-4.1c-2.1-16.5-6.9-31.7-11.7-47.5
		l-7.6,2.8c4.8,13.8,8.3,28.2,10.3,42.7c-3.4,2.1-6.2,3.4-9.6,4.8c-1.4,0.7-2.1,2.1-2.1,4.1c0,1.4,1.4,2.8,2.8,3.4
		c4.1,1.4,9,2.8,13.1,4.8c-9.6,5.5-19.3,10.3-29.6,14.5c-1.4,0.7-2.8,2.8-2.8,4.1c0,2.1,1.4,3.4,2.8,4.1c11,4.8,21.4,10.3,31.7,16.5
		c-1.4,0-2.1,0.7-3.4,0.7c-2.1,0-3.4,1.4-3.4,3.4c-2.1,14.5-5.5,28.9-9.6,42.7c-4.8,14.5-11,28.2-17.9,41.3
		c-3.4-0.7-6.9-1.4-10.3-2.1c-1.4,0-3.4,0.7-4.1,2.1c-1.4,1.4-0.7,3.4,0,4.8c2.8,3.4,5.5,7.6,8.3,11.7c-11-1.4-22-3.4-32.4-6.2
		c-1.4-0.7-3.4,0-4.1,1.4c-0.7,1.4-0.7,3.4,0,4.8c5.5,10.3,11,20.7,15.8,31.7c-1.4-0.7-2.1-0.7-3.4-1.4c-1.4-0.7-3.4-0.7-4.8,0.7
		c-9.6,10.3-20.7,20-32.4,28.2c-0.8,0.6-1.6,1-2.3,1.6c-23.5-2.4-46.7-12.4-64.5-28.7v-4.6h-8.3v5.2c-10.3,9.3-20.6,16.5-30.9,21.4
		c-0.1,0-0.2,0-0.2,0.1c-10.7,5.1-21.5,7.7-32.2,7.7c-10.7,0-21.4-2.5-32.1-7.4c-0.3-0.5-0.8-0.8-1.7-0.8c0,0,0,0-0.1,0
		c-4.9-2.4-9.9-5.4-14.8-8.8c-0.2-0.3-0.5-0.4-0.8-0.5c-4.6-3.3-9.3-7.3-13.9-11.6v-5.3h-8.3v5.2c-17.6,15.9-40,25.7-63.7,28
		c3.1-9.8,6.2-19.1,9.9-27.7c0.7-1.4,0-3.4-1.4-4.8c-4.1-3.4-8.3-6.2-12.4-10.3c-1.4-1.4-3.4-1.4-4.8-0.7c-9,4.8-17.9,9.6-26.2,13.8
		c-2.9-2.9-5.8-6.4-8.8-9.8c4.9-8.2,10.3-16.1,15.6-23.9c1.4-1.4,1.4-3.4,0-4.8c-2.8-4.8-6.2-9-9-13.8c-1.4-2.1-2.8-2.8-4.8-2.1
		c-9,2.8-18.6,4.8-28.9,6.9c-2.5-3.7-4.9-8-6.9-12.3c7.8-7.1,15.6-14.3,23.4-20.8c1.4-1.4,2.1-3.4,1.4-4.8
		c-2.1-4.8-4.1-10.3-5.5-15.2c-0.7-1.4-2.1-2.8-4.1-2.8c-9.6,0-20,0-29.6-0.7c-0.9-3.1-1.7-6.4-2.4-9.7c8.8-5,17.7-10,26.5-13.8
		c1.4-1.4,2.1-2.8,2.1-4.8c-0.7-4.8-0.7-10.3-1.4-15.8c0-2.1-1.4-3.4-3.4-4.1c-10.3-2.8-20-5.5-28.9-8.3c0-4.6,0.4-8.8,0.6-13.2
		c9.4-2.5,19.2-4.9,29-6.7c2.1,0,3.4-1.4,3.4-3.4c0-5.5,1.4-11,2.1-15.8c0.7-2.1-0.7-4.1-2.1-4.8c-9-4.1-17.2-9-26.2-14.5
		c1.4-5.5,2.8-10.3,4.1-15.2c0.1-0.3,0-0.6,0.1-0.9C51.8,73.6,141.3,8.3,243.8,8.3V0C137.7,0,44.8,67.5,11.7,168l0.3,0.1
		c-0.1,0.2-0.2,0.4-0.3,0.6c-2.1,5.5-4.1,12.4-5.5,18.6c0,2.1,0.7,4.1,2.1,4.8c9,5.5,17.2,10.3,26.2,15.2c-0.7,2.8-0.7,6.9-1.4,10.3
		c-10.3,2.1-20,4.1-29.6,6.9c-1.9,0.6-3.1,3-2.8,5C0,235.5,0,242,0,247.9c0,2.1,0.7,3.4,2.8,4.1c9.6,2.8,19.3,5.5,29.6,8.3
		c0.7,3.4,0.7,6.9,1.4,10.3c-7.8,3.6-25.5,12.4-25.5,12.4c-2.1,0-4.1,2.8-3.4,4.8c0,0.1,0,0.2,0.1,0.4c0,0.4,0.1,0.9,0.2,1.3
		c0.7,6.2,2,11.9,3.9,17.6c0.7,2.1,2.1,3.4,4.1,3.4c10.3,0.7,20,0.7,30.3,0.7c0.7,3.4,2.1,6.9,3.4,10.3
		c-7.6,6.9-15.2,13.8-22.7,20.7c-0.1,0.2-0.2,0.4-0.3,0.7c-1.2,1.1-1.6,3.2-1.1,4.8c2.8,5.5,5.5,11,9,17.2c1.4,1.4,2.8,2.8,4.8,2.1
		c10.3-2.1,20-4.1,29.6-6.9c2.1,2.8,4.1,6.2,6.2,9c-5.5,8.3-11,16.5-16.5,25.5c-1.2,1.2-0.8,3.5,0.8,4.9c4.1,4.8,8.2,9.6,13,14.3
		c1.4,1.4,3.4,1.4,4.8,0.7c8.3-4.1,17.9-8.3,26.9-13.8c2.8,2.1,5.5,4.8,8.3,6.9c-4.1,9-6.9,18.6-10.3,28.9c-0.7,2.8,0.7,4.8,2.8,5.5
		c0.3,0,0.5,0,0.7,0c42.3,30,91.7,45.5,141.2,45.5c50.3,0,100.6-15.2,143.3-46.8c11-8.3,21.4-17.2,31-26.9c3.4,1.4,6.9,2.8,10.3,4.1
		c2.1,0.7,3.4,0.7,4.8-0.7c0.7-1.4,1.4-3.4,0.7-4.8c-4.8-11.7-9.6-22.7-15.8-33.7c11,2.1,22,4.1,33.1,4.8c1.4,0,3.4-0.7,4.1-2.1
		c0.7-1.4,0.7-2.8,0-4.1c-2.1-4.1-4.8-7.6-6.9-11c1.4,0,2.1,0.7,3.4,0.7c1.4,0,3.4-0.7,4.1-2.1c8.3-14.5,15.2-29.6,20-45.5
		c4.1-13.1,6.9-26.9,11-42.7c3.4-0.7,6.9-2.1,10.3-2.8c1.4-0.7,2.8-2.1,2.8-3.4C500,269.3,499.3,267.2,497.9,266.5z M144.6,429.7
		c4.5-2,8.9-4.3,13.1-6.9v20h-13.1V429.7z M124,442.8h-5.1c-2-1.2-3.9-2.6-5.8-3.9c3.7-0.6,7.4-1.3,11-2.2V442.8z M128.1,435.6
		c4.2-1.2,8.3-2.6,12.4-4.2v11.4h-12.4V435.6z M172.2,467.7c-14.7-4.7-28.9-11-42.7-18.6h42.7V467.7z M172.2,442.8h-10.3v-22
		c0-0.2-0.1-0.2-0.1-0.3c3.6-2.4,7.1-5.1,10.4-7.9V442.8z M279.6,431.9c4.4-2.2,8.7-4.8,13.1-7.8v18.7h-13.1V431.9z M275.5,433.8
		v9.1h-12.4v-4.1c0-0.2-0.1-0.3-0.2-0.5C267.1,437.1,271.3,435.6,275.5,433.8z M245.9,440.6c4.4-0.1,8.7-0.6,13.1-1.5v3.7h-13.1
		V440.6z M229.3,439.2c4.1,0.8,8.2,1.3,12.4,1.4v2.2h-12.4V439.2z M212.1,433.8c4.4,1.9,8.8,3.5,13.2,4.6c0,0.1-0.1,0.2-0.1,0.3v4.1
		h-13.1V433.8z M195.6,424.6c4.1,2.8,8.3,5.3,12.4,7.3v10.9h-12.4V424.6z M180.4,412.7c3.7,3.3,7.3,6.3,11,9v21.1h-11V412.7z
		 M307.2,470c-41.4,11.6-85.3,11.6-126.7,0V449h126.7V470z M307.2,442.8h-10.3v-21.6c3.4-2.6,6.9-5.4,10.3-8.5V442.8z M330.6,423.1
		c4,2.5,8.1,4.7,12.4,6.7v13.1h-12.4V423.1z M315.4,412c3.5,3.1,7.2,6,11,8.6v22.3h-11V412z M315.4,467.7V449h42.7
		C344.4,456.7,330.1,463,315.4,467.7z M360.2,442.8h-13.1v-11.3c4.3,1.8,8.6,3.2,13.1,4.5V442.8z M368.8,442.8h-4.5v-5.7
		c3.3,0.8,6.7,1.4,10.1,1.9C372.6,440.3,370.7,441.6,368.8,442.8z"/>
	<g id="SENG">
		<path d="M403.6,70.9c-4.8-4.1-9.6-8.3-13.8-11.7l5.5-6.9c4.8,4.1,9.6,8.3,14.5,12.4L403.6,70.9z"/>
		<path d="M342.3,29.6c-5.5-2.1-11.7-4.8-17.2-6.9l2.8-8.3c6.2,2.1,11.7,4.8,17.2,6.9L342.3,29.6z"/>
		<path d="M316.8,20c-6.2-2.1-12.4-3.4-17.9-4.8l2.1-8.3c5.5,1.4,11.7,2.8,18.6,4.8L316.8,20z"/>
		<path d="M281,11c-9-1.4-18.6-2.1-27.5-2.8l0.7-8.3c9.6,0.7,19.3,1.4,28.2,2.8L281,11z"/>
		<rect x="360.9" y="32.3" transform="matrix(0.5045 -0.8634 0.8634 0.5045 148.7807 333.5862)" width="8.3" height="9.6"/>
		<rect x="376.9" y="42.6" transform="matrix(0.5716 -0.8205 0.8205 0.5716 124.3406 332.9999)" width="8.3" height="9.6"/>
		<path d="M429.1,97.8c-5.5-6.9-11.7-14.5-18.6-20.7l6.2-6.2c6.9,6.9,13.1,13.8,19.3,21.3L429.1,97.8z"/>
		<path d="M449,128.8c-2.8-5.5-6.2-11-9.6-15.8l6.9-4.8c3.4,5.5,6.9,11,10.3,16.5L449,128.8z"/>
		<path d="M467.6,170.8c-2.8-9-6.2-17.2-10.3-26.2l7.6-3.4c4.1,9,7.6,17.9,10.3,26.9L467.6,170.8z"/>
	</g>
	<g id="ECE">
		<path d="M161.8,37.2l-23.4-1.4l3.4,6.9C131,48,120.4,54.3,110.9,61.3c-10.3,8.3-20.7,16.5-29.6,26.2l-2.8,2.8l6.2,5.5l2.8-2.8
			c8.3-9,17.9-17.2,28.2-24.8c9.5-6.3,19.6-12.6,29.7-17.9l3.3,6.9L161.8,37.2z"/>
		<text transform="matrix(1 0 0 1 125.6914 99.3076)" class="st0 st1">I</text>
	</g>
	<g id="UVIC_ENGINEERING">
		<path d="M174.9,179.1c0,26.2-14.5,39.9-37.9,39.9s-37.9-14.5-37.9-40.6v-50.3h17.9v49.6c0,16.5,6.9,24.1,20,24.1s20-7.6,20-24.1
			v-49.6h17.9V179.1z"/>
		<path d="M216.9,217.6l-33.1-88.8h20l15.2,43.4c6.2,17.2,9,25.5,9,26.2h0.7c0,0,2.8-9,9-25.5l15.2-44.1h18.6L239,217.6H216.9z"/>
		<path d="M283.1,128.8H301v88.8h-17.9V128.8z"/>
		<path d="M400.8,191.5c-10.3,23.4-37.2,33.7-60.6,23.4c-16.5-7.6-27.5-24.1-27.5-42c-0.7-24.1,17.9-44.8,42.7-46.1
			c1.4,0,2.1,0,3.4,0c17.9-0.7,33.7,9,41.3,24.8l-17.2,4.8c-4.8-8.3-14.5-13.8-24.1-13.1c-16.5,0-27.5,11.7-27.5,29.6
			c-0.7,15.2,11,28.2,26.9,28.9c11,0.7,21.3-5.5,26.2-15.2L400.8,191.5z"/>
		<path d="M108.1,238.3h20.7v5.5h-15.2v6.2h11v5.5h-11v6.9h15.2v5.5h-21.3v-29.6H108.1z"/>
		<path d="M139.8,248.6L139.8,248.6c0,0,0,3.4,0,7.6v12.4h-6.2V239h6.2l13.8,19.3l0,0c0,0,0-3.4,0-6.9V239h6.2v29.6h-5.5
			L139.8,248.6z"/>
		<path d="M188.7,267.9c0-2.1,0-2.8,0-2.8l0,0c-2.8,2.1-5.5,3.4-9,3.4c-8.3,0-15.2-6.2-15.2-14.5v-0.7c-0.7-8.3,6.2-15.2,13.8-15.2
			c0.7,0,0.7,0,1.4,0c6.2,0,11,2.8,13.8,8.3l-5.5,1.4c-2.1-2.8-5.5-4.8-9-4.1c-4.8,0-9,4.1-9,9v0.7c0,4.8,3.4,9.6,9,9.6
			c0.7,0,0.7,0,1.4,0c3.4,0,6.2-1.4,8.3-3.4v-2.1h-7.6v-5.5h13.1v16.5L188.7,267.9z"/>
		<path d="M198.3,238.3h5.5v29.6h-5.5V238.3z"/>
		<path d="M215.6,248.6L215.6,248.6c0,0,0,3.4,0,7.6v12.4h-6.2V239h6.2l13.8,19.3l0,0c0,0,0-3.4,0-6.9V239h5.5v29.6h-6.2
			L215.6,248.6z"/>
		<path d="M241,238.3h20.7v5.5h-15.2v6.2h11v5.5h-11v6.9h15.2v5.5h-21.3v-29.6H241z"/>
		<path d="M266.5,238.3h20.7v5.5H272v6.2h11.7v5.5H272v6.9h15.2v5.5h-21.3v-29.6H266.5z"/>
		<path d="M302.3,257.6h-4.1v10.3H292v-29.6h10.3c7.6,0,11.7,3.4,11.7,9.6c0,4.1-2.1,7.6-6.2,8.3l6.9,11.7h-6.9L302.3,257.6z
			 M303,252.8c3.4,0,5.5-1.4,5.5-4.1s-2.1-4.8-5.5-4.8h-4.8v9H303z"/>
		<path d="M318.9,238.3h5.5v29.6h-5.5V238.3z"/>
		<path d="M336.1,248.6L336.1,248.6c0,0,0,3.4,0,7.6v12.4h-5.5V239h6.2l13.8,19.3l0,0c0,0,0-3.4,0-6.9V239h5.5v29.6h-6.2
			L336.1,248.6z"/>
		<path d="M384.3,267.9v-2.8l0,0c-2.8,2.1-5.5,3.4-9,3.4c-8.3,0-15.2-6.2-15.2-14.5v-0.7c-0.7-8.3,6.2-15.2,13.8-15.2
			c0.7,0,0.7,0,1.4,0c6.2,0,11,2.8,13.8,8.3l-5.5,1.4c-2.1-2.8-4.8-4.1-8.3-4.1c-4.8,0-9,4.1-9,9v0.7c0,4.8,3.4,9.6,9,9.6
			c0.7,0,0.7,0,1.4,0c3.4,0,6.2-1.4,8.3-3.4v-2.1h-7.6v-5.5h13.1v16.5L384.3,267.9z"/>
		<path d="M134.3,311.3c0,5.5-3.4,8.3-10.3,8.3s-9.6-2.8-9.6-6.9c0-2.8,1.4-4.8,4.1-5.5l0,0c-2.8-0.7-4.1-2.8-4.1-5.5
			c0-4.1,3.4-6.2,9-6.2c4.1-0.7,9,2.1,10.3,6.2l-4.8,1.4c-0.7-2.1-2.8-3.4-4.8-2.8c-2.8,0-3.4,1.4-3.4,2.8s0.7,2.8,4.1,2.8h13.8v4.8
			H135v0.7H134.3z M124.7,309.2c-2.8,0-4.1,0.7-4.1,2.8s1.4,2.8,4.1,2.8c2.8,0,4.1-1.4,4.1-3.4v-2.1L124.7,309.2z"/>
		<path d="M180.4,309.9c-3.4,7.6-12.4,11-20,7.6c-7.6-3.4-11-12.4-7.6-20c2.8-5.5,8.3-9,14.5-9c6.2,0,11,2.8,13.8,8.3l-6.9,2.1
			c-1.4-2.8-4.8-4.8-8.3-4.1c-4.8,0-9,3.4-9,9c0,0.7,0,0.7,0,1.4c-0.7,4.8,3.4,9.6,8.3,9.6h0.7c3.4,0,6.9-2.1,8.3-5.5L180.4,309.9z"
			/>
		<path d="M198.3,288.6c8.3,0,15.2,6.9,15.2,15.2s-6.9,15.2-15.2,15.2s-15.2-6.9-15.2-15.2s6.2-15.2,14.5-15.2
			C197.7,288.6,197.7,288.6,198.3,288.6z M198.3,314c5.5,0,9.6-4.1,10.3-9.6c0-5.5-4.1-9.6-9.6-10.3c-5.5,0-9.6,4.1-10.3,9.6l0,0
			c0,4.8,3.4,9.6,9,9.6C197.7,314,198.3,314,198.3,314z"/>
		<path d="M241,309.2c0-6.2,0-10.3,0-10.3l0,0c0,0-1.4,2.8-3.4,5.5l-3.4,6.9h-3.4l-3.4-6.9c-2.1-3.4-3.4-6.2-3.4-6.2l0,0
			c0,0,0,4.1,0,10.3v9h-6.2v-29.6h6.2l8.3,15.2l0,0l8.3-15.2h6.2v29.6H241L241,309.2z"/>
		<path d="M262.4,289.3c6.9,0,11.7,3.4,11.7,9.6c0,6.2-4.1,9.6-11.7,9.6h-4.8v9.6h-6.2v-29.6h11V289.3z M262.4,303.7
			c3.4,0,5.5-2.1,5.5-4.8c0-2.8-2.1-4.8-5.5-4.8h-4.8v9L262.4,303.7z"/>
		<path d="M302.3,305.8c0,6.9-5.5,12.4-12.4,12.4c-6.9,0-12.4-5.5-12.4-12.4l0,0v-16.5h6.2v16.5c0,5.5,2.1,8.3,6.9,8.3
			c4.8,0,6.9-2.8,6.9-8.3v-16.5h5.5L302.3,305.8z"/>
		<path d="M321.6,294.8v24.1h-5.5v-24.1h-10.3v-5.5h24.8v5.5H321.6z"/>
		<path d="M334.7,289.3h20.7v5.5h-15.2v6.2h11.7v5.5h-11.7v6.9h15.2v5.5H334v-29.6H334.7z"/>
		<path d="M370.5,308.5h-4.1v10.3h-5.5v-29.6h10.3c7.6,0,11.7,3.4,11.7,9.6c0,4.1-2.1,7.6-6.2,8.3l6.9,11.7h-6.9L370.5,308.5z
			 M371.2,303.7c3.4,0,5.5-1.4,5.5-4.8c0-3.4-2.1-4.8-5.5-4.8h-4.8v9h4.8V303.7z"/>
		<path d="M163.9,360.2c0.7,2.8,2.8,4.1,6.9,4.1s5.5-1.4,5.5-3.4c0-3.4-4.1-3.4-7.6-4.1c-3.4-0.7-9-2.8-9-9s4.1-9,11-9
			c5.5-0.7,9.6,2.8,11.7,7.6l-5.5,1.4c-0.7-2.8-3.4-4.1-6.2-4.1c-3.4,0-4.8,1.4-4.8,3.4s3.4,3.4,7.6,4.1s8.3,3.4,8.3,9.6
			s-4.1,9-11,9c-5.5,0.7-11-2.8-12.4-8.3L163.9,360.2z"/>
		<path d="M213.5,360.9c-3.4,7.6-12.4,11-20,7.6c-7.6-3.4-11-12.4-7.6-20c2.8-5.5,8.3-9,14.5-9s11,2.8,13.8,8.3l-5.5,1.4
			c-1.4-2.8-4.8-4.8-8.3-4.8c-5.5,0-9.6,4.1-10.3,9.6c0,5.5,4.1,9.6,9.6,10.3c3.4,0,6.9-2.1,9-4.8L213.5,360.9z"/>
		<path d="M217.6,340.2h5.5v29.6h-6.2L217.6,340.2z"/>
		<path d="M228.7,340.2h20.7v5.5h-15.2v6.2h11.7v5.5h-11.7v6.9h15.2v5.5H228v-29.6H228.7z"/>
		<path d="M260.3,349.9L260.3,349.9c0,0,0,3.4,0,7.6v12.4h-6.2v-29.6h6.2l13.8,19.3l0,0c0,0,0-3.4,0-6.9v-12.4h5.5v29.6h-6.2
			L260.3,349.9z"/>
		<path d="M313.4,360.9c-2.1,5.5-7.6,9-13.8,9c-8.3,0-15.2-6.9-15.2-15.2s6.9-15.2,15.2-15.2l0,0c6.2,0,11.7,2.8,13.8,8.3l-5.5,1.4
			c-2.8-4.8-9-6.2-13.8-3.4s-6.2,9-3.4,13.8c2.8,4.8,9,6.2,13.8,3.4c1.4-0.7,2.8-2.1,3.4-3.4L313.4,360.9z"/>
		<path d="M317.5,340.2h20.7v5.5h-14.5v6.2h11.7v5.5h-11.7v6.9h15.2v5.5h-21.3C317.5,369.8,317.5,340.2,317.5,340.2z"/>
	</g>
</g>
</svg>
