<?xml version="1.0" encoding="utf-8"?>
<!-- Generator: Adobe Illustrator 26.4.0, SVG Export Plug-In . SVG Version: 6.00 Build 0)  -->
<svg version="1.1" id="Trace" xmlns="http://www.w3.org/2000/svg" xmlns:xlink="http://www.w3.org/1999/xlink" x="0px" y="0px"
	 viewBox="0 0 560.3 560.3" style="enable-background:new 0 0 560.3 560.3;" xml:space="preserve">
<style type="text/css">
	.st0{clip-path:url(#SVGID_00000105404672629589446090000004419004481193390726_);}
</style>
<g id="Mech">
	<g>
		<g>
			<defs>
				<circle id="SVGID_1_" cx="280.1" cy="280.2" r="273.5"/>
			</defs>
			<clipPath id="SVGID_00000085966946785712196670000002735079846657915535_">
				<use xlink:href="#SVGID_1_"  style="overflow:visible;"/>
			</clipPath>
			<g style="clip-path:url(#SVGID_00000085966946785712196670000002735079846657915535_);">
				<g>
					<path d="M465.6,168.5c-19.9,0-36.1-16.2-36.1-36.1s16.2-36.1,36.1-36.1s36.1,16.2,36.1,36.1S485.3,168.5,465.6,168.5z
						 M465.6,104.2c-15.6,0-28.2,12.6-28.2,28.2s12.6,28.2,28.2,28.2s28.2-12.6,28.2-28.2S481,104.2,465.6,104.2z"/>
				</g>
				<g>
					<path d="M98.6,470.7c-19.9,0-36.1-16.2-36.1-36.1s16.2-36.1,36.1-36.1s36.1,16.2,36.1,36.1S118.5,470.7,98.6,470.7z
						 M98.6,406.4c-15.6,0-28.2,12.6-28.2,28.2c0,15.6,12.6,28.2,28.2,28.2s28.2-12.6,28.2-28.2C126.8,419,114.2,406.4,98.6,406.4z"
						/>
				</g>
				<g>
					<path d="M93.5,672.5c-0.6,0-1,0-1.6,0c-8.3-0.6-15-5.9-17.7-13.8l-12.8-39.5c-1.2-3.9-4.2-6.8-8-8c-3.9-1.2-8-0.4-11.1,2.1
						L9.4,638.6c-6.5,5.1-15.2,5.6-22.4,1.5c-7.3-4.2-11-11.9-9.8-20.2l5.6-41.2c0.6-4-0.9-7.9-3.9-10.7c-3-2.8-7-3.9-11-3
						l-40.6,8.8c-8.2,1.8-16.2-1.5-20.8-8.3c-4.8-6.8-4.8-15.5-0.1-22.4l22.9-34.6c2.2-3.4,2.7-7.4,1.2-11.3
						c-1.5-3.7-4.6-6.5-8.6-7.4l-40.3-10c-8-1.9-14-8.3-15.2-16.5c-1.2-8.2,2.4-16,9.7-20.2l35.7-21.2c3.1-1.8,5.2-4.8,5.8-8.2
						c0.3-1.2,0.3-2.4,0.1-3.6c-0.3-3.3-1.9-6.2-4.5-8.3l-32.1-26.3c-6.4-5.3-8.9-13.5-6.4-21.5c2.5-8,9.2-13.4,17.4-14.1l41.5-3.7
						c1.5-0.1,3-0.6,4.3-1.2c4.8-2.4,7.4-7.6,6.7-12.6c-0.1-1.2-0.4-2.4-1-3.6L-73.9,281c-3.6-7.6-2.2-16,3.4-22.1
						c5.6-6.1,14.1-8,21.8-5.2l38.2,14.4l17.4-12.8l0.6-42.3L40.3,200l29.1,30.5l22.3-3.4l18.7-37.7l35.2,2.7l12.9,40.1l21.5,6.7
						l33.3-25.9l30.6,17.7l-5.8,41.8l16.5,15.3l41.2-8.8l19.9,29.1l-23.3,35.1l8.2,20.9l41,10l5.2,34.9l-36.3,21.5l-1.6,22.4
						l32.5,26.7l-10.4,33.7l-42.3,3.7l-11.4,18.1l18.4,39.5l-23.9,25.9L230.5,585c-1.2-0.4-2.5-0.7-3.7-0.7c-5.2-0.3-10,2.8-12,7.6
						c-0.6,1.5-0.9,3-0.9,4.6l-0.6,41.6c-0.1,8.3-5.1,15.5-12.8,18.4c-7.7,3-16.2,1.2-21.8-4.9l-28.7-30c-2.4-2.5-5.6-3.9-9.1-3.9
						c-0.9,0-1.8,0.1-2.7,0.3c-3.6,0.9-6.5,3.3-8.2,6.5l-18.6,37.1C107.9,668.3,101.3,672.5,93.5,672.5L93.5,672.5z M49.8,602.6
						c1.9,0,4,0.3,5.9,0.9c6.2,1.9,11.1,6.8,13.2,13.1l12.8,39.5c1.9,5.8,6.8,8.2,10.8,8.5c4,0.3,9.2-1.3,11.9-6.8l18.6-37.1
						c2.7-5.3,7.6-9.2,13.4-10.5c1.3-0.3,2.8-0.4,4.3-0.6c0.1,0,0.1,0,0.3,0c5.5,0,10.7,2.2,14.6,6.2l28.7,30
						c4.2,4.5,9.7,4.5,13.4,3c3.7-1.5,7.7-5.2,7.9-11.3l0.6-41.6c0-2.7,0.6-5.2,1.6-7.6c3.3-7.7,11.1-12.8,19.5-12.3
						c2.1,0.1,4.2,0.6,6.1,1.3l36.4,13.7l16.9-18.1l-16.3-35.4c-0.3-0.6-0.6-1.5-0.7-1.6l-0.7-1.8l15.6-24.7l2.2-0.3l38.8-3.4
						l7.3-23.6l-31.6-26l2.2-30.5l35.2-20.9l-3.7-24.5l-39.8-9.7l-11.1-28.5l22.6-34.2l-14-20.5l-40.1,8.6L229.9,275l5.5-40.6
						L214,222.1l-32.4,25.1l-29.3-9.1l-12.6-38.9l-24.7-1.8l-18.3,36.7l-30.3,4.6l-28.2-29.7l-23,9.1l-0.6,39.2l-0.1,1.8l-23.6,17.5
						l-1.9-0.6c0,0-1-0.3-1.5-0.4l-38.9-14.7c-5.6-2.2-10.7,0.1-13.4,3.1c-2.7,3-4.8,8-2.1,13.5l17.5,37.7c0.9,1.8,1.5,3.7,1.6,5.8
						c1.2,8.6-3.3,16.9-11,20.8c-2.2,1-4.6,1.8-7.1,1.9l-41.5,3.7c-6.1,0.6-9.5,4.8-10.7,8.6c-1.2,3.9-0.7,9.2,4,13.2l32.1,26.3
						c4.2,3.4,6.7,8.2,7.3,13.5c0.1,1.9,0.1,3.9-0.3,5.8c-1,5.8-4.5,10.5-9.5,13.5l-35.7,21.2c-5.2,3.1-6.5,8.5-5.9,12.5
						c0.6,4,3.3,8.8,9.2,10.1l40.4,9.8c6.4,1.5,11.6,6.1,14,12.2c2.4,6.1,1.6,12.9-1.9,18.4l-22.7,34.5c-3.4,5.1-2.2,10.4,0.1,13.7
						c2.4,3.3,6.8,6.4,12.8,5.1l40.7-8.8c6.4-1.3,13.1,0.4,17.8,4.9s7.1,11,6.2,17.5l-5.6,41.2c-0.9,6.1,2.5,10.4,6.1,12.3
						c3.6,1.9,8.9,2.8,13.7-0.9l32.8-25.4C40.9,604.1,45.4,602.8,49.8,602.6L49.8,602.6z"/>
				</g>
				<g>
					<path d="M448.3,369.2l-35.2-2.7l-12.9-40.1l-21.5-6.7l-33.3,25.9l-30.5-17.7l5.8-41.8L304.1,271l-41.2,8.8L243,250.7l23.3-35.1
						l-8.2-20.9l-41-10l-5.2-34.9l36.3-21.5l1.6-22.4L217.3,79l10.4-33.7l42.3-3.7l11.4-18.1L263.1-16L287-41.9l41.3,15.6
						c1.2,0.4,2.5,0.7,3.7,0.7c5.2,0.3,10-2.8,11.9-7.6c0.6-1.5,0.9-3,0.9-4.6l0.6-41.6c0.1-8.3,5.1-15.5,12.8-18.4
						c7.7-3,16.2-1.2,21.8,4.9l28.7,30c2.4,2.5,5.6,3.9,9.1,3.9c0.9,0,1.8-0.1,2.7-0.3c3.6-0.9,6.5-3.3,8.2-6.5l18.6-37.1
						c3.7-7.4,11.1-11.7,19.5-11.1c8.3,0.6,15,5.9,17.7,13.8l12.8,39.5c1.2,3.9,4.2,6.8,8.2,8c3.9,1.2,8,0.4,11.1-2.1l32.8-25.4
						c6.5-5.1,15.2-5.6,22.4-1.5c7.3,4.2,11,11.9,9.8,20.2l-5.6,41.2c-0.6,4,0.9,7.9,3.9,10.7s7,3.9,11,3l40.7-8.6
						c8.2-1.8,16.2,1.5,20.8,8.3c4.8,6.8,4.8,15.5,0.1,22.4l-22.9,34.6c-2.2,3.4-2.7,7.4-1.2,11.3c1.5,3.9,4.6,6.5,8.6,7.4l40.4,9.8
						c8.2,1.9,14,8.3,15.2,16.5c1.2,8.3-2.4,16-9.7,20.2l-35.7,21.2c-3.1,1.8-5.2,4.8-5.8,8.3c-0.3,1.2-0.3,2.4-0.1,3.6
						c0.3,3.3,1.9,6.2,4.5,8.3l32.1,26.3c6.4,5.3,8.9,13.5,6.4,21.4c-2.5,7.9-9.2,13.4-17.4,14.1l-41.5,3.7c-1.5,0.1-3,0.6-4.5,1.2
						c-4.8,2.4-7.4,7.6-6.7,12.8c0.1,1.2,0.6,2.4,1,3.6l17.5,37.7c3.6,7.6,2.2,16-3.4,22.1c-5.6,6.1-14.1,8-21.8,5.2l-38.2-14.4
						l-17.4,12.8l-0.6,42.3l-32.8,12.9l-29.1-30.3l-22.3,3.4L448.3,369.2L448.3,369.2z M418.9,359.3l24.7,1.8l18.3-36.7l30.3-4.6
						l28.2,29.7l23-9.1l0.6-38.9c0-0.1,0-0.3,0-0.3l0.1-1.8l1.5-1l22.1-16.3l1.9,0.6c0,0,1,0.3,1.5,0.4l38.9,14.7
						c5.6,2.2,10.7-0.1,13.4-3.1c2.7-3,4.8-8,2.1-13.5l-17.4-37.9c-0.9-1.8-1.5-3.9-1.6-5.8c-1.2-8.6,3.3-16.9,11-20.8
						c2.2-1,4.6-1.8,7.1-1.9L666,211c6.1-0.6,9.5-4.8,10.7-8.6c1.2-3.9,0.7-9.2-4-13.2l-32.1-26.3c-4.2-3.4-6.7-8.3-7.3-13.5
						c-0.1-1.9-0.1-3.9,0.3-5.8c1-5.8,4.5-10.5,9.5-13.5l35.7-21.2c5.2-3.1,6.5-8.5,5.9-12.5s-3.3-8.8-9.2-10.1l-40.4-9.8
						c-6.4-1.5-11.6-6.1-14-12.2c-2.4-6.1-1.6-12.9,1.9-18.4L646,11.1c3.4-5.1,2.2-10.4-0.1-13.7S639-8.9,633-7.6L592.3,1
						c-6.4,1.3-13.1-0.4-17.8-4.9s-7.1-11-6.2-17.5l5.6-41.2c0.9-6.1-2.5-10.4-6.1-12.3c-3.4-1.9-8.9-2.8-13.7,0.9l-32.8,25.4
						c-5.2,4-12,5.2-18.3,3.3s-11.1-6.8-13.2-13.1L477-97.9c-1.9-5.8-6.8-8.2-10.8-8.5c-4-0.3-9.2,1.3-11.9,6.8l-18.6,37.1
						c-2.7,5.3-7.6,9.2-13.4,10.7c-1.3,0.3-2.8,0.4-4.3,0.6c-5.6,0-10.8-2.2-14.9-6.2l-28.7-30c-4.2-4.5-9.7-4.5-13.4-3
						c-3.7,1.5-7.7,5.2-7.9,11.3l-0.6,41.6c0,2.7-0.6,5.2-1.5,7.6c-3.3,7.7-11.1,12.8-19.5,12.3c-2.1-0.1-4.2-0.4-6.1-1.3
						l-36.4-13.7l-16.9,18.1l16.3,35.4c0.3,0.6,0.6,1.5,0.7,1.8l0.7,1.8l-15.6,24.7l-1.8,0.3c0,0-0.3,0-0.4,0l-38.8,3.4l-7.3,23.6
						l31.6,26l-2.2,30.5l-35.2,20.8l3.7,24.5L264,188l11.1,28.5l-22.6,34.2l14,20.5l40.1-8.6l22.4,20.8l-5.5,40.6l21.5,12.3
						l32.4-25.1l29.3,9.1L418.9,359.3L418.9,359.3z"/>
				</g>
			</g>
		</g>
	</g>
	<g>
		<path d="M280.1,560.3C125.6,560.3,0.1,434.6,0.1,280.2S125.6,0,280.1,0s280.1,125.7,280.1,280.1S434.5,560.3,280.1,560.3z
			 M280.1,13.4C133.1,13.4,13.4,133,13.4,280.1s119.6,266.7,266.7,266.7s266.7-119.6,266.7-266.7S427.2,13.4,280.1,13.4z"/>
	</g>
</g>
</svg>
