<?xml version="1.0" encoding="utf-8"?>
<!-- Generator: Adobe Illustrator 26.4.0, SVG Export Plug-In . SVG Version: 6.00 Build 0)  -->
<svg version="1.1" id="Layer_1" xmlns="http://www.w3.org/2000/svg" xmlns:xlink="http://www.w3.org/1999/xlink" x="0px" y="0px"
	 viewBox="0 0 384.1 60" style="enable-background:new 0 0 384.1 60;" xml:space="preserve">
<g id="Background">
</g>
<g id="Content">
	<g>
		<g>
			<g>
				<path d="M34.6,13.7c0.2,0.1,1.4,1.2,3,0.6c0,1.6-0.2,8.2-0.2,8.5c-1.1,0.4-2.2-0.4-2.2-0.4c-2.5-1.7-3.9-1.2-4.6-0.7v-7.8
					C30.8,13.6,32.1,12.2,34.6,13.7"/>
				<path d="M26.1,13.7c2.5-1.5,3.8-0.1,4,0.2v7.8c-0.6-0.5-2.1-1-4.6,0.7c0,0-1.1,0.8-2.2,0.4c0-0.3-0.1-6.9-0.2-8.5
					C24.7,14.9,25.9,13.8,26.1,13.7"/>
				<path d="M29.8,23.4c-1.6,1.9-7.1,1.2-8.1,1.1c0-0.4-0.4-8.4-0.4-8.7c0.6-0.3,1.1-0.7,1.4-1.1l0.2,8.5l0.1,0.1
					c1.4,0.6,2.8-0.4,2.8-0.4c2.2-1.5,3.4-1.1,4-0.7c0.3,0.2,0.4,0.4,0.4,0.4S30.1,23,29.8,23.4"/>
				<path d="M39,24.5c-1,0.2-6.5,0.8-8.1-1.1c-0.3-0.4-0.4-0.9-0.4-0.9s0.2-0.3,0.4-0.4c0.6-0.4,1.8-0.7,4,0.7c0.1,0,1.4,1,2.8,0.4
					l0.1-0.1l0.2-8.5c0.3,0.4,0.8,0.8,1.4,1.1C39.4,16,39,24.1,39,24.5"/>
				<path d="M31.9,24.7c-0.8-0.4-1.3-0.8-1.6-1.2h0c-0.3,0.5-0.9,0.9-1.6,1.2c0.3,0.4,0.8,0.7,1.6,0.7h0
					C31.2,25.4,31.7,25.1,31.9,24.7"/>
				<path d="M20.6,3.4c0.2,0,0.2-0.1,0.3-0.1l0.1-0.1L20.8,3c-0.1-0.1-0.3-0.1-0.4-0.1c-0.1,0-0.2,0.1-0.2,0.1l0,0.1l0.1,0.1
					C20.4,3.3,20.5,3.4,20.6,3.4"/>
				<path d="M35.1,3.4c0.2,0,0.3-0.1,0.3-0.1l0.1-0.1L35.4,3c-0.1-0.1-0.3-0.1-0.4-0.1c-0.1,0-0.2,0.1-0.2,0.1l0,0.1l0.1,0.1
					C35,3.3,35.1,3.4,35.1,3.4"/>
				<path d="M27.9,3.4c0.2,0,0.2-0.1,0.3-0.1l0.1-0.1L28.1,3c-0.1-0.1-0.3-0.1-0.4-0.1c-0.1,0-0.2,0.1-0.2,0.1l0,0.1l0.1,0.1
					C27.7,3.3,27.8,3.4,27.9,3.4"/>
				<path d="M42.8,0H17.4v11.7v0v2.5v0.2v0.4V15v1.7v0.4c0,0.1,0,0.1,0,0.2c0,0.7,0.1,1.3,0.2,1.9c0,0.2,0.1,0.4,0.1,0.6
					c0.1,0.5,0.2,1,0.4,1.5c0,0.1,0.1,0.3,0.1,0.4c0.1,0.2,0.1,0.4,0.2,0.6c0.1,0.3,0.3,0.6,0.4,0.9c0.1,0.2,0.2,0.4,0.3,0.6
					c0.1,0.1,0.1,0.3,0.2,0.4c0.1,0.2,0.2,0.4,0.3,0.6c0.3,0.5,0.7,1,1,1.5c0.1,0.2,0.3,0.3,0.4,0.5c0,0,0,0,0.1,0.1
					c0.1,0.2,0.3,0.3,0.4,0.5c0.7,0.7,1.4,1.4,2.1,1.9c0,0,0.1,0,0.1,0.1c0.2,0.2,0.5,0.3,0.7,0.5c0,0,0.1,0,0.1,0.1
					c0.9,0.6,1.7,1,2.5,1.4c0.5,0.2,1,0.4,1.5,0.5c0.6,0.1,1.2,0.2,1.7,0.2c0.5,0,1.1-0.1,1.7-0.2c0.5-0.1,1-0.3,1.5-0.5
					c0.8-0.3,1.7-0.8,2.5-1.4c0,0,0.1,0,0.1-0.1c0.2-0.2,0.5-0.3,0.7-0.5c0,0,0.1,0,0.1-0.1c0.7-0.6,1.4-1.2,2.1-1.9
					c0.1-0.1,0.3-0.3,0.4-0.5c0,0,0,0,0.1-0.1c0.1-0.2,0.3-0.3,0.4-0.5c0.4-0.5,0.7-1,1-1.5c0.1-0.2,0.2-0.4,0.3-0.6
					c0.1-0.1,0.2-0.3,0.2-0.4c0.1-0.2,0.2-0.4,0.3-0.6c0.1-0.3,0.3-0.6,0.4-0.9c0.1-0.2,0.1-0.4,0.2-0.6c0.1-0.2,0.1-0.4,0.2-0.6
					c0.1-0.4,0.2-0.9,0.3-1.3c0-0.2,0.1-0.4,0.1-0.6c0.1-0.6,0.1-1.3,0.2-1.9c0-0.1,0-0.1,0-0.2v-0.4V15v-0.1v-0.4v-0.2v-2.5v0V0
					H42.8 M35.4,2.3c0.5,0,1.2,0.2,1.3,1.6c0.3,0.4,0.7,0.7,1.2,1c0.9,0.1,1.9,0.2,2.9,0.1c-0.1,0.3-1.2,1-1.1,1.1
					c0.5,0.3,1.7,0.6,1.7,0.6S40.5,7,39.8,7c0,0,0,0,0,0c-2.6,0-3.6-0.9-3.7-1.4C36,5.3,36.2,5.1,36.6,5c0.3,0,0.2-0.4-0.1-0.4
					c-0.6,0.1-0.9,0.5-0.8,1c0.1,0.9,1.4,1.9,4.4,1.8c0.7,0.2,1.1,0.2,1.5,0.2c-0.5,0.6-1,0.8-1.3,1c0.1,0.6,0.1,1.3,0.1,1.6
					c-0.5-0.8-1.8-2-2.3-2.3c0,0.8,0.2,1.8,0.5,2.1c-0.7-0.2-1-0.4-1.3-0.8c-0.2,0.2-0.7,0.8-1.3,0.6c0.4-0.7,0.6-1.4,0.6-2.3
					c-0.6-0.1-1.6-0.7-1.6-2.8c0-0.9-0.6-1.1-0.9-1.5C34.4,2.9,34.9,2.3,35.4,2.3 M28.2,2.3c0.5,0,1.2,0.2,1.3,1.6
					c0.3,0.4,0.7,0.7,1.2,1c0.9,0.1,1.9,0.2,2.9,0.1c-0.1,0.3-1.2,1-1.1,1.1c0.5,0.3,1.7,0.6,1.7,0.6S33.3,7,32.5,7c0,0,0,0,0,0
					c-2.6,0-3.6-0.9-3.7-1.4c0-0.3,0.1-0.5,0.5-0.6c0.3,0,0.2-0.4-0.1-0.4c-0.6,0.1-0.9,0.5-0.8,1c0.1,0.9,1.4,1.9,4.4,1.8
					c0.7,0.2,1.1,0.2,1.5,0.2c-0.5,0.6-1,0.8-1.3,1c0.1,0.6,0.1,1.3,0.1,1.6c-0.5-0.8-1.8-2-2.3-2.3c0,0.8,0.2,1.8,0.5,2.1
					c-0.7-0.2-1-0.4-1.3-0.8c-0.2,0.2-0.7,0.8-1.3,0.6c0.4-0.7,0.6-1.4,0.6-2.3c-0.6-0.1-1.6-0.7-1.6-2.8c0-0.9-0.6-1.1-0.9-1.5
					C27.1,2.9,27.7,2.3,28.2,2.3 M20.9,2.3c0.5,0,1.2,0.2,1.3,1.6c0.3,0.4,0.7,0.7,1.2,1c0.9,0.1,1.9,0.2,2.9,0.1
					c-0.1,0.3-1.2,1-1.1,1.1c0.5,0.3,1.7,0.6,1.7,0.6S26,7,25.2,7c0,0,0,0,0,0c-2.6,0-3.6-0.9-3.7-1.4c-0.1-0.3,0.1-0.5,0.5-0.6
					c0.3,0,0.2-0.4-0.1-0.4c-0.6,0.1-0.9,0.5-0.8,1c0.1,0.9,1.4,1.9,4.4,1.8c0.7,0.2,1.1,0.2,1.5,0.2c-0.5,0.6-1,0.8-1.3,1
					c0.1,0.6,0.1,1.3,0.1,1.6c-0.5-0.8-1.8-2-2.3-2.3c0,0.8,0.2,1.8,0.5,2.1c-0.7-0.2-1-0.4-1.3-0.8c-0.2,0.2-0.7,0.8-1.3,0.6
					c0.4-0.7,0.6-1.4,0.6-2.3c-0.6-0.1-1.6-0.7-1.6-2.8c0-0.9-0.6-1.1-0.9-1.5C19.8,2.9,20.4,2.3,20.9,2.3 M30.8,31.1
					c-0.1,0-0.3,0-0.4,0s-0.3,0-0.4,0c-1.2-0.1-2.6-0.6-4-1.4h8.8C33.3,30.5,31.9,31,30.8,31.1 M38.1,27.2c-0.7,0.7-1.5,1.4-2.3,1.9
					c0,0-0.1,0-0.1,0.1H24.9c0,0-0.1,0-0.1-0.1c-0.8-0.5-1.6-1.2-2.4-1.9c-0.2-0.1-0.3-0.3-0.4-0.5h16.5
					C38.4,26.9,38.2,27,38.1,27.2 M42.4,14.1h-4.3c0.1,0.2,0.3,0.4,0.5,0.6h3.7c0,0.1,0,2.4,0,2.5h-2.6l0,0.6h2.6
					c0,0.5-0.1,1-0.1,1.5c0,0.2-0.1,0.4-0.1,0.6c0,0.1-0.1,0.3-0.1,0.4h-2.4l0,0.6h2.3c-0.1,0.3-0.2,0.6-0.3,0.9
					c-0.1,0.2-0.1,0.4-0.2,0.6c-0.1,0.3-0.3,0.6-0.4,0.9h-1.4l0,0.6h1.2c-0.1,0.1-0.2,0.3-0.2,0.4c-0.1,0.2-0.2,0.4-0.4,0.6
					c-0.3,0.5-0.7,1-1.1,1.5H21.6c-0.4-0.5-0.8-1-1.1-1.5c-0.1-0.2-0.2-0.4-0.4-0.6C20,24,20,23.8,19.9,23.7h1.3l0-0.6h-1.5
					c-0.2-0.3-0.3-0.6-0.4-0.9C19.1,22,19,21.8,19,21.6c-0.1-0.3-0.2-0.6-0.3-0.9H21l0-0.6h-2.5c0-0.1-0.1-0.3-0.1-0.4
					c0-0.2-0.1-0.4-0.1-0.6c-0.1-0.5-0.1-1-0.1-1.5h2.7l0-0.6h-2.7c0,0,0,0,0,0v-0.4V15v-0.3H22c0.2-0.2,0.4-0.4,0.5-0.6h-4.3v-2.8
					h24.3V14.1z"/>
			</g>
			<g>
				<path d="M2.2,37.1v5.4c0,1.8,0.8,2.7,1.9,2.7c1.2,0,2-0.8,2-2.7v-5.4h1.7v5.3c0,2.9-1.5,4.1-3.7,4.1c-2.1,0-3.5-1.2-3.5-4.1
					v-5.3H2.2z"/>
				<path d="M9.6,41.7c0-0.8,0-1.4-0.1-2H11l0.1,1h0c0.3-0.5,1-1.2,2.1-1.2c1.2,0,2.4,0.8,2.4,2.9v4H14v-3.8c0-1-0.4-1.7-1.3-1.7
					c-0.7,0-1.1,0.5-1.3,1c-0.1,0.1-0.1,0.3-0.1,0.5v4H9.6L9.6,41.7L9.6,41.7z"/>
				<path d="M17.5,39.7h1.7v6.7h-1.7V39.7z M18.3,38.7c-0.6,0-1-0.4-1-1c0-0.5,0.4-1,1-1c0.6,0,1,0.4,1,1
					C19.4,38.3,19,38.7,18.3,38.7L18.3,38.7z"/>
				<path d="M22.1,39.7l1.1,3.4c0.2,0.6,0.3,1.1,0.5,1.7h0c0.1-0.6,0.3-1.1,0.5-1.7l1.1-3.4H27l-2.6,6.7h-1.7l-2.5-6.7H22.1z"/>
				<path d="M29,42.4c0.1-0.7,0.5-1.6,1.6-1.6c1.1,0,1.4,1,1.4,1.6H29z M33.5,43.6c0-0.2,0.1-0.4,0.1-0.7c0-1.5-0.7-3.3-2.9-3.3
					c-2.2,0-3.3,1.8-3.3,3.6c0,2.1,1.3,3.4,3.5,3.4c1,0,1.8-0.2,2.3-0.4L33,45c-0.5,0.2-1.1,0.3-1.9,0.3c-1.1,0-2-0.5-2.1-1.7
					L33.5,43.6z"/>
				<path d="M35,41.9c0-0.9,0-1.6-0.1-2.2h1.5l0.1,1.3h0c0.3-0.9,1.1-1.4,1.8-1.4c0.2,0,0.3,0,0.4,0v1.6c-0.2,0-0.3,0-0.5,0
					c-0.8,0-1.4,0.5-1.5,1.3c0,0.1,0,0.3,0,0.5v3.5H35L35,41.9z"/>
				<path d="M39.8,44.9c0.4,0.2,1.1,0.5,1.7,0.5c0.7,0,1.1-0.3,1.1-0.8c0-0.5-0.3-0.7-1.1-1c-1.3-0.5-1.9-1.2-1.9-2
					c0-1.2,1-2.1,2.5-2.1c0.7,0,1.4,0.2,1.8,0.4l-0.3,1.2c-0.3-0.2-0.8-0.4-1.4-0.4c-0.6,0-0.9,0.3-0.9,0.7c0,0.4,0.3,0.6,1.2,0.9
					c1.2,0.4,1.8,1.1,1.8,2c0,1.2-1,2.1-2.7,2.1c-0.8,0-1.6-0.2-2-0.5L39.8,44.9z"/>
				<path d="M45.6,39.7h1.7v6.7h-1.7V39.7z M46.5,38.7c-0.6,0-1-0.4-1-1c0-0.5,0.4-1,1-1c0.6,0,1,0.4,1,1
					C47.5,38.3,47.1,38.7,46.5,38.7L46.5,38.7z"/>
				<path d="M51.4,38v1.7H53V41h-1.6v3c0,0.8,0.2,1.2,0.9,1.2c0.3,0,0.5,0,0.7-0.1l0,1.3c-0.3,0.1-0.7,0.2-1.2,0.2
					c-0.6,0-1.1-0.2-1.5-0.6c-0.4-0.4-0.5-1-0.5-1.9V41h-1v-1.3h1v-1.3L51.4,38z"/>
				<path d="M55.7,39.7l1.2,3.6c0.1,0.4,0.3,0.9,0.4,1.3h0c0.1-0.4,0.2-0.9,0.4-1.3l1.1-3.6h1.8l-1.7,4.6c-0.9,2.5-1.5,3.6-2.3,4.3
					c-0.7,0.6-1.4,0.8-1.8,0.9l-0.4-1.4c0.3-0.1,0.6-0.2,1-0.5c0.3-0.2,0.7-0.6,0.9-1.1c0.1-0.1,0.1-0.2,0.1-0.3
					c0-0.1,0-0.2-0.1-0.3l-2.5-6.2H55.7z"/>
				<path d="M3.4,58.8c-1,0-1.7-1-1.7-2.3c0-1.1,0.5-2.3,1.7-2.3c1.2,0,1.6,1.2,1.6,2.3C5.1,57.8,4.4,58.8,3.4,58.8L3.4,58.8z
					 M3.4,60c1.7,0,3.4-1.1,3.4-3.6c0-2-1.3-3.4-3.3-3.4c-2,0-3.5,1.4-3.5,3.6C0,58.7,1.5,60,3.4,60L3.4,60L3.4,60z"/>
				<path d="M8.4,59.8v-5.5H7.5v-1.3h0.9v-0.3c0-0.9,0.2-1.7,0.8-2.3c0.5-0.5,1.2-0.6,1.8-0.6c0.5,0,0.8,0.1,1.1,0.2l-0.1,1.3
					c-0.2-0.1-0.4-0.1-0.7-0.1c-0.8,0-1.1,0.7-1.1,1.5v0.4h1.5v1.3h-1.5v5.5L8.4,59.8L8.4,59.8z"/>
				<path d="M17.8,59.8l-3-9.3h1.9l1.3,4.2c0.4,1.2,0.7,2.3,0.9,3.4h0c0.2-1.1,0.6-2.2,0.9-3.4l1.4-4.3h1.8l-3.2,9.3L17.8,59.8
					L17.8,59.8z"/>
				<path d="M23.9,53.1h1.7v6.7h-1.7V53.1z M24.8,52.1c-0.6,0-1-0.4-1-1c0-0.5,0.4-1,1-1c0.6,0,1,0.4,1,1
					C25.8,51.7,25.4,52.1,24.8,52.1L24.8,52.1z"/>
				<path d="M32.4,59.6c-0.4,0.2-1.1,0.3-1.9,0.3c-2.1,0-3.5-1.4-3.5-3.4c0-2,1.4-3.6,3.7-3.6c0.6,0,1.3,0.1,1.6,0.3l-0.3,1.3
					c-0.3-0.1-0.7-0.3-1.3-0.3c-1.3,0-2.1,0.9-2.1,2.2c0,1.4,0.9,2.2,2.1,2.2c0.6,0,1-0.1,1.3-0.3L32.4,59.6z"/>
				<path d="M35.8,51.4v1.7h1.6v1.3h-1.6v3c0,0.8,0.2,1.2,0.9,1.2c0.3,0,0.5,0,0.7-0.1l0,1.3c-0.3,0.1-0.7,0.2-1.2,0.2
					c-0.6,0-1.1-0.2-1.5-0.6c-0.4-0.4-0.5-1-0.5-1.9v-3.2h-1v-1.3h1v-1.3L35.8,51.4z"/>
				<path d="M41.6,58.8c-1,0-1.7-1-1.7-2.3c0-1.1,0.5-2.3,1.7-2.3c1.2,0,1.6,1.2,1.6,2.3C43.3,57.8,42.6,58.8,41.6,58.8L41.6,58.8z
					 M41.6,60c1.7,0,3.4-1.1,3.4-3.6c0-2-1.3-3.4-3.3-3.4c-2,0-3.5,1.4-3.5,3.6C38.2,58.7,39.7,60,41.6,60L41.6,60L41.6,60z"/>
				<path d="M46.4,55.3c0-0.9,0-1.6-0.1-2.2h1.5l0.1,1.3h0c0.3-0.9,1.1-1.4,1.8-1.4c0.2,0,0.3,0,0.4,0v1.6c-0.2,0-0.3,0-0.5,0
					c-0.8,0-1.4,0.5-1.5,1.3c0,0.1,0,0.3,0,0.5v3.5h-1.7L46.4,55.3z"/>
				<path d="M51.4,53.1h1.7v6.7h-1.7V53.1z M52.2,52.1c-0.6,0-1-0.4-1-1c0-0.5,0.4-1,1-1c0.6,0,1,0.4,1,1
					C53.2,51.7,52.8,52.1,52.2,52.1L52.2,52.1z"/>
				<path d="M58.5,57.5c0,0.1,0,0.3,0,0.4c-0.2,0.5-0.7,0.9-1.3,0.9c-0.5,0-1-0.3-1-1c0-1,1.1-1.3,2.3-1.3V57.5z M60.1,55.8
					c0-1.5-0.6-2.8-2.8-2.8c-1.1,0-1.9,0.3-2.4,0.6l0.3,1.1c0.5-0.3,1.1-0.5,1.8-0.5c1.2,0,1.4,0.7,1.4,1.2v0.1c-2.5,0-4,0.9-4,2.5
					c0,1,0.8,2,2.1,2c0.9,0,1.6-0.4,2-0.9h0l0.1,0.7h1.5c-0.1-0.4-0.1-1-0.1-1.6L60.1,55.8L60.1,55.8z"/>
			</g>
		</g>
		<path d="M98.5,25.4V31H76.7V0.6h21.5v5.7H82.8v6.5H95v5.5H82.8v7.2L98.5,25.4L98.5,25.4z"/>
		<path d="M131.8,0.6V31h-5.7l-14.3-18.6l-0.6-1l0.1,1.2V31h-6.1V0.6h5.7L125.2,19l0.6,1.1l-0.1-1.2V0.6L131.8,0.6L131.8,0.6z"/>
		<path d="M162.2,27.9c-1.7,1.9-4.9,3.8-9.2,3.8c-8.7,0-15.8-6.7-15.8-15.8S144.2,0,152.9,0c6,0,11.1,3.2,13.8,8l-6.2,1.6
			c-1.7-2.3-4.7-3.7-7.7-3.7c-5.7,0-9.5,4.1-9.5,9.9c0,6,4.2,9.9,9.8,9.9c5.2,0,8-2.9,8.9-5.2v-1.3h-8.4v-5h13.6V31h-5.2L162.2,27.9
			L162.2,27.9z"/>
		<path d="M173.6,31V0.6h6V31H173.6z"/>
		<path d="M213.5,0.6V31h-5.7l-14.3-18.6l-0.6-1l0.1,1.2V31H187V0.6h5.7L206.9,19l0.6,1.1l-0.1-1.2V0.6L213.5,0.6L213.5,0.6z"/>
		<path d="M242.7,25.4V31h-21.8V0.6h21.5v5.7h-15.5v6.5h12.3v5.5h-12.3v7.2L242.7,25.4L242.7,25.4z"/>
		<path d="M271,25.4V31h-21.8V0.6h21.5v5.7h-15.5v6.5h12.3v5.5h-12.3v7.2L271,25.4L271,25.4z"/>
		<path d="M294.8,31l-6.4-10.4c0,0-0.1,0-0.2,0h-4.6V31h-6V0.6h10.6c7.5,0,12,3.9,12,10c0,4.2-2.1,7.3-5.8,8.9l7.1,11.5L294.8,31
			L294.8,31z M283.6,15h5.4c3.4,0,4.9-2,4.9-4.4s-1.6-4.3-4.9-4.3h-5.4V15z"/>
		<path d="M306.7,31V0.6h6V31H306.7z"/>
		<path d="M346.6,0.6V31h-5.7l-14.3-18.6l-0.6-1l0.1,1.2V31H320V0.6h5.7L340,19l0.6,1.1l-0.1-1.2V0.6L346.6,0.6L346.6,0.6z"/>
		<path d="M377,27.9c-1.6,1.9-4.9,3.8-9.2,3.8C359,31.7,352,25,352,15.8S359,0,367.8,0c6,0,11.1,3.2,13.8,8l-6.2,1.6
			c-1.7-2.3-4.7-3.7-7.7-3.7c-5.7,0-9.5,4.1-9.5,9.9c0,6,4.2,9.9,9.8,9.9c5.2,0,8-2.9,8.9-5.2v-1.3h-8.4v-5h13.6V31H377L377,27.9
			L377,27.9z"/>
		<path d="M88.7,43.2c-0.5-3.1-3.1-5-6.4-5c-3.5,0-6.1,1.6-6.1,4.6c0,2.9,3.3,3.7,6.5,4.5c3,0.8,7.6,1.9,7.6,6.5
			c0,3.6-3.1,6.2-7.8,6.2c-4.8,0-7.6-2.9-7.9-6.4l1.2-0.3c0.2,3.1,2.6,5.6,6.8,5.6c4,0,6.5-2.1,6.5-5.1c0-3.9-4.7-4.8-7.7-5.6
			c-2.6-0.7-6.4-1.7-6.4-5.4c0-3.4,3.1-5.7,7.4-5.7c3.9,0,6.9,2.2,7.5,5.8L88.7,43.2z"/>
		<path d="M108.6,37.5v1.2h-7.7v20.9h-1.3V38.7h-7.7v-1.2H108.6z"/>
		<path d="M129.7,37.5v13.2c0,5.7-3,9.3-8.9,9.3c-5.8,0-8.9-3.6-8.9-9.3V37.5h1.3v13.3c0,5,2.6,8,7.6,8c5.1,0,7.6-3.1,7.6-8V37.5
			H129.7z"/>
		<path d="M144.2,37.5c6.3,0,11.4,4.5,11.4,11.1c0,6.5-5,10.9-11.1,10.9h-9.4v-22L144.2,37.5L144.2,37.5z M144.5,58.4
			c5.3,0,9.9-3.7,9.9-9.7c0-6.1-4.5-10-10.2-10h-7.9v19.7H144.5z"/>
		<path d="M174.6,58.4v1.2h-14.3v-22h14.1v1.2h-12.8v8.4H172v1.2h-10.4v10.1H174.6z"/>
		<path d="M197.3,37.5v22h-1.2l-14.5-19.4l-0.4-0.6l0.1,0.9v19H180v-22h1.2l14.5,19.3l0.4,0.7l-0.1-1v-19L197.3,37.5L197.3,37.5z"/>
		<path d="M218.5,37.5v1.2h-7.7v20.9h-1.3V38.7h-7.7v-1.2H218.5z"/>
		<path d="M234.3,43.2c-0.5-3.1-3.1-5-6.4-5c-3.5,0-6.1,1.6-6.1,4.6c0,2.9,3.3,3.7,6.5,4.5c3,0.8,7.6,1.9,7.6,6.5
			c0,3.6-3.1,6.2-7.8,6.2c-4.8,0-7.6-2.9-7.9-6.4l1.2-0.3c0.2,3.1,2.6,5.6,6.8,5.6c4,0,6.5-2.1,6.5-5.1c0-3.9-4.7-4.8-7.6-5.6
			c-2.6-0.7-6.4-1.7-6.4-5.4c0-3.4,3.1-5.7,7.4-5.7c3.9,0,6.9,2.2,7.5,5.8L234.3,43.2z"/>
		<path d="M265.3,43.2c-0.5-3.1-3.1-5-6.4-5c-3.5,0-6.1,1.6-6.1,4.6c0,2.9,3.3,3.7,6.5,4.5c3,0.8,7.6,1.9,7.6,6.5
			c0,3.6-3.1,6.2-7.8,6.2c-4.8,0-7.6-2.9-7.9-6.4l1.2-0.3c0.2,3.1,2.6,5.6,6.8,5.6c4,0,6.5-2.1,6.5-5.1c0-3.9-4.7-4.8-7.6-5.6
			c-2.6-0.7-6.4-1.7-6.4-5.4c0-3.4,3.1-5.7,7.4-5.7c3.9,0,6.9,2.2,7.5,5.8L265.3,43.2z"/>
		<path d="M281.2,37.1c6.3,0,11.5,4.8,11.5,11.5c0,6.6-5.1,11.5-11.5,11.5c-6.3,0-11.4-4.8-11.4-11.5
			C269.8,41.9,274.9,37.1,281.2,37.1z M281.2,58.8c5.7,0,10.2-4.2,10.2-10.3c0-6.2-4.5-10.3-10.2-10.3c-5.7,0-10.2,4.1-10.2,10.3
			C271,54.6,275.5,58.8,281.2,58.8z"/>
		<path d="M316.3,43.1c-1.7-3-4.9-4.9-8.7-4.9c-5.7,0-10.2,4.1-10.2,10.3c0,6.1,4.5,10.3,10.2,10.3c4,0,7.5-2.2,9.1-5.5l1.2,0.3
			c-1.9,3.9-5.7,6.4-10.3,6.4c-6.3,0-11.4-4.8-11.4-11.5c0-6.6,5.1-11.5,11.4-11.5c4.3,0,8,2.2,10,5.7L316.3,43.1z"/>
		<path d="M321.7,59.5v-22h1.3v22H321.7z"/>
		<path d="M343.5,58.4v1.2h-14.3v-22h14.1v1.2h-12.8v8.4H341v1.2h-10.4v10.1H343.5z"/>
		<path d="M363,37.5v1.2h-7.7v20.9H354V38.7h-7.7v-1.2H363z"/>
		<path d="M384.1,37.5l-8.9,10.7v11.3H374V48.2l-8.9-10.7h1.5l7.6,9.2l0.4,0.6l0.4-0.6l7.6-9.2H384.1z"/>
		<path d="M238.8,37.5l-0.9,2.5h-0.8l0.3-2.5H238.8z"/>
	</g>
</g>
</svg>
