<?xml version="1.0" encoding="utf-8"?>
<!-- Generator: Adobe Illustrator 26.4.0, SVG Export Plug-In . SVG Version: 6.00 Build 0)  -->
<svg version="1.1" id="Layer_1" xmlns="http://www.w3.org/2000/svg" xmlns:xlink="http://www.w3.org/1999/xlink" x="0px" y="0px"
	 viewBox="0 0 2335 365.4" style="enable-background:new 0 0 2335 365.4;" xml:space="preserve">
<g id="Background">
</g>
<g id="Content">
	<g>
		<g>
			<g>
				<path d="M210.3,83.3c1.2,0.6,8.5,7.3,18.2,3.6c0,9.7-1.2,49.8-1.2,51.7c-6.7,2.4-13.4-2.4-13.4-2.4c-15.2-10.3-23.7-7.3-28-4.3
					V84.5C187.2,82.7,195.1,74.2,210.3,83.3"/>
				<path d="M158.7,83.3c15.2-9.1,23.1-0.6,24.3,1.2v47.4c-3.6-3-12.8-6.1-28,4.3c0,0-6.7,4.9-13.4,2.4c0-1.8-0.6-41.9-1.2-51.7
					C150.2,90.6,157.4,83.9,158.7,83.3"/>
				<path d="M181.2,142.3c-9.7,11.6-43.2,7.3-49.2,6.7c0-2.4-2.4-51.1-2.4-52.9c3.6-1.8,6.7-4.3,8.5-6.7l1.2,51.7l0.6,0.6
					c8.5,3.6,17-2.4,17-2.4c13.4-9.1,20.7-6.7,24.3-4.3c1.8,1.2,2.4,2.4,2.4,2.4S183,139.8,181.2,142.3"/>
				<path d="M237.1,148.9c-6.1,1.2-39.5,4.9-49.2-6.7c-1.8-2.4-2.4-5.5-2.4-5.5s1.2-1.8,2.4-2.4c3.6-2.4,10.9-4.3,24.3,4.3
					c0.6,0,8.5,6.1,17,2.4l0.6-0.6l1.2-51.7c1.8,2.4,4.9,4.9,8.5,6.7C239.5,97.3,237.1,146.5,237.1,148.9"/>
				<path d="M193.9,150.2c-4.9-2.4-7.9-4.9-9.7-7.3l0,0c-1.8,3-5.5,5.5-9.7,7.3c1.8,2.4,4.9,4.3,9.7,4.3l0,0
					C189.7,154.4,192.7,152.6,193.9,150.2"/>
				<path d="M125.2,20.7c1.2,0,1.2-0.6,1.8-0.6l0.6-0.6l-1.2-1.2c-0.6-0.6-1.8-0.6-2.4-0.6s-1.2,0.6-1.2,0.6v0.6l0.6,0.6
					C124,20.1,124.6,20.7,125.2,20.7"/>
				<path d="M213.4,20.7c1.2,0,1.8-0.6,1.8-0.6l0.6-0.6l-0.6-1.2c-0.6-0.6-1.8-0.6-2.4-0.6c-0.6,0-1.2,0.6-1.2,0.6v0.6l0.6,0.6
					C212.8,20.1,213.4,20.7,213.4,20.7"/>
				<path d="M169.6,20.7c1.2,0,1.2-0.6,1.8-0.6l0.6-0.6l-1.2-1.2c-0.6-0.6-1.8-0.6-2.4-0.6c-0.6,0-1.2,0.6-1.2,0.6v0.6l0.6,0.6
					C168.4,20.1,169,20.7,169.6,20.7"/>
				<path d="M260.2,0H105.8v71.1l0,0v15.2v1.2V90v1.2v10.3v2.4c0,0.6,0,0.6,0,1.2c0,4.3,0.6,7.9,1.2,11.6c0,1.2,0.6,2.4,0.6,3.6
					c0.6,3,1.2,6.1,2.4,9.1c0,0.6,0.6,1.8,0.6,2.4c0.6,1.2,0.6,2.4,1.2,3.6c0.6,1.8,1.8,3.6,2.4,5.5c0.6,1.2,1.2,2.4,1.8,3.6
					c0.6,0.6,0.6,1.8,1.2,2.4c0.6,1.2,1.2,2.4,1.8,3.6c1.8,3,4.3,6.1,6.1,9.1c0.6,1.2,1.8,1.8,2.4,3c0,0,0,0,0.6,0.6
					c0.6,1.2,1.8,1.8,2.4,3c4.3,4.3,8.5,8.5,12.8,11.6c0,0,0.6,0,0.6,0.6c1.2,1.2,3,1.8,4.3,3c0,0,0.6,0,0.6,0.6
					c5.5,3.6,10.3,6.1,15.2,8.5c3,1.2,6.1,2.4,9.1,3c3.6,0.6,7.3,1.2,10.3,1.2c3,0,6.7-0.6,10.3-1.2c3-0.6,6.1-1.8,9.1-3
					c4.9-1.8,10.3-4.9,15.2-8.5c0,0,0.6,0,0.6-0.6c1.2-1.2,3-1.8,4.3-3c0,0,0.6,0,0.6-0.6c4.3-3.6,8.5-7.3,12.8-11.6
					c0.6-0.6,1.8-1.8,2.4-3c0,0,0,0,0.6-0.6c0.6-1.2,1.8-1.8,2.4-3c2.4-3,4.3-6.1,6.1-9.1c0.6-1.2,1.2-2.4,1.8-3.6
					c0.6-0.6,1.2-1.8,1.2-2.4c0.6-1.2,1.2-2.4,1.8-3.6c0.6-1.8,1.8-3.6,2.4-5.5c0.6-1.2,0.6-2.4,1.2-3.6c0.6-1.2,0.6-2.4,1.2-3.6
					c0.6-2.4,1.2-5.5,1.8-7.9c0-1.2,0.6-2.4,0.6-3.6c0.6-3.6,0.6-7.9,1.2-11.6c0-0.6,0-0.6,0-1.2v-2.4V91.2v-0.6v-2.4v-1.2V71.7l0,0
					V0H260.2 M215.2,14c3,0,7.3,1.2,7.9,9.7c1.8,2.4,4.3,4.3,7.3,6.1c5.5,0.6,11.6,1.2,17.6,0.6c-0.6,1.8-7.3,6.1-6.7,6.7
					c3,1.8,10.3,3.6,10.3,3.6s-5.5,1.8-9.7,1.8l0,0c-15.8,0-21.9-5.5-22.5-8.5c-0.6-1.8,0.6-3,3-3.6c1.8,0,1.2-2.4-0.6-2.4
					c-3.6,0.6-5.5,3-4.9,6.1c0.6,5.5,8.5,11.6,26.7,10.9c4.3,1.2,6.7,1.2,9.1,1.2c-3,3.6-6.1,4.9-7.9,6.1c0.6,3.6,0.6,7.9,0.6,9.7
					c-3-4.9-10.9-12.2-14-14c0,4.9,1.2,10.9,3,12.8c-4.3-1.2-6.1-2.4-7.9-4.9c-1.2,1.2-4.3,4.9-7.9,3.6c2.4-4.3,3.6-8.5,3.6-14
					c-3.6-0.6-9.7-4.3-9.7-17c0-5.5-3.6-6.7-5.5-9.1C209.1,17.6,212.2,14,215.2,14 M171.4,14c3,0,7.3,1.2,7.9,9.7
					c1.8,2.4,4.3,4.3,7.3,6.1c5.5,0.6,11.6,1.2,17.6,0.6c-0.6,1.8-7.3,6.1-6.7,6.7c3,1.8,10.3,3.6,10.3,3.6s-5.5,1.8-10.3,1.8l0,0
					c-15.8,0-21.9-5.5-22.5-8.5c0-1.8,0.6-3,3-3.6c1.8,0,1.2-2.4-0.6-2.4c-3.6,0.6-5.5,3-4.9,6.1c0.6,5.5,8.5,11.6,26.7,10.9
					c4.3,1.2,6.7,1.2,9.1,1.2c-3,3.6-6.1,4.9-7.9,6.1c0.6,3.6,0.6,7.9,0.6,9.7c-3-4.9-10.9-12.2-14-14c0,4.9,1.2,10.9,3,12.8
					c-4.3-1.2-6.1-2.4-7.9-4.9c-1.2,1.2-4.3,4.9-7.9,3.6c2.4-4.3,3.6-8.5,3.6-14c-3.6-0.6-9.7-4.3-9.7-17c0-5.5-3.6-6.7-5.5-9.1
					C164.7,17.6,168.4,14,171.4,14 M127.1,14c3,0,7.3,1.2,7.9,9.7c1.8,2.4,4.3,4.3,7.3,6.1c5.5,0.6,11.6,1.2,17.6,0.6
					c-0.6,1.8-7.3,6.1-6.7,6.7c3,1.8,10.3,3.6,10.3,3.6s-5.5,1.8-10.3,1.8l0,0c-15.8,0-21.9-5.5-22.5-8.5c-0.6-1.8,0.6-3,3-3.6
					c1.8,0,1.2-2.4-0.6-2.4c-3.6,0.6-5.5,3-4.9,6.1c0.6,5.5,8.5,11.6,26.7,10.9c4.3,1.2,6.7,1.2,9.1,1.2c-3,3.6-6.1,4.9-7.9,6.1
					c0.6,3.6,0.6,7.9,0.6,9.7c-3-4.9-10.9-12.2-14-14c0,4.9,1.2,10.9,3,12.8c-4.3-1.2-6.1-2.4-7.9-4.9c-1.2,1.2-4.3,4.9-7.9,3.6
					c2.4-4.3,3.6-8.5,3.6-14c-3.6-0.6-9.7-4.3-9.7-17c0-5.5-3.6-6.7-5.5-9.1C120.4,17.6,124,14,127.1,14 M187.2,189.1
					c-0.6,0-1.8,0-2.4,0c-0.6,0-1.8,0-2.4,0c-7.3-0.6-15.8-3.6-24.3-8.5h53.5C202.4,185.4,193.9,188.5,187.2,189.1 M231.6,165.4
					c-4.3,4.3-9.1,8.5-14,11.6c0,0-0.6,0-0.6,0.6h-65.7c0,0-0.6,0-0.6-0.6c-4.9-3-9.7-7.3-14.6-11.6c-1.2-0.6-1.8-1.8-2.4-3H234
					C233.4,163.5,232.2,164.1,231.6,165.4 M257.8,85.7h-26.1c0.6,1.2,1.8,2.4,3,3.6h22.5c0,0.6,0,14.6,0,15.2h-15.8v3.6h15.8
					c0,3-0.6,6.1-0.6,9.1c0,1.2-0.6,2.4-0.6,3.6c0,0.6-0.6,1.8-0.6,2.4h-14.6v3.6h14c-0.6,1.8-1.2,3.6-1.8,5.5
					c-0.6,1.2-0.6,2.4-1.2,3.6c-0.6,1.8-1.8,3.6-2.4,5.5h-8.5v3.6h7.3c-0.6,0.6-1.2,1.8-1.2,2.4c-0.6,1.2-1.2,2.4-2.4,3.6
					c-1.8,3-4.3,6.1-6.7,9.1H131.3c-2.4-3-4.9-6.1-6.7-9.1c-0.6-1.2-1.2-2.4-2.4-3.6c-0.6-1.8-0.6-3-1.2-3.6h7.9v-3.6h-9.1
					c-1.2-1.8-1.8-3.6-2.4-5.5c-1.2-1.2-1.8-2.4-1.8-3.6c-0.6-1.8-1.2-3.6-1.8-5.5h14v-3.6h-15.2c0-0.6-0.6-1.8-0.6-2.4
					c0-1.2-0.6-2.4-0.6-3.6c-0.6-3-0.6-6.1-0.6-9.1h16.4v-3.6h-16.4l0,0v-2.4v-9.7v-1.8h23.1c1.2-1.2,2.4-2.4,3-3.6h-26.1v-17h147.7
					v17H257.8z"/>
			</g>
			<g>
				<path d="M13.4,225.5v32.8c0,10.9,4.9,16.4,11.6,16.4c7.3,0,12.2-4.9,12.2-16.4v-32.8h10.3v32.2c0,17.6-9.1,24.9-22.5,24.9
					c-12.8,0-21.3-7.3-21.3-24.9v-32.2H13.4z"/>
				<path d="M58.4,253.5c0-4.9,0-8.5-0.6-12.2h9.1l0.6,6.1l0,0c1.8-3,6.1-7.3,12.8-7.3c7.3,0,14.6,4.9,14.6,17.6v24.3h-9.7V259
					c0-6.1-2.4-10.3-7.9-10.3c-4.3,0-6.7,3-7.9,6.1c-0.6,0.6-0.6,1.8-0.6,3v24.3H58.4V253.5L58.4,253.5z"/>
				<path d="M106.4,241.3h10.3v40.7h-10.3V241.3z M111.2,235.3c-3.6,0-6.1-2.4-6.1-6.1c0-3,2.4-6.1,6.1-6.1c3.6,0,6.1,2.4,6.1,6.1
					C117.9,232.8,115.5,235.3,111.2,235.3L111.2,235.3z"/>
				<path d="M134.3,241.3L141,262c1.2,3.6,1.8,6.7,3,10.3l0,0c0.6-3.6,1.8-6.7,3-10.3l6.7-20.7h10.3l-15.8,40.7H138l-15.2-40.7
					H134.3z"/>
				<path d="M176.3,257.8c0.6-4.3,3-9.7,9.7-9.7s8.5,6.1,8.5,9.7H176.3z M203.7,265.1c0-1.2,0.6-2.4,0.6-4.3
					c0-9.1-4.3-20.1-17.6-20.1c-13.4,0-20.1,10.9-20.1,21.9c0,12.8,7.9,20.7,21.3,20.7c6.1,0,10.9-1.2,14-2.4l-1.2-7.3
					c-3,1.2-6.7,1.8-11.6,1.8c-6.7,0-12.2-3-12.8-10.3H203.7z"/>
				<path d="M212.8,254.7c0-5.5,0-9.7-0.6-13.4h9.1l0.6,7.9l0,0c1.8-5.5,6.7-8.5,10.9-8.5c1.2,0,1.8,0,2.4,0v9.7c-1.2,0-1.8,0-3,0
					c-4.9,0-8.5,3-9.1,7.9c0,0.6,0,1.8,0,3v21.3h-10.3V254.7z"/>
				<path d="M241.9,273c2.4,1.2,6.7,3,10.3,3c4.3,0,6.7-1.8,6.7-4.9c0-3-1.8-4.3-6.7-6.1c-7.9-3-11.6-7.3-11.6-12.2
					c0-7.3,6.1-12.8,15.2-12.8c4.3,0,8.5,1.2,10.9,2.4l-1.8,7.3c-1.8-1.2-4.9-2.4-8.5-2.4s-5.5,1.8-5.5,4.3c0,2.4,1.8,3.6,7.3,5.5
					c7.3,2.4,10.9,6.7,10.9,12.2c0,7.3-6.1,12.8-16.4,12.8c-4.9,0-9.7-1.2-12.2-3L241.9,273z"/>
				<path d="M277.2,241.3h10.3v40.7h-10.3V241.3z M282.7,235.3c-3.6,0-6.1-2.4-6.1-6.1c0-3,2.4-6.1,6.1-6.1c3.6,0,6.1,2.4,6.1,6.1
					S286.3,235.3,282.7,235.3L282.7,235.3z"/>
				<path d="M312.5,231v10.3h9.7v7.9h-9.7v18.2c0,4.9,1.2,7.3,5.5,7.3c1.8,0,3,0,4.3-0.6v7.9c-1.8,0.6-4.3,1.2-7.3,1.2
					c-3.6,0-6.7-1.2-9.1-3.6c-2.4-2.4-3-6.1-3-11.6v-18.8h-6.1v-7.9h6.1v-7.9L312.5,231z"/>
				<path d="M338.6,241.3l7.3,21.9c0.6,2.4,1.8,5.5,2.4,7.9l0,0c0.6-2.4,1.2-5.5,2.4-7.9l6.7-21.9h10.9l-10.3,28
					c-5.5,15.2-9.1,21.9-14,26.1c-4.3,3.6-8.5,4.9-10.9,5.5l-2.4-8.5c1.8-0.6,3.6-1.2,6.1-3c1.8-1.2,4.3-3.6,5.5-6.7
					c0.6-0.6,0.6-1.2,0.6-1.8c0-0.6,0-1.2-0.6-1.8l-15.2-37.7H338.6z"/>
				<path d="M20.7,357.5c-6.1,0-10.3-6.1-10.3-14c0-6.7,3-14,10.3-14s9.7,7.3,9.7,14C31,351.4,26.7,357.5,20.7,357.5L20.7,357.5z
					 M20.7,364.7c10.3,0,20.7-6.7,20.7-21.9c0-12.2-7.9-20.7-20.1-20.7S0,330.7,0,344.1C0,356.8,9.1,364.7,20.7,364.7L20.7,364.7
					L20.7,364.7z"/>
				<path d="M51.1,363.5v-33.4h-5.5v-7.9h5.5v-1.8c0-5.5,1.2-10.3,4.9-14c3-3,7.3-3.6,10.9-3.6c3,0,4.9,0.6,6.7,1.2l-0.6,7.9
					c-1.2-0.6-2.4-0.6-4.3-0.6c-4.9,0-6.7,4.3-6.7,9.1v2.4h9.1v7.9H62v33.4L51.1,363.5L51.1,363.5z"/>
				<path d="M108.2,363.5L90,307h11.6l7.9,25.5c2.4,7.3,4.3,14,5.5,20.7l0,0c1.2-6.7,3.6-13.4,5.5-20.7l8.5-26.1h10.9l-19.5,56.5
					L108.2,363.5L108.2,363.5z"/>
				<path d="M145.3,322.8h10.3v40.7h-10.3V322.8z M150.8,316.7c-3.6,0-6.1-2.4-6.1-6.1c0-3,2.4-6.1,6.1-6.1s6.1,2.4,6.1,6.1
					S154.4,316.7,150.8,316.7L150.8,316.7z"/>
				<path d="M197,362.3c-2.4,1.2-6.7,1.8-11.6,1.8c-12.8,0-21.3-8.5-21.3-20.7c0-12.2,8.5-21.9,22.5-21.9c3.6,0,7.9,0.6,9.7,1.8
					l-1.8,7.9c-1.8-0.6-4.3-1.8-7.9-1.8c-7.9,0-12.8,5.5-12.8,13.4c0,8.5,5.5,13.4,12.8,13.4c3.6,0,6.1-0.6,7.9-1.8L197,362.3z"/>
				<path d="M217.6,312.5v10.3h9.7v7.9h-9.7v18.2c0,4.9,1.2,7.3,5.5,7.3c1.8,0,3,0,4.3-0.6v7.9c-1.8,0.6-4.3,1.2-7.3,1.2
					c-3.6,0-6.7-1.2-9.1-3.6c-2.4-2.4-3-6.1-3-11.6v-19.5h-6.1v-7.9h6.1v-7.9L217.6,312.5z"/>
				<path d="M252.9,357.5c-6.1,0-10.3-6.1-10.3-14c0-6.7,3-14,10.3-14c7.3,0,9.7,7.3,9.7,14C263.2,351.4,259,357.5,252.9,357.5
					L252.9,357.5z M252.9,364.7c10.3,0,20.7-6.7,20.7-21.9c0-12.2-7.9-20.7-20.1-20.7s-21.3,8.5-21.3,21.9
					C232.2,356.8,241.3,364.7,252.9,364.7L252.9,364.7L252.9,364.7z"/>
				<path d="M282.1,336.2c0-5.5,0-9.7-0.6-13.4h9.1l0.6,7.9l0,0c1.8-5.5,6.7-8.5,10.9-8.5c1.2,0,1.8,0,2.4,0v9.7c-1.2,0-1.8,0-3,0
					c-4.9,0-8.5,3-9.1,7.9c0,0.6,0,1.8,0,3v21.3h-10.3V336.2z"/>
				<path d="M312.5,322.8h10.3v40.7h-10.3V322.8z M317.3,316.7c-3.6,0-6.1-2.4-6.1-6.1c0-3,2.4-6.1,6.1-6.1s6.1,2.4,6.1,6.1
					S321,316.7,317.3,316.7L317.3,316.7z"/>
				<path d="M355.6,349.6c0,0.6,0,1.8,0,2.4c-1.2,3-4.3,5.5-7.9,5.5c-3,0-6.1-1.8-6.1-6.1c0-6.1,6.7-7.9,14-7.9V349.6z M365.4,339.2
					c0-9.1-3.6-17-17-17c-6.7,0-11.6,1.8-14.6,3.6l1.8,6.7c3-1.8,6.7-3,10.9-3c7.3,0,8.5,4.3,8.5,7.3v0.6
					c-15.2,0-24.3,5.5-24.3,15.2c0,6.1,4.9,12.2,12.8,12.2c5.5,0,9.7-2.4,12.2-5.5l0,0l0.6,4.3h9.1c-0.6-2.4-0.6-6.1-0.6-9.7
					L365.4,339.2L365.4,339.2z"/>
			</g>
		</g>
		<path d="M598.8,154.4v34H466.3V3.6H597v34.7h-93.6v39.5h74.2v33.4h-74.2V155L598.8,154.4L598.8,154.4z"/>
		<path d="M801.2,3.6v184.8h-34.7L679.6,75.4l-3.6-6.1l0.6,7.3v111.9h-37.1V3.6h34.7l86.9,111.9l3.6,6.7l-0.6-7.3V3.6H801.2
			L801.2,3.6z"/>
		<path d="M986,169.6c-10.3,11.6-29.8,23.1-55.9,23.1c-52.9,0-96.1-40.7-96.1-96.1S876.6,0,929.5,0c36.5,0,67.5,19.5,83.9,48.6
			l-37.7,9.7c-10.3-14-28.6-22.5-46.8-22.5c-34.7,0-57.8,24.9-57.8,60.2c0,36.5,25.5,60.2,59.6,60.2c31.6,0,48.6-17.6,54.1-31.6
			v-7.9h-51.1V86.3h82.7v102.1h-31.6L986,169.6L986,169.6z"/>
		<path d="M1055.3,188.5V3.6h36.5v184.8H1055.3z"/>
		<path d="M1297.9,3.6v184.8h-34.7l-86.9-113.1l-3.6-6.1l0.6,7.3v111.9h-36.5V3.6h34.7l86.3,111.9l3.6,6.7l-0.6-7.3V3.6H1297.9
			L1297.9,3.6z"/>
		<path d="M1475.4,154.4v34h-132.5V3.6h130.7v34.7h-94.2v39.5h74.8v33.4h-74.8V155L1475.4,154.4L1475.4,154.4z"/>
		<path d="M1647.4,154.4v34h-132.5V3.6h130.7v34.7h-94.2v39.5h74.8v33.4h-74.8V155L1647.4,154.4L1647.4,154.4z"/>
		<path d="M1792.1,188.5l-38.9-63.2c0,0-0.6,0-1.2,0h-28v63.2h-36.5V3.6h64.4c45.6,0,72.9,23.7,72.9,60.8
			c0,25.5-12.8,44.4-35.3,54.1l43.2,69.9H1792.1L1792.1,188.5z M1724,91.2h32.8c20.7,0,29.8-12.2,29.8-26.7s-9.7-26.1-29.8-26.1
			H1724V91.2z"/>
		<path d="M1864.5,188.5V3.6h36.5v184.8H1864.5z"/>
		<path d="M2107,3.6v184.8h-34.7l-86.9-113.1l-3.6-6.1l0.6,7.3v111.9h-37.1V3.6h34.7l86.9,111.9l3.6,6.7l-0.6-7.3V3.6H2107L2107,3.6
			z"/>
		<path d="M2291.8,169.6c-9.7,11.6-29.8,23.1-55.9,23.1c-53.5,0-96.1-40.7-96.1-96.7S2182.4,0,2235.9,0c36.5,0,67.5,19.5,83.9,48.6
			l-37.7,9.7c-10.3-14-28.6-22.5-46.8-22.5c-34.7,0-57.8,24.9-57.8,60.2c0,36.5,25.5,60.2,59.6,60.2c31.6,0,48.6-17.6,54.1-31.6
			v-7.9h-51.1V86.3h82.7v102.1h-31V169.6L2291.8,169.6z"/>
		<path d="M539.2,262.6c-3-18.8-18.8-30.4-38.9-30.4c-21.3,0-37.1,9.7-37.1,28c0,17.6,20.1,22.5,39.5,27.4
			c18.2,4.9,46.2,11.6,46.2,39.5c0,21.9-18.8,37.7-47.4,37.7c-29.2,0-46.2-17.6-48-38.9l7.3-1.8c1.2,18.8,15.8,34,41.3,34
			c24.3,0,39.5-12.8,39.5-31c0-23.7-28.6-29.2-46.8-34c-15.8-4.3-38.9-10.3-38.9-32.8c0-20.7,18.8-34.7,45-34.7
			c23.7,0,41.9,13.4,45.6,35.3L539.2,262.6z"/>
		<path d="M660.2,228v7.3h-46.8v127.1h-7.9V235.3h-46.8V228H660.2z"/>
		<path d="M788.5,228v80.2c0,34.7-18.2,56.5-54.1,56.5c-35.3,0-54.1-21.9-54.1-56.5V228h7.9v80.9c0,30.4,15.8,48.6,46.2,48.6
			c31,0,46.2-18.8,46.2-48.6V228H788.5z"/>
		<path d="M876.6,228c38.3,0,69.3,27.4,69.3,67.5c0,39.5-30.4,66.3-67.5,66.3h-57.1V228H876.6L876.6,228z M878.4,355
			c32.2,0,60.2-22.5,60.2-59c0-37.1-27.4-60.8-62-60.8h-48V355H878.4z"/>
		<path d="M1061.4,355v7.3h-86.9V228.6h85.7v7.3h-77.8v51.1h63.2v7.3h-63.2v61.4h79V355z"/>
		<path d="M1199.4,228v133.7h-7.3L1104,243.8l-2.4-3.6l0.6,5.5v115.5h-7.9V227.4h7.3l88.1,117.3l2.4,4.3l-0.6-6.1V227.4L1199.4,228
			L1199.4,228z"/>
		<path d="M1328.3,228v7.3h-46.8v127.1h-7.9V235.3h-46.8V228H1328.3z"/>
		<path d="M1424.3,262.6c-3-18.8-18.8-30.4-38.9-30.4c-21.3,0-37.1,9.7-37.1,28c0,17.6,20.1,22.5,39.5,27.4
			c18.2,4.9,46.2,11.6,46.2,39.5c0,21.9-18.8,37.7-47.4,37.7c-29.2,0-46.2-17.6-48-38.9l7.3-1.8c1.2,18.8,15.8,34,41.3,34
			c24.3,0,39.5-12.8,39.5-31c0-23.7-28.6-29.2-46.2-34c-15.8-4.3-38.9-10.3-38.9-32.8c0-20.7,18.8-34.7,45-34.7
			c23.7,0,41.9,13.4,45.6,35.3L1424.3,262.6z"/>
		<path d="M1612.8,262.6c-3-18.8-18.8-30.4-38.9-30.4c-21.3,0-37.1,9.7-37.1,28c0,17.6,20.1,22.5,39.5,27.4
			c18.2,4.9,46.2,11.6,46.2,39.5c0,21.9-18.8,37.7-47.4,37.7c-29.2,0-46.2-17.6-48-38.9l7.3-1.8c1.2,18.8,15.8,34,41.3,34
			c24.3,0,39.5-12.8,39.5-31c0-23.7-28.6-29.2-46.2-34c-15.8-4.3-38.9-10.3-38.9-32.8c0-20.7,18.8-34.7,45-34.7
			c23.7,0,41.9,13.4,45.6,35.3L1612.8,262.6z"/>
		<path d="M1709.5,225.5c38.3,0,69.9,29.2,69.9,69.9c0,40.1-31,69.9-69.9,69.9c-38.3,0-69.3-29.2-69.3-69.9
			C1640.2,254.7,1671.2,225.5,1709.5,225.5z M1709.5,357.5c34.7,0,62-25.5,62-62.6c0-37.7-27.4-62.6-62-62.6s-62,24.9-62,62.6
			C1647.4,331.9,1674.8,357.5,1709.5,357.5z"/>
		<path d="M1922.8,262c-10.3-18.2-29.8-29.8-52.9-29.8c-34.7,0-62,24.9-62,62.6c0,37.1,27.4,62.6,62,62.6
			c24.3,0,45.6-13.4,55.3-33.4l7.3,1.8c-11.6,23.7-34.7,38.9-62.6,38.9c-38.3,0-69.3-29.2-69.3-69.9c0-40.1,31-69.9,69.3-69.9
			c26.1,0,48.6,13.4,60.8,34.7L1922.8,262z"/>
		<path d="M1955.7,361.7V228h7.9v133.7H1955.7z"/>
		<path d="M2088.2,355v7.3h-86.9V228.6h85.7v7.3h-77.8v51.1h63.8v7.3h-63.2v61.4h78.4V355z"/>
		<path d="M2206.7,228v7.3h-46.8v127.1h-7.9V235.3h-46.8V228H2206.7z"/>
		<path d="M2335,228l-54.1,65v68.7h-7.3V293l-54.1-65h9.1l46.2,55.9l2.4,3.6l2.4-3.6l46.2-55.9H2335z"/>
		<path d="M1451.7,228l-5.5,15.2h-4.9l1.8-15.2H1451.7z"/>
	</g>
</g>
</svg>
