<?xml version="1.0" encoding="utf-8"?>
<!-- Generator: Adobe Illustrator 26.4.0, SVG Export Plug-In . SVG Version: 6.00 Build 0)  -->
<svg version="1.1" id="Layer_1" xmlns="http://www.w3.org/2000/svg" xmlns:xlink="http://www.w3.org/1999/xlink" x="0px" y="0px"
	 viewBox="0 0 309.6 60" style="enable-background:new 0 0 309.6 60;" xml:space="preserve">
<g id="Background">
</g>
<g id="Content">
	<g>
		<path d="M24,25.4V31H2.2V0.6h21.5v5.7H8.2v6.5h12.3v5.5H8.2v7.2L24,25.4L24,25.4z"/>
		<path d="M57.2,0.6V31h-5.7L37.3,12.4l-0.6-1l0.1,1.2V31h-6.1V0.6h5.7L50.6,19l0.6,1.1l-0.1-1.2V0.6L57.2,0.6L57.2,0.6z"/>
		<path d="M87.6,27.9c-1.6,1.9-4.9,3.8-9.2,3.8c-8.7,0-15.8-6.7-15.8-15.8S69.7,0,78.4,0c6,0,11.1,3.2,13.8,8l-6.2,1.6
			C84.4,7.4,81.4,6,78.4,6c-5.7,0-9.5,4.1-9.5,9.9c0,6,4.2,9.9,9.8,9.9c5.2,0,8-2.9,8.9-5.2v-1.3h-8.4v-5h13.6V31h-5.2L87.6,27.9
			L87.6,27.9z"/>
		<path d="M99,31V0.6h6V31H99z"/>
		<path d="M139,0.6V31h-5.7L119,12.4l-0.6-1l0.1,1.2V31h-6.1V0.6h5.7L132.4,19l0.6,1.1l-0.1-1.2V0.6L139,0.6L139,0.6z"/>
		<path d="M168.1,25.4V31h-21.8V0.6h21.5v5.7h-15.5v6.5h12.3v5.5h-12.3v7.2L168.1,25.4L168.1,25.4z"/>
		<path d="M196.5,25.4V31h-21.8V0.6h21.5v5.7h-15.5v6.5H193v5.5h-12.3v7.2L196.5,25.4L196.5,25.4z"/>
		<path d="M220.3,31l-6.4-10.4c0,0-0.1,0-0.2,0h-4.6V31h-6V0.6h10.6c7.5,0,12,3.9,12,10c0,4.2-2.1,7.3-5.8,8.9L227,31L220.3,31
			L220.3,31z M209.1,15h5.4c3.4,0,4.9-2,4.9-4.4s-1.6-4.3-4.9-4.3h-5.4V15z"/>
		<path d="M232.1,31V0.6h6V31H232.1z"/>
		<path d="M272.1,0.6V31h-5.7l-14.3-18.6l-0.6-1l0.1,1.2V31h-6.1V0.6h5.7L265.5,19l0.6,1.1l-0.1-1.2V0.6L272.1,0.6L272.1,0.6z"/>
		<path d="M302.5,27.9c-1.6,1.9-4.9,3.8-9.2,3.8c-8.7,0-15.8-6.7-15.8-15.8S284.5,0,293.2,0c6,0,11.1,3.2,13.8,8l-6.2,1.6
			c-1.7-2.3-4.7-3.7-7.7-3.7c-5.7,0-9.5,4.1-9.5,9.9c0,6,4.2,9.9,9.8,9.9c5.2,0,8-2.9,8.9-5.2v-1.3h-8.4v-5h13.6V31h-5.2L302.5,27.9
			L302.5,27.9z"/>
		<path d="M14.2,43.2c-0.5-3.1-3.1-5-6.4-5c-3.5,0-6.1,1.6-6.1,4.6c0,2.9,3.3,3.7,6.5,4.5c3,0.8,7.6,1.9,7.6,6.5
			c0,3.6-3.1,6.2-7.8,6.2c-4.8,0-7.6-2.9-7.9-6.4l1.2-0.3c0.2,3.1,2.6,5.6,6.8,5.6c4,0,6.5-2.1,6.5-5.1c0-3.9-4.7-4.8-7.7-5.6
			c-2.6-0.7-6.4-1.7-6.4-5.4c0-3.4,3.2-5.7,7.4-5.7c3.9,0,6.9,2.2,7.5,5.8L14.2,43.2z"/>
		<path d="M34,37.5v1.2h-7.7v20.9h-1.3V38.7h-7.7v-1.2H34z"/>
		<path d="M55.2,37.5v13.2c0,5.7-3,9.3-8.9,9.3c-5.8,0-8.9-3.6-8.9-9.3V37.5h1.3v13.3c0,5,2.6,8,7.6,8c5.1,0,7.6-3.1,7.6-8V37.5
			H55.2z"/>
		<path d="M69.7,37.5c6.3,0,11.4,4.5,11.4,11.1c0,6.5-5,10.9-11.1,10.9h-9.4v-22L69.7,37.5L69.7,37.5z M70,58.4
			c5.3,0,9.9-3.7,9.9-9.7c0-6.1-4.5-10-10.2-10h-7.9v19.7H70z"/>
		<path d="M100,58.4v1.2H85.8v-22h14.1v1.2H87v8.4h10.4v1.2H87v10.1H100z"/>
		<path d="M122.8,37.5v22h-1.2l-14.5-19.4l-0.4-0.6l0.1,0.9v19h-1.3v-22h1.2l14.5,19.3l0.4,0.7l-0.1-1v-19L122.8,37.5L122.8,37.5z"
			/>
		<path d="M143.9,37.5v1.2h-7.7v20.9H135V38.7h-7.7v-1.2H143.9z"/>
		<path d="M159.7,43.2c-0.5-3.1-3.1-5-6.4-5c-3.5,0-6.1,1.6-6.1,4.6c0,2.9,3.3,3.7,6.5,4.5c3,0.8,7.6,1.9,7.6,6.5
			c0,3.6-3.1,6.2-7.8,6.2c-4.8,0-7.6-2.9-7.9-6.4l1.2-0.3c0.2,3.1,2.6,5.6,6.8,5.6c4,0,6.5-2.1,6.5-5.1c0-3.9-4.7-4.8-7.6-5.6
			c-2.6-0.7-6.4-1.7-6.4-5.4c0-3.4,3.1-5.7,7.4-5.7c3.9,0,6.9,2.2,7.5,5.8L159.7,43.2z"/>
		<path d="M190.8,43.2c-0.5-3.1-3.1-5-6.4-5c-3.5,0-6.1,1.6-6.1,4.6c0,2.9,3.3,3.7,6.5,4.5c3,0.8,7.6,1.9,7.6,6.5
			c0,3.6-3.1,6.2-7.8,6.2c-4.8,0-7.6-2.9-7.9-6.4l1.2-0.3c0.2,3.1,2.6,5.6,6.8,5.6c4,0,6.5-2.1,6.5-5.1c0-3.9-4.7-4.8-7.6-5.6
			c-2.6-0.7-6.4-1.7-6.4-5.4c0-3.4,3.1-5.7,7.4-5.7c3.9,0,6.9,2.2,7.5,5.8L190.8,43.2z"/>
		<path d="M206.7,37.1c6.3,0,11.5,4.8,11.5,11.5c0,6.6-5.1,11.5-11.5,11.5c-6.3,0-11.4-4.8-11.4-11.5
			C195.2,41.9,200.3,37.1,206.7,37.1z M206.7,58.8c5.7,0,10.2-4.2,10.2-10.3c0-6.2-4.5-10.3-10.2-10.3c-5.7,0-10.2,4.1-10.2,10.3
			C196.5,54.6,201,58.8,206.7,58.8z"/>
		<path d="M241.8,43.1c-1.7-3-4.9-4.9-8.7-4.9c-5.7,0-10.2,4.1-10.2,10.3c0,6.1,4.5,10.3,10.2,10.3c4,0,7.5-2.2,9.1-5.5l1.2,0.3
			c-1.9,3.9-5.7,6.4-10.3,6.4c-6.3,0-11.4-4.8-11.4-11.5c0-6.6,5.1-11.5,11.4-11.5c4.3,0,8,2.2,10,5.7L241.8,43.1z"/>
		<path d="M247.2,59.5v-22h1.3v22H247.2z"/>
		<path d="M269,58.4v1.2h-14.3v-22h14.1v1.2H256v8.4h10.4v1.2H256v10.1H269z"/>
		<path d="M288.4,37.5v1.2h-7.7v20.9h-1.3V38.7h-7.7v-1.2H288.4z"/>
		<path d="M309.6,37.5l-8.9,10.7v11.3h-1.3V48.2l-8.9-10.7h1.5l7.6,9.2l0.4,0.6l0.4-0.6l7.6-9.2H309.6z"/>
		<path d="M164.3,37.5l-0.9,2.5h-0.8l0.3-2.5H164.3z"/>
	</g>
</g>
</svg>
