<?xml version="1.0" encoding="utf-8"?>
<!-- Generator: Adobe Illustrator 26.4.0, SVG Export Plug-In . SVG Version: 6.00 Build 0)  -->
<svg version="1.1" id="Trace" xmlns="http://www.w3.org/2000/svg" xmlns:xlink="http://www.w3.org/1999/xlink" x="0px" y="0px"
	 viewBox="0 0 560.3 560.3" style="enable-background:new 0 0 560.3 560.3;" xml:space="preserve">
<g id="Seng">
	<path d="M179.7,276.8c9.2,0,10.5-5,10.5-9.5c0-3.6-0.5-7.2-1-10.9c-0.5-3.6-1-7.1-1-10.7c0-11.9,7.8-16.9,18.7-16.9h2.7v7.1h-2.3
		c-7.6,0-10.2,4.1-10.2,11.1c0,3,0.4,6.1,0.9,9.2c0.5,3.2,0.9,6.3,0.9,9.8c0.1,8.3-3.5,12.4-9.3,13.9v0.3c5.8,1.4,9.4,5.8,9.3,14.1
		c0,3.5-0.4,6.7-0.9,9.8c-0.5,3.2-0.9,6.2-0.9,9.3c0,7.2,3,11.2,10.2,11.2h2.3v7.1h-2.7c-10.7,0-18.7-4.6-18.7-17.7
		c0-3.5,0.5-7.1,1-10.6c0.5-3.5,1-7,1-10.5c0-4-1.3-9.5-10.5-9.5V276.8L179.7,276.8z"/>
	<g>
		<path d="M246.8,289.1c0-4.8,3.2-8.1,7.8-8.1s7.6,3.4,7.6,8.1s-3,8.1-7.8,8.1C249.9,297.3,246.8,293.8,246.8,289.1L246.8,289.1z"/>
		<path d="M273.5,289.1c0-4.8,3.2-8.1,7.8-8.1s7.6,3.4,7.6,8.1s-3,8.1-7.8,8.1C276.6,297.3,273.5,293.8,273.5,289.1z"/>
		<path d="M300.2,289.1c0-4.8,3.2-8.1,7.8-8.1s7.6,3.4,7.6,8.1s-3,8.1-7.8,8.1C303.3,297.3,300.2,293.8,300.2,289.1z"/>
	</g>
	<path d="M380.7,283.3c-9.2,0-10.5,5.5-10.5,9.5c0,3.5,0.5,7,1,10.5c0.5,3.5,1,7.1,1,10.6c0,13-8.1,17.7-18.7,17.7h-2.7v-7.1h2.2
		c7.2-0.1,10.3-4,10.3-11.2c0-3.1-0.5-6.1-0.9-9.3c-0.5-3.1-1-6.3-1-9.8c0-8.3,3.6-12.6,9.3-14.1v-0.3c-5.7-1.5-9.3-5.7-9.3-13.9
		c0-3.5,0.5-6.6,1-9.8c0.4-3.1,0.9-6.2,0.9-9.2c0-7-2.7-11-10.2-11.1h-2.3v-7.1h2.6c11,0,18.9,5,18.9,16.9c0,3.6-0.5,7.1-1,10.7
		c-0.5,3.6-1,7.2-1,10.9c0,4.5,1.3,9.5,10.5,9.5L380.7,283.3L380.7,283.3z"/>
	<g>
		<path d="M280.2,468.7c-104,0-188.5-84.6-188.5-188.5S176.2,91.6,280.2,91.6s188.5,84.6,188.5,188.5S384.1,468.7,280.2,468.7z
			 M280.2,100.6c-99,0-179.5,80.5-179.5,179.5s80.5,179.5,179.5,179.5s179.5-80.5,179.5-179.5S379.2,100.6,280.2,100.6z"/>
	</g>
</g>
</svg>
