<?xml version="1.0" encoding="utf-8"?>
<!-- Generator: Adobe Illustrator 26.4.0, SVG Export Plug-In . SVG Version: 6.00 Build 0)  -->
<svg version="1.1" id="Trace" xmlns="http://www.w3.org/2000/svg" xmlns:xlink="http://www.w3.org/1999/xlink" x="0px" y="0px"
	 viewBox="0 0 560.3 560.3" style="enable-background:new 0 0 560.3 560.3;" xml:space="preserve">
<g id="Seng">
	<path d="M130.8,275.2c13.7,0,15.6-7.4,15.6-14.1c0-5.3-0.7-10.7-1.5-16.2c-0.7-5.3-1.5-10.5-1.5-15.9c0-17.7,11.6-25.1,27.8-25.1h4
		v10.5h-3.4c-11.3,0-15.2,6.1-15.2,16.5c0,4.5,0.6,9.1,1.3,13.7c0.7,4.8,1.3,9.4,1.3,14.6c0.1,12.3-5.2,18.4-13.8,20.7v0.4
		c8.6,2.1,14,8.6,13.8,20.9c0,5.2-0.6,10-1.3,14.6c-0.7,4.8-1.3,9.2-1.3,13.8c0,10.7,4.5,16.6,15.2,16.6h3.4v10.5h-4
		c-15.9,0-27.8-6.8-27.8-26.3c0-5.2,0.7-10.5,1.5-15.7s1.5-10.4,1.5-15.6c0-5.9-1.9-14.1-15.6-14.1V275.2L130.8,275.2z"/>
	<g>
		<path d="M230.5,293.4c0-7.1,4.8-12,11.6-12s11.3,5.1,11.3,12s-4.5,12-11.6,12C235.1,305.6,230.5,300.4,230.5,293.4L230.5,293.4z"
			/>
		<path d="M270.2,293.4c0-7.1,4.8-12,11.6-12c6.8,0,11.3,5.1,11.3,12s-4.5,12-11.6,12C274.8,305.6,270.2,300.4,270.2,293.4z"/>
		<path d="M309.9,293.4c0-7.1,4.8-12,11.6-12c6.8,0,11.3,5.1,11.3,12s-4.5,12-11.6,12C314.5,305.6,309.9,300.4,309.9,293.4z"/>
	</g>
	<path d="M429.5,284.8c-13.7,0-15.6,8.2-15.6,14.1c0,5.2,0.7,10.4,1.5,15.6c0.7,5.2,1.5,10.5,1.5,15.7c0,19.3-12,26.3-27.8,26.3h-4
		V346h3.3c10.7-0.1,15.3-5.9,15.3-16.6c0-4.6-0.7-9.1-1.3-13.8c-0.7-4.6-1.5-9.4-1.5-14.6c0-12.3,5.3-18.7,13.8-20.9v-0.4
		c-8.5-2.2-13.8-8.5-13.8-20.7c0-5.2,0.7-9.8,1.5-14.6c0.6-4.6,1.3-9.2,1.3-13.7c0-10.4-4-16.3-15.2-16.5H385v-10.5h3.9
		c16.3,0,28.1,7.4,28.1,25.1c0,5.3-0.7,10.5-1.5,15.9c-0.7,5.3-1.5,10.7-1.5,16.2c0,6.7,1.9,14.1,15.6,14.1L429.5,284.8L429.5,284.8
		z"/>
	<g>
		<path d="M280.1,560.3C125.6,560.3,0.1,434.6,0.1,280.2S125.6,0,280.1,0s280.1,125.7,280.1,280.1S434.5,560.3,280.1,560.3z
			 M280.1,13.4C133.1,13.4,13.4,133,13.4,280.1s119.6,266.7,266.7,266.7s266.7-119.6,266.7-266.7S427.2,13.4,280.1,13.4z"/>
	</g>
</g>
</svg>
