<?xml version="1.0" encoding="utf-8"?>
<!-- Generator: Adobe Illustrator 26.4.0, SVG Export Plug-In . SVG Version: 6.00 Build 0)  -->
<svg version="1.1" id="Layer_1" xmlns="http://www.w3.org/2000/svg" xmlns:xlink="http://www.w3.org/1999/xlink" x="0px" y="0px"
	 viewBox="0 0 1178.94 816.7" style="enable-background:new 0 0 1178.94 816.7;" xml:space="preserve">
<g>
	<path d="M497.43,491.12c0-1.61,0-3.21,0-4.82c0-108.93,0.04-217.86-0.13-326.78c-0.01-5.53,1.85-8.52,6.75-10.55
		c9.7-4,19.87-5.83,30.17-7.08c21.72-2.62,43.56-3.45,65.4-2.84c21.44,0.6,42.93,1.25,63.91,6.54c4,1.01,7.88,2.36,11.61,4.19
		c3.26,1.6,4.64,3.82,4.62,7.64c-0.14,36.35-0.08,72.7-0.08,109.05c0,74.08,0,148.15,0,222.23c0,1.49,0,2.99,0,4.48
		c0.2,0.04,0.39,0.08,0.59,0.12c0.57-2.78,1.17-5.56,1.71-8.35c8.1-41.66,16.2-83.32,24.29-124.98
		c9.23-47.55,18.43-95.09,27.66-142.64c0.87-4.46,1.11-4.59,4.94-2.63c26.7,13.67,51.43,30.23,73.49,50.62
		c3.56,3.29,7.01,4.13,11.81,3.32c28.3-4.79,56.76-8.63,84.76-15.11c27.49-6.36,54.09-15.16,79-28.64
		c17.87-9.67,34.31-21.36,49.42-34.96c30.82-27.75,54.18-61.18,74.18-97.19c13.31-23.95,24.49-48.88,34.93-74.17
		c2.62-6.35,6.28-11.9,12.33-15.59c8.22-5.01,15.49-2.39,18.55,6.8c2.37,7.1,1.65,14.32,0.64,21.51
		c-5.14,36.36-11.67,72.46-20.9,108.03c-9.33,35.98-21.21,71.08-37.92,104.37c-13.05,26-28.9,50.13-48.7,71.62
		c-19.75,21.43-42.55,38.78-67.86,53.06c-27.84,15.7-57.5,27.26-87.19,38.79c-2.96,1.15-3.49,2.2-2.25,5.1
		c12.47,29.1,22.66,58.96,29.74,89.84c2.94,12.84,4.37,9.59-7.17,16.82c-23.74,14.88-49.53,25.32-76.13,33.88
		c-32.41,10.43-65.59,17.41-99.21,22.57c-26.66,4.1-53.46,6.76-80.34,8.64c-13.31,0.93-26.67,1.34-40.01,1.89
		c-25.48,1.04-50.95,0.67-76.42,0.47c-23.45-0.19-46.86-1.68-70.26-3.48c-36.75-2.84-73.21-7.66-109.29-15.18
		c-43.3-9.03-85.42-21.7-124.97-41.96c-8.23-4.21-16.2-8.88-24-13.86c-2.27-1.45-2.85-2.95-2.26-5.55
		c6.78-30.19,16.92-59.28,28.71-87.83c1.32-3.18,4.66-6.76,3.18-9.53c-1.22-2.3-5.75-2.89-8.86-4.12
		c-20.55-8.13-41.13-16.24-60.97-26c-23.95-11.78-46.51-25.72-66.67-43.4c-30.64-26.88-53.3-59.6-70.91-96.08
		c-14.44-29.92-25.11-61.19-33.75-93.2C13.21,107.66,6.12,68.5,0.72,29.02c-1.01-7.35-1.41-14.97,1.86-22.13
		c3.06-6.71,9.5-8.84,15.79-4.95c5.5,3.4,9.13,8.49,11.6,14.34c9.5,22.56,19.22,45.02,30.69,66.67
		c19.56,36.94,42.47,71.47,72.72,100.7c29.93,28.91,64.97,49.08,104.6,61.55c23.76,7.48,48.09,12.41,72.61,16.48
		c15.26,2.54,30.56,4.9,45.82,7.42c2.91,0.48,4.91-0.55,7-2.47c22.18-20.37,46.36-37.93,73.26-51.61c4.64-2.36,4.68-2.32,5.68,2.69
		c10.02,50.32,20.04,100.64,30.05,150.95c7.92,39.79,15.82,79.58,23.73,119.37c0.21,1.06,0.49,2.12,0.74,3.17
		C497.05,491.18,497.24,491.15,497.43,491.12z"/>
	<path d="M952.46,641.35c0,17.99-0.26,35.98,0.12,53.95c0.16,7.4-2.63,12.99-7.48,18.05c-10.58,11.03-23.24,19.28-36.36,26.79
		c-43.35,24.82-89.96,41.35-138.12,53.85c-32.78,8.5-66.01,14.6-99.7,18.27c-15.63,1.7-31.28,2.86-46.98,3.72
		c-16.73,0.92-33.46,0.81-50.18,0.47c-22.82-0.47-45.57-2.29-68.27-4.91c-34.52-3.99-68.62-10.21-102.28-18.81
		c-44.28-11.31-87.35-26-127.83-47.53c-14.91-7.93-29.26-16.74-41.3-28.85c-6-6.03-9.12-12.78-9.03-21.67
		c0.36-34.84,0.2-69.69,0.11-104.54c-0.02-7.13,0.66-14.21,0.93-21.31c0.11-3.02,1.27-3.7,4.01-2.2
		c50.73,27.81,105.53,43.47,162.01,54.05c25.4,4.76,50.98,8.22,76.7,10.71c21.61,2.09,43.24,3.53,64.93,4.55
		c28.95,1.37,57.91,1.73,86.86,1.13c26.55-0.55,53.09-1.89,79.58-4.15c47.72-4.08,94.91-11.13,141.25-23.4
		c33.65-8.91,66.28-20.55,97.24-36.61c2.77-1.44,5.47-3.01,8.24-4.45c3.66-1.9,4.08-1.75,4.52,2.48c0.51,4.96,0.94,9.95,0.97,14.93
		c0.11,18.48,0.04,36.97,0.04,55.45C952.44,641.35,952.45,641.35,952.46,641.35z M633.79,726.06c0.54-23.36-17.69-45.62-45.18-45.6
		c-26.65,0.02-45.05,22.02-44.83,44.84c0.25,25.12,19.82,45.34,44.59,45.41C613.44,770.77,633.7,750.85,633.79,726.06z
		 M444.97,713.04c-0.02-10.52-2.17-18.26-7.45-26.66c-12.8-20.36-39.5-23.17-56.2-5.92c-14.88,15.37-16.42,43.85-3.29,60.96
		c12.61,16.44,33.84,20.13,49.75,8.15C439.78,740.54,444.86,727.86,444.97,713.04z M732.57,713.12
		c-0.06,12.14,3.87,22.69,11.93,31.84c12.42,14.11,35.47,15.47,49.17,2.67c17.98-16.79,19.92-44.94,4.48-65
		c-11.45-14.88-33.21-18.01-48.2-6.71C737.63,685.21,732.7,698.1,732.57,713.12z M297.32,660.18c0.38-8.81-1.97-18.78-7.21-28.02
		c-9.42-16.62-28.16-16.93-38.19-0.74c-6.8,10.99-8.46,23.12-7.61,35.64c0.74,10.86,3.59,21.15,10.57,29.89
		c6.25,7.84,14.98,10.43,23.22,6.81c4.12-1.81,7.22-4.88,9.78-8.49C294.95,685.29,297.35,673.98,297.32,660.18z M933.59,662.28
		c-0.4-11.71-2.28-22.57-8.83-32.09c-9.3-13.52-24.51-14.39-34.56-1.99c-2.6,3.21-4.65,6.78-6.11,10.68
		c-3.95,10.52-4.77,21.36-3.36,32.4c1.09,8.52,3.64,16.57,8.65,23.68c9.72,13.78,24.38,14.03,34.35,0.49
		C931.08,685.47,932.99,673.83,933.59,662.28z"/>
</g>
</svg>
