<?xml version="1.0" encoding="utf-8"?>
<!-- Generator: Adobe Illustrator 26.4.0, SVG Export Plug-In . SVG Version: 6.00 Build 0)  -->
<svg version="1.1" id="Layer_1" xmlns="http://www.w3.org/2000/svg" xmlns:xlink="http://www.w3.org/1999/xlink" x="0px" y="0px"
	 viewBox="0 0 478.9 466.6" style="enable-background:new 0 0 478.9 466.6;" xml:space="preserve">
<path id="Viktor" d="M208.7,235.1c18.5,9.1,53,10.1,71.1,0C260.7,239,225.5,236.2,208.7,235.1z M208.7,235.1
	c18.5,9.1,53,10.1,71.1,0C260.7,239,225.5,236.2,208.7,235.1z M308,441.7c-0.2-0.8-0.8-1.2-1.8-1.3c-1-0.1-2.5,0.1-4.4,0.6l-1.8,0.5
	l1.1,4.4l1.9-0.5c1.9-0.5,3.2-1,4.1-1.6C307.9,443.1,308.2,442.5,308,441.7z M308,441.7c-0.2-0.8-0.8-1.2-1.8-1.3
	c-1-0.1-2.5,0.1-4.4,0.6l-1.8,0.5l1.1,4.4l1.9-0.5c1.9-0.5,3.2-1,4.1-1.6C307.9,443.1,308.2,442.5,308,441.7z M208.7,235.1
	c18.5,9.1,53,10.1,71.1,0C260.7,239,225.5,236.2,208.7,235.1z M208.7,235.1c18.5,9.1,53,10.1,71.1,0
	C260.7,239,225.5,236.2,208.7,235.1z M308,441.7c-0.2-0.8-0.8-1.2-1.8-1.3c-1-0.1-2.5,0.1-4.4,0.6l-1.8,0.5l1.1,4.4l1.9-0.5
	c1.9-0.5,3.2-1,4.1-1.6C307.9,443.1,308.2,442.5,308,441.7z M308,441.7c-0.2-0.8-0.8-1.2-1.8-1.3c-1-0.1-2.5,0.1-4.4,0.6l-1.8,0.5
	l1.1,4.4l1.9-0.5c1.9-0.5,3.2-1,4.1-1.6C307.9,443.1,308.2,442.5,308,441.7z M208.7,235.1c18.5,9.1,53,10.1,71.1,0
	C260.7,239,225.5,236.2,208.7,235.1z M208.7,235.1c18.5,9.1,53,10.1,71.1,0C260.7,239,225.5,236.2,208.7,235.1z M308,441.7
	c-0.2-0.8-0.8-1.2-1.8-1.3c-1-0.1-2.5,0.1-4.4,0.6l-1.8,0.5l1.1,4.4l1.9-0.5c1.9-0.5,3.2-1,4.1-1.6
	C307.9,443.1,308.2,442.5,308,441.7z M308,441.7c-0.2-0.8-0.8-1.2-1.8-1.3c-1-0.1-2.5,0.1-4.4,0.6l-1.8,0.5l1.1,4.4l1.9-0.5
	c1.9-0.5,3.2-1,4.1-1.6C307.9,443.1,308.2,442.5,308,441.7z M208.7,235.1c18.5,9.1,53,10.1,71.1,0
	C260.7,239,225.5,236.2,208.7,235.1z M208.7,235.1c18.5,9.1,53,10.1,71.1,0C260.7,239,225.5,236.2,208.7,235.1z M308,441.7
	c-0.2-0.8-0.8-1.2-1.8-1.3c-1-0.1-2.5,0.1-4.4,0.6l-1.8,0.5l1.1,4.4l1.9-0.5c1.9-0.5,3.2-1,4.1-1.6
	C307.9,443.1,308.2,442.5,308,441.7z M308,441.7c-0.2-0.8-0.8-1.2-1.8-1.3c-1-0.1-2.5,0.1-4.4,0.6l-1.8,0.5l1.1,4.4l1.9-0.5
	c1.9-0.5,3.2-1,4.1-1.6C307.9,443.1,308.2,442.5,308,441.7z M208.7,235.1c18.5,9.1,53,10.1,71.1,0
	C260.7,239,225.5,236.2,208.7,235.1z M208.7,235.1c18.5,9.1,53,10.1,71.1,0C260.7,239,225.5,236.2,208.7,235.1z M308,441.7
	c-0.2-0.8-0.8-1.2-1.8-1.3c-1-0.1-2.5,0.1-4.4,0.6l-1.8,0.5l1.1,4.4l1.9-0.5c1.9-0.5,3.2-1,4.1-1.6
	C307.9,443.1,308.2,442.5,308,441.7z M308,441.7c-0.2-0.8-0.8-1.2-1.8-1.3c-1-0.1-2.5,0.1-4.4,0.6l-1.8,0.5l1.1,4.4l1.9-0.5
	c1.9-0.5,3.2-1,4.1-1.6C307.9,443.1,308.2,442.5,308,441.7z M208.7,235.1c18.5,9.1,53,10.1,71.1,0
	C260.7,239,225.5,236.2,208.7,235.1z M208.7,235.1c18.5,9.1,53,10.1,71.1,0C260.7,239,225.5,236.2,208.7,235.1z M308,441.7
	c-0.2-0.8-0.8-1.2-1.8-1.3c-1-0.1-2.5,0.1-4.4,0.6l-1.8,0.5l1.1,4.4l1.9-0.5c1.9-0.5,3.2-1,4.1-1.6
	C307.9,443.1,308.2,442.5,308,441.7z M308,441.7c-0.2-0.8-0.8-1.2-1.8-1.3c-1-0.1-2.5,0.1-4.4,0.6l-1.8,0.5l1.1,4.4l1.9-0.5
	c1.9-0.5,3.2-1,4.1-1.6C307.9,443.1,308.2,442.5,308,441.7z M208.7,235.1c18.5,9.1,53,10.1,71.1,0
	C260.7,239,225.5,236.2,208.7,235.1z M208.7,235.1c18.5,9.1,53,10.1,71.1,0C260.7,239,225.5,236.2,208.7,235.1z M308,441.7
	c-0.2-0.8-0.8-1.2-1.8-1.3c-1-0.1-2.5,0.1-4.4,0.6l-1.8,0.5l1.1,4.4l1.9-0.5c1.9-0.5,3.2-1,4.1-1.6
	C307.9,443.1,308.2,442.5,308,441.7z M308,441.7c-0.2-0.8-0.8-1.2-1.8-1.3c-1-0.1-2.5,0.1-4.4,0.6l-1.8,0.5l1.1,4.4l1.9-0.5
	c1.9-0.5,3.2-1,4.1-1.6C307.9,443.1,308.2,442.5,308,441.7z M208.7,235.1c18.5,9.1,53,10.1,71.1,0
	C260.7,239,225.5,236.2,208.7,235.1z M251.5,11.8c-36.5,0-71,8.6-101.6,23.9c-8-18.3-23.3-33.2-38.2-35.7
	c9.8,25.8,15.8,36.4,17.2,47.7C65.8,88.1,24,158.8,24,239.2c0,23.7,3.6,46.5,10.4,68c-14.6-3.9-27.1-9.8-34.4-15.9
	c12.9,18,27.4,29.3,41.8,36.1c4.5,10.8,9.9,21.1,15.9,30.9c-8.3,2.1-15.8,3-21,4c5.4,0.3,13.2,1.8,24.8,2.1
	c40.7,61.6,110.5,102.2,189.9,102.2c125.6,0,227.4-101.8,227.4-227.4C478.9,113.6,377.1,11.8,251.5,11.8z M406.4,116
	c3.5,43.6-18.7,70.9-46.4,82.8c-0.4-7-5-14.2-8-21.2c-1.7-3.9-2.8-7.7-2.3-11.3c0.3-2.6,4.2-5.7,8.2-8.5c3.1-2.2,6.4-4.4,8.3-6.1
	c13.1-11.8,22.5-33,17.2-60.1C391.7,99.1,399.4,107.3,406.4,116z M276,28.3c0.3-1.7,1.1-3.2,2.4-4.3c1.3-1.1,3.1-1.8,5.2-2.2
	c2.2-0.3,4.6-0.3,7.4,0.2c2.8,0.5,5.6,1.3,8.3,2.6l-2.5,2.5c-1-0.5-2.1-0.9-3.1-1.3c-1.1-0.4-2.1-0.7-3.2-0.9
	c-2.3-0.4-4.2-0.2-5.6,0.6c-1.4,0.8-2.3,2.1-2.6,3.8c-0.6,3.7,1.5,6,6.4,6.8c2,0.3,4.6,0.5,7.6,0.4l-0.5,3c-2.5,0.2-5.2,0-8.1-0.5
	c-4.2-0.7-7.3-2-9.3-3.8C276.4,33.3,275.6,31.1,276,28.3z M263.5,19l6.2,0.4l-1.1,16.8l-6.2-0.4L263.5,19z M237.8,19l5.8,9.8
	c0.3,0.6,0.7,1.3,1,2c0.4,0.8,0.6,1.3,0.7,1.6c0.1-0.7,0.6-2,1.4-3.8l5.3-10.2l6.3-0.2l-9.5,17.1l-6.8,0.2l-10.5-16.5L237.8,19z
	 M208.1,22.9l1.8,10.1c0.2,1.3,0.8,2.1,1.8,2.6c1,0.5,2.5,0.5,4.6,0.1c2-0.3,3.4-0.9,4.2-1.7c0.8-0.8,1.1-1.8,0.9-3.1l-1.7-10.1
	l6.1-1.1l1.8,10.7c0.2,1.2-0.1,2.4-0.9,3.5c-0.8,1.1-2.1,2-3.8,2.8c-1.7,0.8-3.8,1.4-6.3,1.8c-3.7,0.6-6.7,0.6-9-0.2
	c-2.2-0.7-3.5-2-3.9-3.9L202,24L208.1,22.9z M251.5,41.3c48.6,0,93.1,17.5,127.6,46.6c5.1,33.5-6.4,55.7-23.8,68.3
	c-2.7,2-5.5,3.7-8.5,5.4c-6.9-8.1-20.5-7.9-29.7-1.9c-0.2-0.1-0.3-0.3-0.4-0.4c-8.8-9.3-21.3-22.2-28.6-22.8c-0.1,0-0.2,0-0.3,0
	c-0.3-12.9-41.5-18.4-65.5-10.8c-7.7,2.4-13.6,6.2-15.9,11.4c-9.8-0.6-14.8,7.8-20.1,13.3c-2.4,2.4-4.8,4.3-7.7,4.6
	c-6.9,0.7-11-11.1-21.2-5.7c-14.2-19.8-3.4-50.8-1.9-83.2C183.9,50.3,216.6,41.3,251.5,41.3z M234.6,274.7
	c11.5,22.6-30.3,28.5-11.8,46.7c-4.8,3.8-8.5,8.7-13.2,12.7c-23.2-17-38-42.4-38.6-82c25,2.7,25,37.6,55.1,30.6
	c-2.4,9.2-17.1,6.2-23.6,11.3C216.2,299.6,232.1,287.9,234.6,274.7z M241.2,274.7c2.8-0.8,6.9-0.4,10.4-0.5
	c-5,21.2,24.8,33.4,10.8,45.2c-0.2-2.8,0.8-3.9-0.5-5.7c-6.5,16.2-28.5,10.6-34.4-2.4c-3.8,1.6-0.2,4.2,0,7.1
	C212.8,303.5,248.9,297.7,241.2,274.7z M223.3,326.5c9.8-4.8,14.8,3.2,23.5,3.3c7.2,0.1,12.1-7.5,22.2-4.7c0.8,0.5,1.6,1,2.3,1.5
	c22.9,16.8,10.6,68.8,20.8,98.4c-0.7-0.8-1.4-1.5-2.1-2.3c-14-16.6-20.5-40.8-29.9-62c-4.5-10.1-9.6-19.5-16.6-27.1
	c-10.4,11.7-19.3,24.8-27.4,38.8c-7.3,12.6-12.5,21.4-20.2,39.5c-2.1-20.1,2.9-41.1,8.8-55.9C208.7,346,215.1,330.5,223.3,326.5z
	 M274.2,325c-1.1-1-2.2-2.3-3.3-3.7c5.9-19.1-19.7-23.8-13.2-48.1c9.1,7.4,15.8,22,34.4,15.5c2.3-1.1,7.5-2.2,7.5-7.1
	c-5.1,0.1-16.8,6.6-25.4,1.9c16.2-3.8,18.9-21.1,31.2-28.9c2.3-1.4,4.9-2.5,8-3.2c10.1,25.1,0,56-14.4,69.8
	c-0.7,0.7-1.4,1.3-2.1,1.9C287.7,330.7,281.4,332,274.2,325z M315.2,245.5c-4.5,1.7-8.8,4.2-12.9,6.8c-6,3.8-11.5,7.9-16.3,10.1
	c-13.4,4.2-31,8.2-49,7.1c-25.5-1.6-42.6-13.4-60.3-21.2c-11.1-4.9-31.4-5.3-24.5-21.2c2.1,2.9-0.2,10.3,4.7,10.4
	c1.8-1.8-0.9-6.1,1.4-9c5.4,0.4,10.8,0.8,15.5,1.9c0.3,4.7-1.1,11.1,2.8,12.2c8-15.1-6.2-19.7-18.8-18.9c0.4-14.8,3.5-27.8,8.6-39.6
	c2.3-5.4,4.9-10.5,7.9-15.5c2.7-4.5,7.5-11.6,13.2-17.6c6.5-6.8,14.3-12.2,21.6-10.6c15.2,3.3,5.7,42.3,17.9,50.4
	c-3.6-15.1-7.1-41.3-4.2-63.1c14.6-2.8,36.4-3.3,50.4,0c4.4,17.5,7.2,41.8,4.7,61.7c10.1-11,0.3-39.5,9.9-51.4
	c27.1,14.2,40.3,42.3,43.4,80.6c-5.8,0.8-13.2,0-17,2.8c-0.6,5-1.2,13.6,1.9,16.5c4.8-0.8,0.8-10.5,2.8-14.1c3.4-0.7,9.8-0.8,13.2,0
	c2.2,4.2-1.8,10.4,0.5,13.2c2.9-0.2,2.8-3.5,2.8-6.6c1.7,1.5,2.8,2.7,3.3,3.9C341.7,241.3,322.8,242.6,315.2,245.5z M212.5,134.7
	c0.9-2,3-2.6,5.7-2.8c0,4.7,0.2,9.6-0.5,13.7C214.7,143.2,213,139.6,212.5,134.7z M284.6,132.9c-0.5,5.4-1.4,10.5-4.2,13.7
	C278.9,141.9,275.6,126.9,284.6,132.9z M133.3,51.7c-0.1-2.2-0.3-4.3-0.7-6.5c-2.4-14.3-10-27.5-15.8-40.6
	c9.5,2.5,22.5,15.4,29.9,32.6c4,9.3,6.3,19.8,5.5,30.6c0,0.4,0,0.9-0.1,1.3c-2.5,27.2-15.1,60.2,1.4,82c-3.5,5.1-6.8,10.5-9.8,16.1
	c-4.5,8.5-8.4,17.7-11.4,27.7c-11.4-11.7-17.1-31-17.9-51.8c-0.4-9.3-0.8-18.9,1.4-28.3c2.2-9.4,6.3-19,9.9-28.7
	C130.1,74.8,133.8,63.2,133.3,51.7z M117.7,93.3c-4.7,11.4-8.9,25.4-8.8,48.7c0.1,23.2,9,47.3,21.6,58.7c-1.6,8.9,3.3,12.7,8.9,15.8
	c3.3,1.9,6.9,3.5,9.4,5.9c-0.6,3.4-3.6,4.6-3.3,8.5c1,11.4,2.7,22.8-1.2,31.9c-8.1,18.8-37.2,31.6-62,24.9
	c7.4,12.6,13,15.8,28.1,16.3c-12.4,6.4-27.7,8.7-43.1,8.2c-9-22.6-13.9-47.2-13.9-73C53.5,181.5,78.3,129.5,117.7,93.3z M96.3,362.1
	c5.1-0.8,10.5-1.8,16.3-3c-1.3,3.1-4.7,9.1-7.5,13.4C102.1,369.1,99.1,365.6,96.3,362.1z M135.2,419.7l-8.1-5.7l-2.5,3.5l8.7,6.1
	l-1.7,2.4l-13.8-9.7l9.6-13.7l13.8,9.7l-1.7,2.4l-8.7-6.1l-2.1,3l8.1,5.7L135.2,419.7z M161.2,442.2l-7-3.6l-5.5-17.1l-0.2-0.1
	c-0.8,2.1-1.4,3.6-1.9,4.4l-3.6,7l-4.9-2.5l7.7-14.9l7,3.6l5.5,17l0.1,0.1c0.8-2,1.4-3.4,1.9-4.2l3.6-7l5,2.6L161.2,442.2z
	 M177.7,444c0.9,1.3,2.6,2.4,4.9,3.2c1.2,0.4,2.5,0.8,3.8,1l1.1-3.3l-5.2-1.8l1-2.8l11,3.7l-2.8,8.2c-1.9-0.3-3.6-0.6-5.3-1
	c-1.6-0.4-3.2-0.9-4.9-1.4c-4.2-1.4-7.1-3.2-8.9-5.3c-1.7-2.2-2.2-4.5-1.3-7.2c0.9-2.6,2.8-4.1,5.9-4.7c3-0.6,6.8-0.1,11.4,1.5
	c2.9,1,5.5,2.2,7.9,3.8l-2.9,2c-1.8-1.3-3.8-2.3-6-3c-2.5-0.9-4.7-1.1-6.6-0.6c-1.9,0.5-3.1,1.5-3.6,3.2
	C176.6,441.2,176.8,442.7,177.7,444z M205.5,456.2l-6.1-1.4l3.7-16.3l6,1.4L205.5,456.2z M239.9,461l-7.8-0.9l-11.3-14l-0.2,0
	c0,2.2,0,3.9-0.1,4.8l-0.9,7.8l-5.5-0.6l1.8-16.6l7.8,0.9l11.3,13.8l0.1,0c0-2.2,0.1-3.7,0.2-4.6l0.9-7.9l5.5,0.6L239.9,461z
	 M248.9,461.1l-0.4-16.7l16.8-0.4l0.1,2.9l-10.6,0.2l0.1,3.7l9.9-0.2l0.1,2.9l-9.9,0.2l0.1,4.3l10.6-0.2l0.1,2.9L248.9,461.1z
	 M273.2,460l-2.2-16.6l16.7-2.2l0.4,2.9l-10.5,1.4l0.5,3.6l9.8-1.3l0.4,2.9l-9.8,1.3l0.6,4.3l10.5-1.4l0.4,2.9L273.2,460z
	 M313.4,452.3l-8.4-4.5l-3.2,0.8l1.6,6.2l-6,1.6l-4.2-16.2l8.3-2.1c3.8-1,6.8-1.3,8.9-1c2,0.3,3.3,1.3,3.7,2.9
	c0.2,0.9,0,1.9-0.7,2.9c-0.7,1-1.9,1.9-3.5,2.8c5.2,2.5,8.6,4.2,10.2,4.9L313.4,452.3z M324.7,448.6l-5.7-15.7l5.8-2.1l5.7,15.7
	L324.7,448.6z M355,435.4l-17-5.6l-0.2,0.1c1.2,1.9,2,3.3,2.5,4.1l3.5,7l-5,2.5l-7.5-15l7-3.5l17,5.5l0.1-0.1
	c-1.1-1.8-1.9-3.2-2.3-4l-3.5-7.1l5-2.5l7.5,15L355,435.4z M384.1,417c-1.3,1.1-2.6,2.1-4,3.1c-3.6,2.5-6.8,3.9-9.6,4
	c-2.8,0.1-4.9-1-6.5-3.2c-1.5-2.2-1.7-4.7-0.3-7.5c1.3-2.8,4-5.6,7.9-8.3c2.5-1.7,5-3.1,7.7-4.2l0,3.5c-2.1,0.7-4.1,1.8-6,3.1
	c-2.2,1.6-3.7,3.2-4.4,5c-0.7,1.8-0.6,3.4,0.4,4.8c1,1.5,2.4,2.2,4,2.3c1.6,0,3.4-0.7,5.5-2.1c1.1-0.7,2.1-1.6,3.1-2.5l-2-2.8
	l-4.5,3.2l-1.7-2.4l9.5-6.7l5,7.1C386.7,414.7,385.4,416,384.1,417z M251.5,437.1c-56.7,0-107.8-23.8-143.8-62
	c4.2-6.3,10.1-16.2,12-22.7c-8.4,1.5-17.5,3.2-27.1,4.7c-7.2,1.1-14.6,2.1-22.3,2.8c5.6-2.5,12-5.4,18-8.9
	c10.8-6.2,20.5-14.2,22.7-25.3c-10.1,2.6-22.5,4.4-35.5,3.8c-11.9-0.6-24.4-3.1-36.2-8.7c-7.2-3.5-14.2-8.1-20.7-14.2
	c6,2.3,11.8,4.2,17.6,5.7c11.7,3,23,4.4,33.3,4.4c29,0.2,50.8-9.6,56.5-20.5c-15.3,4.2-27.7,4.2-35.2-3.3
	c21.3,1.6,48.4-8.2,57.1-28.5c2.3-5.4,5-11,6.4-17.6c2.8-2.9,8.6,2.8,12.7,3.3c0,42.8,17.6,68.1,40.5,88.1c-1,2.9-2.2,6.1-3.3,9.4
	c-7.9,22.5-17.4,52.5-8.9,77.3c7.3-17.8,15-35,24.2-50.9c5.5-9.5,11.5-18.5,18.2-26.8c4.2,0.7,7.1,1.1,11.8,0.5
	c3.2,4.1,5.8,8.9,8.2,14.2c9.5,21.3,16.5,51.8,32.4,65c2.8,2.3,3.9,2,7,2.9c-6.8-22.1-2.4-59.6-9-84.8c-2.5-9.6-3.5-9.2,5.2-14.6
	c3.2-2,6.3-4.4,9-7.1c16.4-16,24.1-43.2,16.4-73.9c3.6-1.3,7-2.8,11.8-2.8c0.5,9.1,2.1,17.2,4.6,24.2c10,27.4,33.9,39.7,72.3,34.2
	c-8,8.6-14.8,14-24.6,19.3c7,3.6,22.1,1,30.6-0.1c-1.2,5.7-8.9,20.8-12.3,24.9c1.5,2.8,5.7,5.1,10.3,7.1
	C375.2,405.2,317.1,437.1,251.5,437.1z M78.9,336.2c7.3,0.2,14-0.5,19.7-1.7c-4.1,4.9-8.6,8.9-13.4,12.1
	C83,343.2,80.9,339.7,78.9,336.2z M405.6,349c3.9-6.5,15.9-26.5,12.8-34.2c-5.6,2.7-12.3,5.2-19.8,5.2c9.1-5.2,15.8-11.2,17-21.7
	c-34.9,8-67.4-0.3-77.7-28.4c-2.5-6.7-3.6-14.5-3.3-23.4c9.9-2.3,8.5-7.4,5.9-12.5c-2-3.8-4.8-7.6-4-10.2c0.8-2.3,3.5-3.6,6.9-4.8
	c7.4-2.5,17.9-4.2,16.2-14.5c28-15.3,51.7-38.7,51.8-82c23.9,32.7,38.1,73.1,38.1,116.7c0,42.3-13.3,81.5-35.9,113.7
	C409.4,351.4,406.2,349.9,405.6,349z M306.2,440.4c-1-0.1-2.5,0.1-4.4,0.6l-1.8,0.5l1.1,4.4l1.9-0.5c1.9-0.5,3.2-1,4.1-1.6
	c0.8-0.6,1.1-1.3,0.9-2.1C307.8,440.9,307.2,440.5,306.2,440.4z M208.7,235.1c18.5,9.1,53,10.1,71.1,0
	C260.7,239,225.5,236.2,208.7,235.1z M208.7,235.1c18.5,9.1,53,10.1,71.1,0C260.7,239,225.5,236.2,208.7,235.1z M308,441.7
	c-0.2-0.8-0.8-1.2-1.8-1.3c-1-0.1-2.5,0.1-4.4,0.6l-1.8,0.5l1.1,4.4l1.9-0.5c1.9-0.5,3.2-1,4.1-1.6
	C307.9,443.1,308.2,442.5,308,441.7z M308,441.7c-0.2-0.8-0.8-1.2-1.8-1.3c-1-0.1-2.5,0.1-4.4,0.6l-1.8,0.5l1.1,4.4l1.9-0.5
	c1.9-0.5,3.2-1,4.1-1.6C307.9,443.1,308.2,442.5,308,441.7z M208.7,235.1c18.5,9.1,53,10.1,71.1,0
	C260.7,239,225.5,236.2,208.7,235.1z M208.7,235.1c18.5,9.1,53,10.1,71.1,0C260.7,239,225.5,236.2,208.7,235.1z M308,441.7
	c-0.2-0.8-0.8-1.2-1.8-1.3c-1-0.1-2.5,0.1-4.4,0.6l-1.8,0.5l1.1,4.4l1.9-0.5c1.9-0.5,3.2-1,4.1-1.6
	C307.9,443.1,308.2,442.5,308,441.7z M308,441.7c-0.2-0.8-0.8-1.2-1.8-1.3c-1-0.1-2.5,0.1-4.4,0.6l-1.8,0.5l1.1,4.4l1.9-0.5
	c1.9-0.5,3.2-1,4.1-1.6C307.9,443.1,308.2,442.5,308,441.7z M208.7,235.1c18.5,9.1,53,10.1,71.1,0
	C260.7,239,225.5,236.2,208.7,235.1z M208.7,235.1c18.5,9.1,53,10.1,71.1,0C260.7,239,225.5,236.2,208.7,235.1z M308,441.7
	c-0.2-0.8-0.8-1.2-1.8-1.3c-1-0.1-2.5,0.1-4.4,0.6l-1.8,0.5l1.1,4.4l1.9-0.5c1.9-0.5,3.2-1,4.1-1.6
	C307.9,443.1,308.2,442.5,308,441.7z M308,441.7c-0.2-0.8-0.8-1.2-1.8-1.3c-1-0.1-2.5,0.1-4.4,0.6l-1.8,0.5l1.1,4.4l1.9-0.5
	c1.9-0.5,3.2-1,4.1-1.6C307.9,443.1,308.2,442.5,308,441.7z M208.7,235.1c18.5,9.1,53,10.1,71.1,0
	C260.7,239,225.5,236.2,208.7,235.1z M208.7,235.1c18.5,9.1,53,10.1,71.1,0C260.7,239,225.5,236.2,208.7,235.1z M308,441.7
	c-0.2-0.8-0.8-1.2-1.8-1.3c-1-0.1-2.5,0.1-4.4,0.6l-1.8,0.5l1.1,4.4l1.9-0.5c1.9-0.5,3.2-1,4.1-1.6
	C307.9,443.1,308.2,442.5,308,441.7z M308,441.7c-0.2-0.8-0.8-1.2-1.8-1.3c-1-0.1-2.5,0.1-4.4,0.6l-1.8,0.5l1.1,4.4l1.9-0.5
	c1.9-0.5,3.2-1,4.1-1.6C307.9,443.1,308.2,442.5,308,441.7z M208.7,235.1c18.5,9.1,53,10.1,71.1,0
	C260.7,239,225.5,236.2,208.7,235.1z M208.7,235.1c18.5,9.1,53,10.1,71.1,0C260.7,239,225.5,236.2,208.7,235.1z M308,441.7
	c-0.2-0.8-0.8-1.2-1.8-1.3c-1-0.1-2.5,0.1-4.4,0.6l-1.8,0.5l1.1,4.4l1.9-0.5c1.9-0.5,3.2-1,4.1-1.6
	C307.9,443.1,308.2,442.5,308,441.7z M308,441.7c-0.2-0.8-0.8-1.2-1.8-1.3c-1-0.1-2.5,0.1-4.4,0.6l-1.8,0.5l1.1,4.4l1.9-0.5
	c1.9-0.5,3.2-1,4.1-1.6C307.9,443.1,308.2,442.5,308,441.7z M208.7,235.1c18.5,9.1,53,10.1,71.1,0
	C260.7,239,225.5,236.2,208.7,235.1z M208.7,235.1c18.5,9.1,53,10.1,71.1,0C260.7,239,225.5,236.2,208.7,235.1z M308,441.7
	c-0.2-0.8-0.8-1.2-1.8-1.3c-1-0.1-2.5,0.1-4.4,0.6l-1.8,0.5l1.1,4.4l1.9-0.5c1.9-0.5,3.2-1,4.1-1.6
	C307.9,443.1,308.2,442.5,308,441.7z M308,441.7c-0.2-0.8-0.8-1.2-1.8-1.3c-1-0.1-2.5,0.1-4.4,0.6l-1.8,0.5l1.1,4.4l1.9-0.5
	c1.9-0.5,3.2-1,4.1-1.6C307.9,443.1,308.2,442.5,308,441.7z M208.7,235.1c18.5,9.1,53,10.1,71.1,0
	C260.7,239,225.5,236.2,208.7,235.1z M208.7,235.1c18.5,9.1,53,10.1,71.1,0C260.7,239,225.5,236.2,208.7,235.1z M308,441.7
	c-0.2-0.8-0.8-1.2-1.8-1.3c-1-0.1-2.5,0.1-4.4,0.6l-1.8,0.5l1.1,4.4l1.9-0.5c1.9-0.5,3.2-1,4.1-1.6
	C307.9,443.1,308.2,442.5,308,441.7z M308,441.7c-0.2-0.8-0.8-1.2-1.8-1.3c-1-0.1-2.5,0.1-4.4,0.6l-1.8,0.5l1.1,4.4l1.9-0.5
	c1.9-0.5,3.2-1,4.1-1.6C307.9,443.1,308.2,442.5,308,441.7z M208.7,235.1c18.5,9.1,53,10.1,71.1,0
	C260.7,239,225.5,236.2,208.7,235.1z M208.7,235.1c18.5,9.1,53,10.1,71.1,0C260.7,239,225.5,236.2,208.7,235.1z"/>
</svg>
